<?xml version="1.0" encoding="utf-8" standalone="no"?>
<!DOCTYPE svg PUBLIC "-//W3C//DTD SVG 1.1//EN"
  "http://www.w3.org/Graphics/SVG/1.1/DTD/svg11.dtd">
<svg xmlns:xlink="http://www.w3.org/1999/xlink" width="460.8pt" height="345.6pt" viewBox="0 0 460.8 345.6" xmlns="http://www.w3.org/2000/svg" version="1.1">
 <metadata>
  <rdf:RDF xmlns:dc="http://purl.org/dc/elements/1.1/" xmlns:cc="http://creativecommons.org/ns#" xmlns:rdf="http://www.w3.org/1999/02/22-rdf-syntax-ns#">
   <cc:Work>
    <dc:type rdf:resource="http://purl.org/dc/dcmitype/StillImage"/>
    <dc:date>2024-05-30T12:31:45.057324</dc:date>
    <dc:format>image/svg+xml</dc:format>
    <dc:creator>
     <cc:Agent>
      <dc:title>Matplotlib v3.6.2, https://matplotlib.org/</dc:title>
     </cc:Agent>
    </dc:creator>
   </cc:Work>
  </rdf:RDF>
 </metadata>
 <defs>
  <style type="text/css">*{stroke-linejoin: round; stroke-linecap: butt}</style>
 </defs>
 <g id="figure_1">
  <g id="patch_1">
   <path d="M 0 345.6 
L 460.8 345.6 
L 460.8 0 
L 0 0 
z
" style="fill: #ffffff"/>
  </g>
  <g id="patch_2">
   <path d="M 103.104 307.584 
L 369.216 307.584 
L 369.216 41.472 
L 103.104 41.472 
z
" style="fill: #ffffff"/>
  </g>
  <g id="pane3d_1">
   <g id="patch_3">
    <path d="M 321.718686 252.89447 
L 321.718686 88.969314 
L 329.37874 81.30926 
L 329.37874 260.554524 
" style="fill: none; opacity: 0"/>
   </g>
  </g>
  <g id="pane3d_2">
   <g id="patch_4">
    <path d="M 157.79353 88.969314 
L 321.718686 88.969314 
L 329.37874 81.30926 
L 150.133476 81.30926 
" style="fill: none; opacity: 0"/>
   </g>
  </g>
  <g id="pane3d_3">
   <g id="patch_5">
    <path d="M 157.79353 252.89447 
L 321.718686 252.89447 
L 321.718686 88.969314 
L 157.79353 88.969314 
" style="fill: none; opacity: 0"/>
   </g>
  </g>
  <g id="axis3d_1">
   <g id="line2d_1">
    <path d="M 321.718686 252.89447 
L 157.79353 252.89447 
" style="fill: none; stroke: #000000; stroke-width: 0.8; stroke-linecap: square"/>
   </g>
   <g id="text_1">
    <!-- X, cm -->
    <g transform="translate(222.688921 284.080423) scale(0.12 -0.12)">
     <defs>
      <path id="DejaVuSans-58" d="M 403 4666 
L 1081 4666 
L 2241 2931 
L 3406 4666 
L 4084 4666 
L 2584 2425 
L 4184 0 
L 3506 0 
L 2194 1984 
L 872 0 
L 191 0 
L 1856 2491 
L 403 4666 
z
" transform="scale(0.015625)"/>
      <path id="DejaVuSans-2c" d="M 750 794 
L 1409 794 
L 1409 256 
L 897 -744 
L 494 -744 
L 750 256 
L 750 794 
z
" transform="scale(0.015625)"/>
      <path id="DejaVuSans-20" transform="scale(0.015625)"/>
      <path id="DejaVuSans-63" d="M 3122 3366 
L 3122 2828 
Q 2878 2963 2633 3030 
Q 2388 3097 2138 3097 
Q 1578 3097 1268 2742 
Q 959 2388 959 1747 
Q 959 1106 1268 751 
Q 1578 397 2138 397 
Q 2388 397 2633 464 
Q 2878 531 3122 666 
L 3122 134 
Q 2881 22 2623 -34 
Q 2366 -91 2075 -91 
Q 1284 -91 818 406 
Q 353 903 353 1747 
Q 353 2603 823 3093 
Q 1294 3584 2113 3584 
Q 2378 3584 2631 3529 
Q 2884 3475 3122 3366 
z
" transform="scale(0.015625)"/>
      <path id="DejaVuSans-6d" d="M 3328 2828 
Q 3544 3216 3844 3400 
Q 4144 3584 4550 3584 
Q 5097 3584 5394 3201 
Q 5691 2819 5691 2113 
L 5691 0 
L 5113 0 
L 5113 2094 
Q 5113 2597 4934 2840 
Q 4756 3084 4391 3084 
Q 3944 3084 3684 2787 
Q 3425 2491 3425 1978 
L 3425 0 
L 2847 0 
L 2847 2094 
Q 2847 2600 2669 2842 
Q 2491 3084 2119 3084 
Q 1678 3084 1418 2786 
Q 1159 2488 1159 1978 
L 1159 0 
L 581 0 
L 581 3500 
L 1159 3500 
L 1159 2956 
Q 1356 3278 1631 3431 
Q 1906 3584 2284 3584 
Q 2666 3584 2933 3390 
Q 3200 3197 3328 2828 
z
" transform="scale(0.015625)"/>
     </defs>
     <use xlink:href="#DejaVuSans-58"/>
     <use xlink:href="#DejaVuSans-2c" x="68.505859"/>
     <use xlink:href="#DejaVuSans-20" x="100.292969"/>
     <use xlink:href="#DejaVuSans-63" x="132.080078"/>
     <use xlink:href="#DejaVuSans-6d" x="187.060547"/>
    </g>
   </g>
   <g id="Line3DCollection_1">
    <path d="M 166.762193 252.89447 
L 166.762193 88.969314 
L 159.940331 81.30926 
" style="fill: none"/>
    <path d="M 191.009832 252.89447 
L 191.009832 88.969314 
L 186.454105 81.30926 
" style="fill: none"/>
    <path d="M 215.257471 252.89447 
L 215.257471 88.969314 
L 212.967879 81.30926 
" style="fill: none"/>
    <path d="M 239.505111 252.89447 
L 239.505111 88.969314 
L 239.481653 81.30926 
" style="fill: none"/>
    <path d="M 263.75275 252.89447 
L 263.75275 88.969314 
L 265.995427 81.30926 
" style="fill: none"/>
    <path d="M 288.00039 252.89447 
L 288.00039 88.969314 
L 292.509201 81.30926 
" style="fill: none"/>
    <path d="M 312.248029 252.89447 
L 312.248029 88.969314 
L 319.022975 81.30926 
" style="fill: none"/>
   </g>
   <g id="xtick_1">
    <g id="line2d_2">
     <path d="M 166.762193 251.583069 
L 166.762193 255.517273 
" style="fill: none; stroke: #000000; stroke-width: 0.8; stroke-linecap: square"/>
    </g>
    <g id="text_2">
     <!-- −3 -->
     <g transform="translate(159.905103 273.421266) scale(0.1 -0.1)">
      <defs>
       <path id="DejaVuSans-2212" d="M 678 2272 
L 4684 2272 
L 4684 1741 
L 678 1741 
L 678 2272 
z
" transform="scale(0.015625)"/>
       <path id="DejaVuSans-33" d="M 2597 2516 
Q 3050 2419 3304 2112 
Q 3559 1806 3559 1356 
Q 3559 666 3084 287 
Q 2609 -91 1734 -91 
Q 1441 -91 1130 -33 
Q 819 25 488 141 
L 488 750 
Q 750 597 1062 519 
Q 1375 441 1716 441 
Q 2309 441 2620 675 
Q 2931 909 2931 1356 
Q 2931 1769 2642 2001 
Q 2353 2234 1838 2234 
L 1294 2234 
L 1294 2753 
L 1863 2753 
Q 2328 2753 2575 2939 
Q 2822 3125 2822 3475 
Q 2822 3834 2567 4026 
Q 2313 4219 1838 4219 
Q 1578 4219 1281 4162 
Q 984 4106 628 3988 
L 628 4550 
Q 988 4650 1302 4700 
Q 1616 4750 1894 4750 
Q 2613 4750 3031 4423 
Q 3450 4097 3450 3541 
Q 3450 3153 3228 2886 
Q 3006 2619 2597 2516 
z
" transform="scale(0.015625)"/>
      </defs>
      <use xlink:href="#DejaVuSans-2212"/>
      <use xlink:href="#DejaVuSans-33" x="83.789062"/>
     </g>
    </g>
   </g>
   <g id="xtick_2">
    <g id="line2d_3">
     <path d="M 191.009832 251.583069 
L 191.009832 255.517273 
" style="fill: none; stroke: #000000; stroke-width: 0.8; stroke-linecap: square"/>
    </g>
    <g id="text_3">
     <!-- −2 -->
     <g transform="translate(183.981997 273.421266) scale(0.1 -0.1)">
      <defs>
       <path id="DejaVuSans-32" d="M 1228 531 
L 3431 531 
L 3431 0 
L 469 0 
L 469 531 
Q 828 903 1448 1529 
Q 2069 2156 2228 2338 
Q 2531 2678 2651 2914 
Q 2772 3150 2772 3378 
Q 2772 3750 2511 3984 
Q 2250 4219 1831 4219 
Q 1534 4219 1204 4116 
Q 875 4013 500 3803 
L 500 4441 
Q 881 4594 1212 4672 
Q 1544 4750 1819 4750 
Q 2544 4750 2975 4387 
Q 3406 4025 3406 3419 
Q 3406 3131 3298 2873 
Q 3191 2616 2906 2266 
Q 2828 2175 2409 1742 
Q 1991 1309 1228 531 
z
" transform="scale(0.015625)"/>
      </defs>
      <use xlink:href="#DejaVuSans-2212"/>
      <use xlink:href="#DejaVuSans-32" x="83.789062"/>
     </g>
    </g>
   </g>
   <g id="xtick_3">
    <g id="line2d_4">
     <path d="M 215.257471 251.583069 
L 215.257471 255.517273 
" style="fill: none; stroke: #000000; stroke-width: 0.8; stroke-linecap: square"/>
    </g>
    <g id="text_4">
     <!-- −1 -->
     <g transform="translate(208.058891 273.421266) scale(0.1 -0.1)">
      <defs>
       <path id="DejaVuSans-31" d="M 794 531 
L 1825 531 
L 1825 4091 
L 703 3866 
L 703 4441 
L 1819 4666 
L 2450 4666 
L 2450 531 
L 3481 531 
L 3481 0 
L 794 0 
L 794 531 
z
" transform="scale(0.015625)"/>
      </defs>
      <use xlink:href="#DejaVuSans-2212"/>
      <use xlink:href="#DejaVuSans-31" x="83.789062"/>
     </g>
    </g>
   </g>
   <g id="xtick_4">
    <g id="line2d_5">
     <path d="M 239.505111 251.583069 
L 239.505111 255.517273 
" style="fill: none; stroke: #000000; stroke-width: 0.8; stroke-linecap: square"/>
    </g>
    <g id="text_5">
     <!-- 0 -->
     <g transform="translate(236.325628 273.421266) scale(0.1 -0.1)">
      <defs>
       <path id="DejaVuSans-30" d="M 2034 4250 
Q 1547 4250 1301 3770 
Q 1056 3291 1056 2328 
Q 1056 1369 1301 889 
Q 1547 409 2034 409 
Q 2525 409 2770 889 
Q 3016 1369 3016 2328 
Q 3016 3291 2770 3770 
Q 2525 4250 2034 4250 
z
M 2034 4750 
Q 2819 4750 3233 4129 
Q 3647 3509 3647 2328 
Q 3647 1150 3233 529 
Q 2819 -91 2034 -91 
Q 1250 -91 836 529 
Q 422 1150 422 2328 
Q 422 3509 836 4129 
Q 1250 4750 2034 4750 
z
" transform="scale(0.015625)"/>
      </defs>
      <use xlink:href="#DejaVuSans-30"/>
     </g>
    </g>
   </g>
   <g id="xtick_5">
    <g id="line2d_6">
     <path d="M 263.75275 251.583069 
L 263.75275 255.517273 
" style="fill: none; stroke: #000000; stroke-width: 0.8; stroke-linecap: square"/>
    </g>
    <g id="text_6">
     <!-- 1 -->
     <g transform="translate(260.402522 273.421266) scale(0.1 -0.1)">
      <use xlink:href="#DejaVuSans-31"/>
     </g>
    </g>
   </g>
   <g id="xtick_6">
    <g id="line2d_7">
     <path d="M 288.00039 251.583069 
L 288.00039 255.517273 
" style="fill: none; stroke: #000000; stroke-width: 0.8; stroke-linecap: square"/>
    </g>
    <g id="text_7">
     <!-- 2 -->
     <g transform="translate(284.479416 273.421266) scale(0.1 -0.1)">
      <use xlink:href="#DejaVuSans-32"/>
     </g>
    </g>
   </g>
   <g id="xtick_7">
    <g id="line2d_8">
     <path d="M 312.248029 251.583069 
L 312.248029 255.517273 
" style="fill: none; stroke: #000000; stroke-width: 0.8; stroke-linecap: square"/>
    </g>
    <g id="text_8">
     <!-- 3 -->
     <g transform="translate(308.55631 273.421266) scale(0.1 -0.1)">
      <use xlink:href="#DejaVuSans-33"/>
     </g>
    </g>
   </g>
  </g>
  <g id="axis3d_2">
   <g id="line2d_9">
    <path d="M 157.79353 88.969314 
L 157.79353 252.89447 
" style="fill: none; stroke: #000000; stroke-width: 0.8; stroke-linecap: square"/>
   </g>
   <g id="text_9">
    <!-- Y, cm -->
    <g transform="translate(133.230077 187.553767) rotate(-90) scale(0.12 -0.12)">
     <defs>
      <path id="DejaVuSans-59" d="M -13 4666 
L 666 4666 
L 1959 2747 
L 3244 4666 
L 3922 4666 
L 2272 2222 
L 2272 0 
L 1638 0 
L 1638 2222 
L -13 4666 
z
" transform="scale(0.015625)"/>
     </defs>
     <use xlink:href="#DejaVuSans-59"/>
     <use xlink:href="#DejaVuSans-2c" x="61.083984"/>
     <use xlink:href="#DejaVuSans-20" x="92.871094"/>
     <use xlink:href="#DejaVuSans-63" x="124.658203"/>
     <use xlink:href="#DejaVuSans-6d" x="179.638672"/>
    </g>
   </g>
   <g id="Line3DCollection_2">
    <path d="M 329.37874 234.52964 
L 321.718686 229.093935 
L 157.79353 229.093935 
" style="fill: none"/>
    <path d="M 329.37874 204.709328 
L 321.718686 201.822367 
L 157.79353 201.822367 
" style="fill: none"/>
    <path d="M 329.37874 174.889016 
L 321.718686 174.5508 
L 157.79353 174.5508 
" style="fill: none"/>
    <path d="M 329.37874 145.068703 
L 321.718686 147.279232 
L 157.79353 147.279232 
" style="fill: none"/>
    <path d="M 329.37874 115.248391 
L 321.718686 120.007665 
L 157.79353 120.007665 
" style="fill: none"/>
    <path d="M 329.37874 85.428079 
L 321.718686 92.736097 
L 157.79353 92.736097 
" style="fill: none"/>
   </g>
   <g id="xtick_8">
    <g id="line2d_10">
     <path d="M 159.104931 229.093935 
L 155.170727 229.093935 
" style="fill: none; stroke: #000000; stroke-width: 0.8; stroke-linecap: square"/>
    </g>
    <g id="text_10">
     <!-- −2 -->
     <g transform="translate(137.494078 236.282811) scale(0.1 -0.1)">
      <use xlink:href="#DejaVuSans-2212"/>
      <use xlink:href="#DejaVuSans-32" x="83.789062"/>
     </g>
    </g>
   </g>
   <g id="xtick_9">
    <g id="line2d_11">
     <path d="M 159.104931 201.822367 
L 155.170727 201.822367 
" style="fill: none; stroke: #000000; stroke-width: 0.8; stroke-linecap: square"/>
    </g>
    <g id="text_11">
     <!-- −1 -->
     <g transform="translate(137.494078 209.203282) scale(0.1 -0.1)">
      <use xlink:href="#DejaVuSans-2212"/>
      <use xlink:href="#DejaVuSans-31" x="83.789062"/>
     </g>
    </g>
   </g>
   <g id="xtick_10">
    <g id="line2d_12">
     <path d="M 159.104931 174.5508 
L 155.170727 174.5508 
" style="fill: none; stroke: #000000; stroke-width: 0.8; stroke-linecap: square"/>
    </g>
    <g id="text_12">
     <!-- 0 -->
     <g transform="translate(141.683922 182.123754) scale(0.1 -0.1)">
      <use xlink:href="#DejaVuSans-30"/>
     </g>
    </g>
   </g>
   <g id="xtick_11">
    <g id="line2d_13">
     <path d="M 159.104931 147.279232 
L 155.170727 147.279232 
" style="fill: none; stroke: #000000; stroke-width: 0.8; stroke-linecap: square"/>
    </g>
    <g id="text_13">
     <!-- 1 -->
     <g transform="translate(141.683922 155.044226) scale(0.1 -0.1)">
      <use xlink:href="#DejaVuSans-31"/>
     </g>
    </g>
   </g>
   <g id="xtick_12">
    <g id="line2d_14">
     <path d="M 159.104931 120.007665 
L 155.170727 120.007665 
" style="fill: none; stroke: #000000; stroke-width: 0.8; stroke-linecap: square"/>
    </g>
    <g id="text_14">
     <!-- 2 -->
     <g transform="translate(141.683922 127.964697) scale(0.1 -0.1)">
      <use xlink:href="#DejaVuSans-32"/>
     </g>
    </g>
   </g>
   <g id="xtick_13">
    <g id="line2d_15">
     <path d="M 159.104931 92.736097 
L 155.170727 92.736097 
" style="fill: none; stroke: #000000; stroke-width: 0.8; stroke-linecap: square"/>
    </g>
    <g id="text_15">
     <!-- 3 -->
     <g transform="translate(141.683922 100.885169) scale(0.1 -0.1)">
      <use xlink:href="#DejaVuSans-33"/>
     </g>
    </g>
   </g>
  </g>
  <g id="axis3d_3">
   <g id="line2d_16">
    <path d="M 157.79353 88.969314 
L 150.133476 81.30926 
" style="fill: none; stroke: #000000; stroke-width: 0.8; stroke-linecap: square"/>
   </g>
   <g id="text_16">
    <!-- Z, cm -->
    <g transform="translate(108.836724 44.695322) rotate(-315) scale(0.12 -0.12)">
     <defs>
      <path id="DejaVuSans-5a" d="M 359 4666 
L 4025 4666 
L 4025 4184 
L 1075 531 
L 4097 531 
L 4097 0 
L 288 0 
L 288 481 
L 3238 4134 
L 359 4134 
L 359 4666 
z
" transform="scale(0.015625)"/>
     </defs>
     <use xlink:href="#DejaVuSans-5a"/>
     <use xlink:href="#DejaVuSans-2c" x="68.505859"/>
     <use xlink:href="#DejaVuSans-20" x="100.292969"/>
     <use xlink:href="#DejaVuSans-63" x="132.080078"/>
     <use xlink:href="#DejaVuSans-6d" x="187.060547"/>
    </g>
   </g>
   <g id="text_17">
    <!-- 1e−2 -->
    <g transform="translate(115.850906 50.929036) rotate(-315) scale(0.1 -0.1)">
     <defs>
      <path id="DejaVuSans-65" d="M 3597 1894 
L 3597 1613 
L 953 1613 
Q 991 1019 1311 708 
Q 1631 397 2203 397 
Q 2534 397 2845 478 
Q 3156 559 3463 722 
L 3463 178 
Q 3153 47 2828 -22 
Q 2503 -91 2169 -91 
Q 1331 -91 842 396 
Q 353 884 353 1716 
Q 353 2575 817 3079 
Q 1281 3584 2069 3584 
Q 2775 3584 3186 3129 
Q 3597 2675 3597 1894 
z
M 3022 2063 
Q 3016 2534 2758 2815 
Q 2500 3097 2075 3097 
Q 1594 3097 1305 2825 
Q 1016 2553 972 2059 
L 3022 2063 
z
" transform="scale(0.015625)"/>
     </defs>
     <use xlink:href="#DejaVuSans-31"/>
     <use xlink:href="#DejaVuSans-65" x="63.623047"/>
     <use xlink:href="#DejaVuSans-2212" x="125.146484"/>
     <use xlink:href="#DejaVuSans-32" x="208.935547"/>
    </g>
   </g>
   <g id="Line3DCollection_3">
    <path d="M 156.972772 88.148556 
L 322.539444 88.148556 
L 322.539444 253.715228 
" style="fill: none"/>
    <path d="M 155.577547 86.753331 
L 323.934669 86.753331 
L 323.934669 255.110453 
" style="fill: none"/>
    <path d="M 154.134486 85.31027 
L 325.37773 85.31027 
L 325.37773 256.553514 
" style="fill: none"/>
    <path d="M 152.641086 83.81687 
L 326.87113 83.81687 
L 326.87113 258.046914 
" style="fill: none"/>
    <path d="M 151.094665 82.270449 
L 328.417551 82.270449 
L 328.417551 259.593335 
" style="fill: none"/>
   </g>
   <g id="xtick_14">
    <g id="line2d_17">
     <path d="M 158.297305 88.148556 
L 154.323705 88.148556 
" style="fill: none; stroke: #000000; stroke-width: 0.8; stroke-linecap: square"/>
    </g>
    <g id="text_18">
     <!-- −4 -->
     <g transform="translate(135.864184 82.009499) scale(0.1 -0.1)">
      <defs>
       <path id="DejaVuSans-34" d="M 2419 4116 
L 825 1625 
L 2419 1625 
L 2419 4116 
z
M 2253 4666 
L 3047 4666 
L 3047 1625 
L 3713 1625 
L 3713 1100 
L 3047 1100 
L 3047 0 
L 2419 0 
L 2419 1100 
L 313 1100 
L 313 1709 
L 2253 4666 
z
" transform="scale(0.015625)"/>
      </defs>
      <use xlink:href="#DejaVuSans-2212"/>
      <use xlink:href="#DejaVuSans-34" x="83.789062"/>
     </g>
    </g>
   </g>
   <g id="xtick_15">
    <g id="line2d_18">
     <path d="M 156.924404 86.753331 
L 152.883833 86.753331 
" style="fill: none; stroke: #000000; stroke-width: 0.8; stroke-linecap: square"/>
    </g>
    <g id="text_19">
     <!-- −2 -->
     <g transform="translate(134.237428 80.382743) scale(0.1 -0.1)">
      <use xlink:href="#DejaVuSans-2212"/>
      <use xlink:href="#DejaVuSans-32" x="83.789062"/>
     </g>
    </g>
   </g>
   <g id="xtick_16">
    <g id="line2d_19">
     <path d="M 155.504432 85.31027 
L 151.394594 85.31027 
" style="fill: none; stroke: #000000; stroke-width: 0.8; stroke-linecap: square"/>
    </g>
    <g id="text_20">
     <!-- 0 -->
     <g transform="translate(136.744742 78.700213) scale(0.1 -0.1)">
      <use xlink:href="#DejaVuSans-30"/>
     </g>
    </g>
   </g>
   <g id="xtick_17">
    <g id="line2d_20">
     <path d="M 154.034926 83.81687 
L 149.853405 83.81687 
" style="fill: none; stroke: #000000; stroke-width: 0.8; stroke-linecap: square"/>
    </g>
    <g id="text_21">
     <!-- 2 -->
     <g transform="translate(135.003519 76.95899) scale(0.1 -0.1)">
      <use xlink:href="#DejaVuSans-32"/>
     </g>
    </g>
   </g>
   <g id="xtick_18">
    <g id="line2d_21">
     <path d="M 152.513248 82.270449 
L 148.257499 82.270449 
" style="fill: none; stroke: #000000; stroke-width: 0.8; stroke-linecap: square"/>
    </g>
    <g id="text_22">
     <!-- 4 -->
     <g transform="translate(133.200478 75.155949) scale(0.1 -0.1)">
      <use xlink:href="#DejaVuSans-34"/>
     </g>
    </g>
   </g>
  </g>
  <g id="axes_1">
   <g id="line2d_22">
    <path d="M 197.715949 236.660807 
L 198.749997 231.351369 
" clip-path="url(#p2b18008bc0)" style="fill: none; stroke: #ff0000; stroke-opacity: 0.8; stroke-linecap: square"/>
   </g>
   <g id="line2d_23">
    <path d="M 198.749997 231.351369 
L 197.431076 226.122391 
" clip-path="url(#p2b18008bc0)" style="fill: none; stroke: #ff0000; stroke-opacity: 0.8; stroke-linecap: square"/>
   </g>
   <g id="line2d_24">
    <path d="M 197.431076 226.122391 
L 194.07214 222.214614 
" clip-path="url(#p2b18008bc0)" style="fill: none; stroke: #ff0000; stroke-opacity: 0.8; stroke-linecap: square"/>
   </g>
   <g id="line2d_25">
    <path d="M 194.07214 222.214614 
L 189.470206 220.555286 
" clip-path="url(#p2b18008bc0)" style="fill: none; stroke: #ff0000; stroke-opacity: 0.8; stroke-linecap: square"/>
   </g>
   <g id="line2d_26">
    <path d="M 189.470206 220.555286 
L 184.717231 221.538135 
" clip-path="url(#p2b18008bc0)" style="fill: none; stroke: #ff0000; stroke-opacity: 0.8; stroke-linecap: square"/>
   </g>
   <g id="line2d_27">
    <path d="M 184.717231 221.538135 
L 180.941011 224.929948 
" clip-path="url(#p2b18008bc0)" style="fill: none; stroke: #ff0000; stroke-opacity: 0.8; stroke-linecap: square"/>
   </g>
   <g id="line2d_28">
    <path d="M 180.941011 224.929948 
L 179.037576 229.925909 
" clip-path="url(#p2b18008bc0)" style="fill: none; stroke: #ff0000; stroke-opacity: 0.8; stroke-linecap: square"/>
   </g>
   <g id="line2d_29">
    <path d="M 179.037576 229.925909 
L 179.458576 235.340565 
" clip-path="url(#p2b18008bc0)" style="fill: none; stroke: #ff0000; stroke-opacity: 0.8; stroke-linecap: square"/>
   </g>
   <g id="line2d_30">
    <path d="M 179.458576 235.340565 
L 182.104117 239.889115 
" clip-path="url(#p2b18008bc0)" style="fill: none; stroke: #ff0000; stroke-opacity: 0.8; stroke-linecap: square"/>
   </g>
   <g id="line2d_31">
    <path d="M 182.104117 239.889115 
L 186.346457 242.492269 
" clip-path="url(#p2b18008bc0)" style="fill: none; stroke: #ff0000; stroke-opacity: 0.8; stroke-linecap: square"/>
   </g>
   <g id="line2d_32">
    <path d="M 186.346457 242.492269 
L 191.178967 242.532346 
" clip-path="url(#p2b18008bc0)" style="fill: none; stroke: #ff0000; stroke-opacity: 0.8; stroke-linecap: square"/>
   </g>
   <g id="line2d_33">
    <path d="M 191.178967 242.532346 
L 195.454976 239.999834 
" clip-path="url(#p2b18008bc0)" style="fill: none; stroke: #ff0000; stroke-opacity: 0.8; stroke-linecap: square"/>
   </g>
   <g id="line2d_34">
    <path d="M 177.901295 224.98131 
L 176.379734 231.67468 
" clip-path="url(#p2b18008bc0)" style="fill: none; stroke: #ff0000; stroke-opacity: 0.8; stroke-linecap: square"/>
   </g>
   <g id="line2d_35">
    <path d="M 176.379734 231.67468 
L 177.887887 238.371887 
" clip-path="url(#p2b18008bc0)" style="fill: none; stroke: #ff0000; stroke-opacity: 0.8; stroke-linecap: square"/>
   </g>
   <g id="line2d_36">
    <path d="M 177.887887 238.371887 
L 182.058858 243.443677 
" clip-path="url(#p2b18008bc0)" style="fill: none; stroke: #ff0000; stroke-opacity: 0.8; stroke-linecap: square"/>
   </g>
   <g id="line2d_37">
    <path d="M 182.058858 243.443677 
L 187.877961 245.656216 
" clip-path="url(#p2b18008bc0)" style="fill: none; stroke: #ff0000; stroke-opacity: 0.8; stroke-linecap: square"/>
   </g>
   <g id="line2d_38">
    <path d="M 187.877961 245.656216 
L 193.92956 244.471253 
" clip-path="url(#p2b18008bc0)" style="fill: none; stroke: #ff0000; stroke-opacity: 0.8; stroke-linecap: square"/>
   </g>
   <g id="line2d_39">
    <path d="M 193.92956 244.471253 
L 198.74146 240.177056 
" clip-path="url(#p2b18008bc0)" style="fill: none; stroke: #ff0000; stroke-opacity: 0.8; stroke-linecap: square"/>
   </g>
   <g id="line2d_40">
    <path d="M 198.74146 240.177056 
L 201.143052 233.818293 
" clip-path="url(#p2b18008bc0)" style="fill: none; stroke: #ff0000; stroke-opacity: 0.8; stroke-linecap: square"/>
   </g>
   <g id="line2d_41">
    <path d="M 201.143052 233.818293 
L 200.550092 226.941882 
" clip-path="url(#p2b18008bc0)" style="fill: none; stroke: #ff0000; stroke-opacity: 0.8; stroke-linecap: square"/>
   </g>
   <g id="line2d_42">
    <path d="M 200.550092 226.941882 
L 197.106832 221.220674 
" clip-path="url(#p2b18008bc0)" style="fill: none; stroke: #ff0000; stroke-opacity: 0.8; stroke-linecap: square"/>
   </g>
   <g id="line2d_43">
    <path d="M 197.106832 221.220674 
L 191.650925 218.046489 
" clip-path="url(#p2b18008bc0)" style="fill: none; stroke: #ff0000; stroke-opacity: 0.8; stroke-linecap: square"/>
   </g>
   <g id="line2d_44">
    <path d="M 191.650925 218.046489 
L 185.509652 218.191523 
" clip-path="url(#p2b18008bc0)" style="fill: none; stroke: #ff0000; stroke-opacity: 0.8; stroke-linecap: square"/>
   </g>
   <g id="line2d_45">
    <path d="M 185.509652 218.191523 
L 180.177022 221.620493 
" clip-path="url(#p2b18008bc0)" style="fill: none; stroke: #ff0000; stroke-opacity: 0.8; stroke-linecap: square"/>
   </g>
   <g id="line2d_46">
    <path d="M 212.635534 180.904102 
L 165.031784 168.520614 
" clip-path="url(#p2b18008bc0)" style="fill: none; stroke: #0000ff; stroke-opacity: 0.8; stroke-linecap: square"/>
   </g>
   <g id="line2d_47">
    <path d="M 200.2772 126.027623 
L 202.411969 118.834366 
" clip-path="url(#p2b18008bc0)" style="fill: none; stroke: #ff0000; stroke-opacity: 0.8; stroke-linecap: square"/>
   </g>
   <g id="line2d_48">
    <path d="M 202.411969 118.834366 
L 201.215914 111.371247 
" clip-path="url(#p2b18008bc0)" style="fill: none; stroke: #ff0000; stroke-opacity: 0.8; stroke-linecap: square"/>
   </g>
   <g id="line2d_49">
    <path d="M 201.215914 111.371247 
L 196.982435 105.469006 
" clip-path="url(#p2b18008bc0)" style="fill: none; stroke: #ff0000; stroke-opacity: 0.8; stroke-linecap: square"/>
   </g>
   <g id="line2d_50">
    <path d="M 196.982435 105.469006 
L 190.750023 102.575489 
" clip-path="url(#p2b18008bc0)" style="fill: none; stroke: #ff0000; stroke-opacity: 0.8; stroke-linecap: square"/>
   </g>
   <g id="line2d_51">
    <path d="M 190.750023 102.575489 
L 184.047518 103.40049 
" clip-path="url(#p2b18008bc0)" style="fill: none; stroke: #ff0000; stroke-opacity: 0.8; stroke-linecap: square"/>
   </g>
   <g id="line2d_52">
    <path d="M 184.047518 103.40049 
L 178.519076 107.741632 
" clip-path="url(#p2b18008bc0)" style="fill: none; stroke: #ff0000; stroke-opacity: 0.8; stroke-linecap: square"/>
   </g>
   <g id="line2d_53">
    <path d="M 178.519076 107.741632 
L 175.520849 114.534012 
" clip-path="url(#p2b18008bc0)" style="fill: none; stroke: #ff0000; stroke-opacity: 0.8; stroke-linecap: square"/>
   </g>
   <g id="line2d_54">
    <path d="M 175.520849 114.534012 
L 175.788316 122.111429 
" clip-path="url(#p2b18008bc0)" style="fill: none; stroke: #ff0000; stroke-opacity: 0.8; stroke-linecap: square"/>
   </g>
   <g id="line2d_55">
    <path d="M 175.788316 122.111429 
L 179.255867 128.615106 
" clip-path="url(#p2b18008bc0)" style="fill: none; stroke: #ff0000; stroke-opacity: 0.8; stroke-linecap: square"/>
   </g>
   <g id="line2d_56">
    <path d="M 179.255867 128.615106 
L 185.072895 132.449661 
" clip-path="url(#p2b18008bc0)" style="fill: none; stroke: #ff0000; stroke-opacity: 0.8; stroke-linecap: square"/>
   </g>
   <g id="line2d_57">
    <path d="M 185.072895 132.449661 
L 191.812456 132.674461 
" clip-path="url(#p2b18008bc0)" style="fill: none; stroke: #ff0000; stroke-opacity: 0.8; stroke-linecap: square"/>
   </g>
   <g id="line2d_58">
    <path d="M 191.812456 132.674461 
L 197.821304 129.234359 
" clip-path="url(#p2b18008bc0)" style="fill: none; stroke: #ff0000; stroke-opacity: 0.8; stroke-linecap: square"/>
   </g>
   <g id="line2d_59">
    <path d="M 175.452335 107.571347 
L 172.752295 116.104635 
" clip-path="url(#p2b18008bc0)" style="fill: none; stroke: #ff0000; stroke-opacity: 0.8; stroke-linecap: square"/>
   </g>
   <g id="line2d_60">
    <path d="M 172.752295 116.104635 
L 174.052664 125.043309 
" clip-path="url(#p2b18008bc0)" style="fill: none; stroke: #ff0000; stroke-opacity: 0.8; stroke-linecap: square"/>
   </g>
   <g id="line2d_61">
    <path d="M 174.052664 125.043309 
L 179.029962 132.16378 
" clip-path="url(#p2b18008bc0)" style="fill: none; stroke: #ff0000; stroke-opacity: 0.8; stroke-linecap: square"/>
   </g>
   <g id="line2d_62">
    <path d="M 179.029962 132.16378 
L 186.446032 135.694757 
" clip-path="url(#p2b18008bc0)" style="fill: none; stroke: #ff0000; stroke-opacity: 0.8; stroke-linecap: square"/>
   </g>
   <g id="line2d_63">
    <path d="M 186.446032 135.694757 
L 194.45605 134.757871 
" clip-path="url(#p2b18008bc0)" style="fill: none; stroke: #ff0000; stroke-opacity: 0.8; stroke-linecap: square"/>
   </g>
   <g id="line2d_64">
    <path d="M 194.45605 134.757871 
L 201.067439 129.586183 
" clip-path="url(#p2b18008bc0)" style="fill: none; stroke: #ff0000; stroke-opacity: 0.8; stroke-linecap: square"/>
   </g>
   <g id="line2d_65">
    <path d="M 201.067439 129.586183 
L 204.635546 121.466205 
" clip-path="url(#p2b18008bc0)" style="fill: none; stroke: #ff0000; stroke-opacity: 0.8; stroke-linecap: square"/>
   </g>
   <g id="line2d_66">
    <path d="M 204.635546 121.466205 
L 204.272767 112.417866 
" clip-path="url(#p2b18008bc0)" style="fill: none; stroke: #ff0000; stroke-opacity: 0.8; stroke-linecap: square"/>
   </g>
   <g id="line2d_67">
    <path d="M 204.272767 112.417866 
L 200.069347 104.692037 
" clip-path="url(#p2b18008bc0)" style="fill: none; stroke: #ff0000; stroke-opacity: 0.8; stroke-linecap: square"/>
   </g>
   <g id="line2d_68">
    <path d="M 200.069347 104.692037 
L 193.070932 100.210599 
" clip-path="url(#p2b18008bc0)" style="fill: none; stroke: #ff0000; stroke-opacity: 0.8; stroke-linecap: square"/>
   </g>
   <g id="line2d_69">
    <path d="M 193.070932 100.210599 
L 185.01845 100.088356 
" clip-path="url(#p2b18008bc0)" style="fill: none; stroke: #ff0000; stroke-opacity: 0.8; stroke-linecap: square"/>
   </g>
   <g id="line2d_70">
    <path d="M 185.01845 100.088356 
L 177.915042 104.355719 
" clip-path="url(#p2b18008bc0)" style="fill: none; stroke: #ff0000; stroke-opacity: 0.8; stroke-linecap: square"/>
   </g>
   <g id="line2d_71">
    <path d="M 248.915395 240.552768 
L 230.072416 222.828142 
" clip-path="url(#p2b18008bc0)" style="fill: none; stroke: #0000ff; stroke-opacity: 0.8; stroke-linecap: square"/>
   </g>
   <g id="line2d_72">
    <path d="M 240.807447 169.146975 
L 238.180364 180.277742 
" clip-path="url(#p2b18008bc0)" style="fill: none; stroke: #0000ff; stroke-opacity: 0.8; stroke-linecap: square"/>
   </g>
   <g id="line2d_73">
    <path d="M 250.26464 102.81014 
L 242.497899 98.811729 
" clip-path="url(#p2b18008bc0)" style="fill: none; stroke: #ff0000; stroke-opacity: 0.8; stroke-linecap: square"/>
   </g>
   <g id="line2d_74">
    <path d="M 242.497899 98.811729 
L 233.980778 99.540059 
" clip-path="url(#p2b18008bc0)" style="fill: none; stroke: #ff0000; stroke-opacity: 0.8; stroke-linecap: square"/>
   </g>
   <g id="line2d_75">
    <path d="M 233.980778 99.540059 
L 226.840805 104.813197 
" clip-path="url(#p2b18008bc0)" style="fill: none; stroke: #ff0000; stroke-opacity: 0.8; stroke-linecap: square"/>
   </g>
   <g id="line2d_76">
    <path d="M 226.840805 104.813197 
L 222.861503 113.313942 
" clip-path="url(#p2b18008bc0)" style="fill: none; stroke: #ff0000; stroke-opacity: 0.8; stroke-linecap: square"/>
   </g>
   <g id="line2d_77">
    <path d="M 222.861503 113.313942 
L 223.036881 122.918858 
" clip-path="url(#p2b18008bc0)" style="fill: none; stroke: #ff0000; stroke-opacity: 0.8; stroke-linecap: square"/>
   </g>
   <g id="line2d_78">
    <path d="M 223.036881 122.918858 
L 227.323129 131.228692 
" clip-path="url(#p2b18008bc0)" style="fill: none; stroke: #ff0000; stroke-opacity: 0.8; stroke-linecap: square"/>
   </g>
   <g id="line2d_79">
    <path d="M 227.323129 131.228692 
L 234.649567 136.167694 
" clip-path="url(#p2b18008bc0)" style="fill: none; stroke: #ff0000; stroke-opacity: 0.8; stroke-linecap: square"/>
   </g>
   <g id="line2d_80">
    <path d="M 234.649567 136.167694 
L 243.186093 136.502131 
" clip-path="url(#p2b18008bc0)" style="fill: none; stroke: #ff0000; stroke-opacity: 0.8; stroke-linecap: square"/>
   </g>
   <g id="line2d_81">
    <path d="M 243.186093 136.502131 
L 250.800332 132.148461 
" clip-path="url(#p2b18008bc0)" style="fill: none; stroke: #ff0000; stroke-opacity: 0.8; stroke-linecap: square"/>
   </g>
   <g id="line2d_82">
    <path d="M 250.800332 132.148461 
L 255.590291 124.194207 
" clip-path="url(#p2b18008bc0)" style="fill: none; stroke: #ff0000; stroke-opacity: 0.8; stroke-linecap: square"/>
   </g>
   <g id="line2d_83">
    <path d="M 255.590291 124.194207 
L 256.359464 114.626296 
" clip-path="url(#p2b18008bc0)" style="fill: none; stroke: #ff0000; stroke-opacity: 0.8; stroke-linecap: square"/>
   </g>
   <g id="line2d_84">
    <path d="M 256.359464 114.626296 
L 252.915718 105.834737 
" clip-path="url(#p2b18008bc0)" style="fill: none; stroke: #ff0000; stroke-opacity: 0.8; stroke-linecap: square"/>
   </g>
   <g id="line2d_85">
    <path d="M 226.911798 134.671161 
L 235.816418 139.413937 
" clip-path="url(#p2b18008bc0)" style="fill: none; stroke: #ff0000; stroke-opacity: 0.8; stroke-linecap: square"/>
   </g>
   <g id="line2d_86">
    <path d="M 235.816418 139.413937 
L 245.648092 138.691506 
" clip-path="url(#p2b18008bc0)" style="fill: none; stroke: #ff0000; stroke-opacity: 0.8; stroke-linecap: square"/>
   </g>
   <g id="line2d_87">
    <path d="M 245.648092 138.691506 
L 253.928364 132.685986 
" clip-path="url(#p2b18008bc0)" style="fill: none; stroke: #ff0000; stroke-opacity: 0.8; stroke-linecap: square"/>
   </g>
   <g id="line2d_88">
    <path d="M 253.928364 132.685986 
L 258.569867 122.9113 
" clip-path="url(#p2b18008bc0)" style="fill: none; stroke: #ff0000; stroke-opacity: 0.8; stroke-linecap: square"/>
   </g>
   <g id="line2d_89">
    <path d="M 258.569867 122.9113 
L 258.402532 111.831541 
" clip-path="url(#p2b18008bc0)" style="fill: none; stroke: #ff0000; stroke-opacity: 0.8; stroke-linecap: square"/>
   </g>
   <g id="line2d_90">
    <path d="M 258.402532 111.831541 
L 253.46854 102.239792 
" clip-path="url(#p2b18008bc0)" style="fill: none; stroke: #ff0000; stroke-opacity: 0.8; stroke-linecap: square"/>
   </g>
   <g id="line2d_91">
    <path d="M 253.46854 102.239792 
L 245.011698 96.554028 
" clip-path="url(#p2b18008bc0)" style="fill: none; stroke: #ff0000; stroke-opacity: 0.8; stroke-linecap: square"/>
   </g>
   <g id="line2d_92">
    <path d="M 245.011698 96.554028 
L 235.163881 96.207567 
" clip-path="url(#p2b18008bc0)" style="fill: none; stroke: #ff0000; stroke-opacity: 0.8; stroke-linecap: square"/>
   </g>
   <g id="line2d_93">
    <path d="M 235.163881 96.207567 
L 226.407615 101.287749 
" clip-path="url(#p2b18008bc0)" style="fill: none; stroke: #ff0000; stroke-opacity: 0.8; stroke-linecap: square"/>
   </g>
   <g id="line2d_94">
    <path d="M 226.407615 101.287749 
L 220.950259 110.513914 
" clip-path="url(#p2b18008bc0)" style="fill: none; stroke: #ff0000; stroke-opacity: 0.8; stroke-linecap: square"/>
   </g>
   <g id="line2d_95">
    <path d="M 220.950259 110.513914 
L 220.167551 121.56025 
" clip-path="url(#p2b18008bc0)" style="fill: none; stroke: #ff0000; stroke-opacity: 0.8; stroke-linecap: square"/>
   </g>
   <g id="line2d_96">
    <path d="M 220.167551 121.56025 
L 224.256804 131.642096 
" clip-path="url(#p2b18008bc0)" style="fill: none; stroke: #ff0000; stroke-opacity: 0.8; stroke-linecap: square"/>
   </g>
   <g id="line2d_97">
    <path d="M 314.480433 230.236413 
L 265.827872 233.144497 
" clip-path="url(#p2b18008bc0)" style="fill: none; stroke: #0000ff; stroke-opacity: 0.8; stroke-linecap: square"/>
   </g>
   <g id="line2d_98">
    <path d="M 269.474505 160.927867 
L 310.8338 188.49685 
" clip-path="url(#p2b18008bc0)" style="fill: none; stroke: #0000ff; stroke-opacity: 0.8; stroke-linecap: square"/>
   </g>
   <g id="line2d_99">
    <path d="M 294.418541 110.904149 
L 291.118923 109.459205 
" clip-path="url(#p2b18008bc0)" style="fill: none; stroke: #ff0000; stroke-opacity: 0.8; stroke-linecap: square"/>
   </g>
   <g id="line2d_100">
    <path d="M 291.118923 109.459205 
L 287.599627 109.898493 
" clip-path="url(#p2b18008bc0)" style="fill: none; stroke: #ff0000; stroke-opacity: 0.8; stroke-linecap: square"/>
   </g>
   <g id="line2d_101">
    <path d="M 287.599627 109.898493 
L 284.661997 112.121987 
" clip-path="url(#p2b18008bc0)" style="fill: none; stroke: #ff0000; stroke-opacity: 0.8; stroke-linecap: square"/>
   </g>
   <g id="line2d_102">
    <path d="M 284.661997 112.121987 
L 282.974932 115.623397 
" clip-path="url(#p2b18008bc0)" style="fill: none; stroke: #ff0000; stroke-opacity: 0.8; stroke-linecap: square"/>
   </g>
   <g id="line2d_103">
    <path d="M 282.974932 115.623397 
L 282.922577 119.605452 
" clip-path="url(#p2b18008bc0)" style="fill: none; stroke: #ff0000; stroke-opacity: 0.8; stroke-linecap: square"/>
   </g>
   <g id="line2d_104">
    <path d="M 282.922577 119.605452 
L 284.516853 123.161436 
" clip-path="url(#p2b18008bc0)" style="fill: none; stroke: #ff0000; stroke-opacity: 0.8; stroke-linecap: square"/>
   </g>
   <g id="line2d_105">
    <path d="M 284.516853 123.161436 
L 287.394743 125.481652 
" clip-path="url(#p2b18008bc0)" style="fill: none; stroke: #ff0000; stroke-opacity: 0.8; stroke-linecap: square"/>
   </g>
   <g id="line2d_106">
    <path d="M 287.394743 125.481652 
L 290.900952 126.037785 
" clip-path="url(#p2b18008bc0)" style="fill: none; stroke: #ff0000; stroke-opacity: 0.8; stroke-linecap: square"/>
   </g>
   <g id="line2d_107">
    <path d="M 290.900952 126.037785 
L 294.237114 124.703204 
" clip-path="url(#p2b18008bc0)" style="fill: none; stroke: #ff0000; stroke-opacity: 0.8; stroke-linecap: square"/>
   </g>
   <g id="line2d_108">
    <path d="M 294.237114 124.703204 
L 296.643584 121.781794 
" clip-path="url(#p2b18008bc0)" style="fill: none; stroke: #ff0000; stroke-opacity: 0.8; stroke-linecap: square"/>
   </g>
   <g id="line2d_109">
    <path d="M 296.643584 121.781794 
L 297.57241 117.93876 
" clip-path="url(#p2b18008bc0)" style="fill: none; stroke: #ff0000; stroke-opacity: 0.8; stroke-linecap: square"/>
   </g>
   <g id="line2d_110">
    <path d="M 297.57241 117.93876 
L 296.812097 114.049161 
" clip-path="url(#p2b18008bc0)" style="fill: none; stroke: #ff0000; stroke-opacity: 0.8; stroke-linecap: square"/>
   </g>
   <g id="line2d_111">
    <path d="M 283.940088 126.479383 
L 288.351806 128.744001 
" clip-path="url(#p2b18008bc0)" style="fill: none; stroke: #ff0000; stroke-opacity: 0.8; stroke-linecap: square"/>
   </g>
   <g id="line2d_112">
    <path d="M 288.351806 128.744001 
L 293.191359 128.395156 
" clip-path="url(#p2b18008bc0)" style="fill: none; stroke: #ff0000; stroke-opacity: 0.8; stroke-linecap: square"/>
   </g>
   <g id="line2d_113">
    <path d="M 293.191359 128.395156 
L 297.309949 125.515655 
" clip-path="url(#p2b18008bc0)" style="fill: none; stroke: #ff0000; stroke-opacity: 0.8; stroke-linecap: square"/>
   </g>
   <g id="line2d_114">
    <path d="M 297.309949 125.515655 
L 299.729914 120.789028 
" clip-path="url(#p2b18008bc0)" style="fill: none; stroke: #ff0000; stroke-opacity: 0.8; stroke-linecap: square"/>
   </g>
   <g id="line2d_115">
    <path d="M 299.729914 120.789028 
L 299.87681 115.337268 
" clip-path="url(#p2b18008bc0)" style="fill: none; stroke: #ff0000; stroke-opacity: 0.8; stroke-linecap: square"/>
   </g>
   <g id="line2d_116">
    <path d="M 299.87681 115.337268 
L 297.715766 110.4545 
" clip-path="url(#p2b18008bc0)" style="fill: none; stroke: #ff0000; stroke-opacity: 0.8; stroke-linecap: square"/>
   </g>
   <g id="line2d_117">
    <path d="M 297.715766 110.4545 
L 293.759766 107.299783 
" clip-path="url(#p2b18008bc0)" style="fill: none; stroke: #ff0000; stroke-opacity: 0.8; stroke-linecap: square"/>
   </g>
   <g id="line2d_118">
    <path d="M 293.759766 107.299783 
L 288.947875 106.621976 
" clip-path="url(#p2b18008bc0)" style="fill: none; stroke: #ff0000; stroke-opacity: 0.8; stroke-linecap: square"/>
   </g>
   <g id="line2d_119">
    <path d="M 288.947875 106.621976 
L 284.422327 108.581974 
" clip-path="url(#p2b18008bc0)" style="fill: none; stroke: #ff0000; stroke-opacity: 0.8; stroke-linecap: square"/>
   </g>
   <g id="line2d_120">
    <path d="M 284.422327 108.581974 
L 281.257385 112.714518 
" clip-path="url(#p2b18008bc0)" style="fill: none; stroke: #ff0000; stroke-opacity: 0.8; stroke-linecap: square"/>
   </g>
   <g id="line2d_121">
    <path d="M 281.257385 112.714518 
L 280.204334 118.038637 
" clip-path="url(#p2b18008bc0)" style="fill: none; stroke: #ff0000; stroke-opacity: 0.8; stroke-linecap: square"/>
   </g>
   <g id="line2d_122">
    <path d="M 280.204334 118.038637 
L 281.513145 123.290503 
" clip-path="url(#p2b18008bc0)" style="fill: none; stroke: #ff0000; stroke-opacity: 0.8; stroke-linecap: square"/>
   </g>
  </g>
 </g>
 <defs>
  <clipPath id="p2b18008bc0">
   <rect x="103.104" y="41.472" width="266.112" height="266.112"/>
  </clipPath>
 </defs>
</svg>
