<?xml version="1.0" encoding="utf-8" standalone="no"?>
<!DOCTYPE svg PUBLIC "-//W3C//DTD SVG 1.1//EN"
  "http://www.w3.org/Graphics/SVG/1.1/DTD/svg11.dtd">
<svg xmlns:xlink="http://www.w3.org/1999/xlink" width="460.8pt" height="345.6pt" viewBox="0 0 460.8 345.6" xmlns="http://www.w3.org/2000/svg" version="1.1">
 <metadata>
  <rdf:RDF xmlns:dc="http://purl.org/dc/elements/1.1/" xmlns:cc="http://creativecommons.org/ns#" xmlns:rdf="http://www.w3.org/1999/02/22-rdf-syntax-ns#">
   <cc:Work>
    <dc:type rdf:resource="http://purl.org/dc/dcmitype/StillImage"/>
    <dc:date>2024-07-16T12:33:51.447589</dc:date>
    <dc:format>image/svg+xml</dc:format>
    <dc:creator>
     <cc:Agent>
      <dc:title>Matplotlib v3.6.2, https://matplotlib.org/</dc:title>
     </cc:Agent>
    </dc:creator>
   </cc:Work>
  </rdf:RDF>
 </metadata>
 <defs>
  <style type="text/css">*{stroke-linejoin: round; stroke-linecap: butt}</style>
 </defs>
 <g id="figure_1">
  <g id="patch_1">
   <path d="M 0 345.6 
L 460.8 345.6 
L 460.8 0 
L 0 0 
z
" style="fill: #ffffff"/>
  </g>
  <g id="patch_2">
   <path d="M 103.104 307.584 
L 369.216 307.584 
L 369.216 41.472 
L 103.104 41.472 
z
" style="fill: #ffffff"/>
  </g>
  <g id="pane3d_1">
   <g id="patch_3">
    <path d="M 123.197291 241.969309 
L 211.076164 168.307495 
L 209.854564 62.073991 
L 117.770234 129.272941 
" style="fill: none; opacity: 0"/>
   </g>
  </g>
  <g id="pane3d_2">
   <g id="patch_4">
    <path d="M 211.076164 168.307495 
L 352.090401 209.294766 
L 357.122702 99.402171 
L 209.854564 62.073991 
" style="fill: none; opacity: 0"/>
   </g>
  </g>
  <g id="pane3d_3">
   <g id="patch_5">
    <path d="M 123.197291 241.969309 
L 272.679269 290.790123 
L 352.090401 209.294766 
L 211.076164 168.307495 
" style="fill: none; opacity: 0"/>
   </g>
  </g>
  <g id="axis3d_1">
   <g id="line2d_1">
    <path d="M 123.197291 241.969309 
L 272.679269 290.790123 
" style="fill: none; stroke: #000000; stroke-width: 0.8; stroke-linecap: square"/>
   </g>
   <g id="text_1">
    <!-- X, cm -->
    <g transform="translate(162.424583 298.85714) rotate(-341.912962) scale(0.12 -0.12)">
     <defs>
      <path id="DejaVuSans-58" d="M 403 4666 
L 1081 4666 
L 2241 2931 
L 3406 4666 
L 4084 4666 
L 2584 2425 
L 4184 0 
L 3506 0 
L 2194 1984 
L 872 0 
L 191 0 
L 1856 2491 
L 403 4666 
z
" transform="scale(0.015625)"/>
      <path id="DejaVuSans-2c" d="M 750 794 
L 1409 794 
L 1409 256 
L 897 -744 
L 494 -744 
L 750 256 
L 750 794 
z
" transform="scale(0.015625)"/>
      <path id="DejaVuSans-20" transform="scale(0.015625)"/>
      <path id="DejaVuSans-63" d="M 3122 3366 
L 3122 2828 
Q 2878 2963 2633 3030 
Q 2388 3097 2138 3097 
Q 1578 3097 1268 2742 
Q 959 2388 959 1747 
Q 959 1106 1268 751 
Q 1578 397 2138 397 
Q 2388 397 2633 464 
Q 2878 531 3122 666 
L 3122 134 
Q 2881 22 2623 -34 
Q 2366 -91 2075 -91 
Q 1284 -91 818 406 
Q 353 903 353 1747 
Q 353 2603 823 3093 
Q 1294 3584 2113 3584 
Q 2378 3584 2631 3529 
Q 2884 3475 3122 3366 
z
" transform="scale(0.015625)"/>
      <path id="DejaVuSans-6d" d="M 3328 2828 
Q 3544 3216 3844 3400 
Q 4144 3584 4550 3584 
Q 5097 3584 5394 3201 
Q 5691 2819 5691 2113 
L 5691 0 
L 5113 0 
L 5113 2094 
Q 5113 2597 4934 2840 
Q 4756 3084 4391 3084 
Q 3944 3084 3684 2787 
Q 3425 2491 3425 1978 
L 3425 0 
L 2847 0 
L 2847 2094 
Q 2847 2600 2669 2842 
Q 2491 3084 2119 3084 
Q 1678 3084 1418 2786 
Q 1159 2488 1159 1978 
L 1159 0 
L 581 0 
L 581 3500 
L 1159 3500 
L 1159 2956 
Q 1356 3278 1631 3431 
Q 1906 3584 2284 3584 
Q 2666 3584 2933 3390 
Q 3200 3197 3328 2828 
z
" transform="scale(0.015625)"/>
     </defs>
     <use xlink:href="#DejaVuSans-58"/>
     <use xlink:href="#DejaVuSans-2c" x="68.505859"/>
     <use xlink:href="#DejaVuSans-20" x="100.292969"/>
     <use xlink:href="#DejaVuSans-63" x="132.080078"/>
     <use xlink:href="#DejaVuSans-6d" x="187.060547"/>
    </g>
   </g>
   <g id="Line3DCollection_1">
    <path d="M 146.743984 249.659659 
L 233.37175 174.787941 
L 233.097593 67.965421 
" style="fill: none"/>
    <path d="M 171.546361 257.760115 
L 256.822738 181.604218 
L 257.561859 74.1664 
" style="fill: none"/>
    <path d="M 196.794654 266.006208 
L 280.660054 188.532785 
L 282.446751 80.473994 
" style="fill: none"/>
    <path d="M 222.500998 274.4019 
L 304.893325 195.57644 
L 307.763211 86.890979 
" style="fill: none"/>
    <path d="M 248.677973 282.951299 
L 329.532499 202.738075 
L 333.522563 93.420224 
" style="fill: none"/>
   </g>
   <g id="xtick_1">
    <g id="line2d_2">
     <path d="M 147.498655 249.007403 
L 145.231388 250.966984 
" style="fill: none; stroke: #000000; stroke-width: 0.8; stroke-linecap: square"/>
    </g>
    <g id="text_2">
     <!-- −2 -->
     <g transform="translate(131.85845 273.069024) scale(0.1 -0.1)">
      <defs>
       <path id="DejaVuSans-2212" d="M 678 2272 
L 4684 2272 
L 4684 1741 
L 678 1741 
L 678 2272 
z
" transform="scale(0.015625)"/>
       <path id="DejaVuSans-32" d="M 1228 531 
L 3431 531 
L 3431 0 
L 469 0 
L 469 531 
Q 828 903 1448 1529 
Q 2069 2156 2228 2338 
Q 2531 2678 2651 2914 
Q 2772 3150 2772 3378 
Q 2772 3750 2511 3984 
Q 2250 4219 1831 4219 
Q 1534 4219 1204 4116 
Q 875 4013 500 3803 
L 500 4441 
Q 881 4594 1212 4672 
Q 1544 4750 1819 4750 
Q 2544 4750 2975 4387 
Q 3406 4025 3406 3419 
Q 3406 3131 3298 2873 
Q 3191 2616 2906 2266 
Q 2828 2175 2409 1742 
Q 1991 1309 1228 531 
z
" transform="scale(0.015625)"/>
      </defs>
      <use xlink:href="#DejaVuSans-2212"/>
      <use xlink:href="#DejaVuSans-32" x="83.789062"/>
     </g>
    </g>
   </g>
   <g id="xtick_2">
    <g id="line2d_3">
     <path d="M 172.289799 257.096189 
L 170.05625 259.090856 
" style="fill: none; stroke: #000000; stroke-width: 0.8; stroke-linecap: square"/>
    </g>
    <g id="text_3">
     <!-- −1 -->
     <g transform="translate(156.687135 281.341416) scale(0.1 -0.1)">
      <defs>
       <path id="DejaVuSans-31" d="M 794 531 
L 1825 531 
L 1825 4091 
L 703 3866 
L 703 4441 
L 1819 4666 
L 2450 4666 
L 2450 531 
L 3481 531 
L 3481 0 
L 794 0 
L 794 531 
z
" transform="scale(0.015625)"/>
      </defs>
      <use xlink:href="#DejaVuSans-2212"/>
      <use xlink:href="#DejaVuSans-31" x="83.789062"/>
     </g>
    </g>
   </g>
   <g id="xtick_3">
    <g id="line2d_4">
     <path d="M 197.526332 265.330296 
L 195.328085 267.360999 
" style="fill: none; stroke: #000000; stroke-width: 0.8; stroke-linecap: square"/>
    </g>
    <g id="text_4">
     <!-- 0 -->
     <g transform="translate(186.153753 289.763101) scale(0.1 -0.1)">
      <defs>
       <path id="DejaVuSans-30" d="M 2034 4250 
Q 1547 4250 1301 3770 
Q 1056 3291 1056 2328 
Q 1056 1369 1301 889 
Q 1547 409 2034 409 
Q 2525 409 2770 889 
Q 3016 1369 3016 2328 
Q 3016 3291 2770 3770 
Q 2525 4250 2034 4250 
z
M 2034 4750 
Q 2819 4750 3233 4129 
Q 3647 3509 3647 2328 
Q 3647 1150 3233 529 
Q 2819 -91 2034 -91 
Q 1250 -91 836 529 
Q 422 1150 422 2328 
Q 422 3509 836 4129 
Q 1250 4750 2034 4750 
z
" transform="scale(0.015625)"/>
      </defs>
      <use xlink:href="#DejaVuSans-30"/>
     </g>
    </g>
   </g>
   <g id="xtick_4">
    <g id="line2d_5">
     <path d="M 223.220365 273.713675 
L 221.059076 275.781399 
" style="fill: none; stroke: #000000; stroke-width: 0.8; stroke-linecap: square"/>
    </g>
    <g id="text_5">
     <!-- 1 -->
     <g transform="translate(211.890854 298.338158) scale(0.1 -0.1)">
      <use xlink:href="#DejaVuSans-31"/>
     </g>
    </g>
   </g>
   <g id="xtick_5">
    <g id="line2d_6">
     <path d="M 249.384454 282.250421 
L 247.261851 284.356189 
" style="fill: none; stroke: #000000; stroke-width: 0.8; stroke-linecap: square"/>
    </g>
    <g id="text_6">
     <!-- 2 -->
     <g transform="translate(238.100975 307.070814) scale(0.1 -0.1)">
      <use xlink:href="#DejaVuSans-32"/>
     </g>
    </g>
   </g>
  </g>
  <g id="axis3d_2">
   <g id="line2d_7">
    <path d="M 352.090401 209.294766 
L 272.679269 290.790123 
" style="fill: none; stroke: #000000; stroke-width: 0.8; stroke-linecap: square"/>
   </g>
   <g id="text_7">
    <!-- Y, cm -->
    <g transform="translate(331.904094 290.444892) rotate(-45.742112) scale(0.12 -0.12)">
     <defs>
      <path id="DejaVuSans-59" d="M -13 4666 
L 666 4666 
L 1959 2747 
L 3244 4666 
L 3922 4666 
L 2272 2222 
L 2272 0 
L 1638 0 
L 1638 2222 
L -13 4666 
z
" transform="scale(0.015625)"/>
     </defs>
     <use xlink:href="#DejaVuSans-59"/>
     <use xlink:href="#DejaVuSans-2c" x="61.083984"/>
     <use xlink:href="#DejaVuSans-20" x="92.871094"/>
     <use xlink:href="#DejaVuSans-63" x="124.658203"/>
     <use xlink:href="#DejaVuSans-6d" x="179.638672"/>
    </g>
   </g>
   <g id="Line3DCollection_2">
    <path d="M 126.621232 122.813885 
L 131.615122 234.913317 
L 280.316404 282.952543 
" style="fill: none"/>
    <path d="M 144.583773 109.705641 
L 148.717448 220.577807 
L 295.812696 267.049535 
" style="fill: none"/>
    <path d="M 161.954323 97.029405 
L 165.280229 206.694556 
L 310.794725 251.674288 
" style="fill: none"/>
    <path d="M 178.761672 84.764167 
L 181.328599 193.242494 
L 325.287671 236.80096 
" style="fill: none"/>
    <path d="M 195.032774 72.890258 
L 196.886157 180.20184 
L 339.3151 222.405368 
" style="fill: none"/>
   </g>
   <g id="xtick_6">
    <g id="line2d_8">
     <path d="M 279.063442 282.547763 
L 282.825562 283.763148 
" style="fill: none; stroke: #000000; stroke-width: 0.8; stroke-linecap: square"/>
    </g>
    <g id="text_8">
     <!-- −2 -->
     <g transform="translate(285.797228 303.941699) scale(0.1 -0.1)">
      <use xlink:href="#DejaVuSans-2212"/>
      <use xlink:href="#DejaVuSans-32" x="83.789062"/>
     </g>
    </g>
   </g>
   <g id="xtick_7">
    <g id="line2d_9">
     <path d="M 294.574323 266.658297 
L 298.292584 267.833005 
" style="fill: none; stroke: #000000; stroke-width: 0.8; stroke-linecap: square"/>
    </g>
    <g id="text_9">
     <!-- −1 -->
     <g transform="translate(301.085642 287.803276) scale(0.1 -0.1)">
      <use xlink:href="#DejaVuSans-2212"/>
      <use xlink:href="#DejaVuSans-31" x="83.789062"/>
     </g>
    </g>
   </g>
   <g id="xtick_8">
    <g id="line2d_10">
     <path d="M 309.570671 251.295923 
L 313.245886 252.431963 
" style="fill: none; stroke: #000000; stroke-width: 0.8; stroke-linecap: square"/>
    </g>
    <g id="text_10">
     <!-- 0 -->
     <g transform="translate(320.056241 272.200736) scale(0.1 -0.1)">
      <use xlink:href="#DejaVuSans-30"/>
     </g>
    </g>
   </g>
   <g id="xtick_9">
    <g id="line2d_11">
     <path d="M 324.077669 236.434843 
L 327.710645 237.534092 
" style="fill: none; stroke: #000000; stroke-width: 0.8; stroke-linecap: square"/>
    </g>
    <g id="text_11">
     <!-- 1 -->
     <g transform="translate(334.354211 257.107823) scale(0.1 -0.1)">
      <use xlink:href="#DejaVuSans-31"/>
     </g>
    </g>
   </g>
   <g id="xtick_10">
    <g id="line2d_12">
     <path d="M 338.118885 222.050914 
L 341.710417 223.115131 
" style="fill: none; stroke: #000000; stroke-width: 0.8; stroke-linecap: square"/>
    </g>
    <g id="text_12">
     <!-- 2 -->
     <g transform="translate(348.19267 242.49997) scale(0.1 -0.1)">
      <use xlink:href="#DejaVuSans-32"/>
     </g>
    </g>
   </g>
  </g>
  <g id="axis3d_3">
   <g id="line2d_13">
    <path d="M 352.090401 209.294766 
L 357.122702 99.402171 
" style="fill: none; stroke: #000000; stroke-width: 0.8; stroke-linecap: square"/>
   </g>
   <g id="text_13">
    <!-- Z, cm -->
    <g transform="translate(397.454275 167.343697) rotate(-87.378092) scale(0.12 -0.12)">
     <defs>
      <path id="DejaVuSans-5a" d="M 359 4666 
L 4025 4666 
L 4025 4184 
L 1075 531 
L 4097 531 
L 4097 0 
L 288 0 
L 288 481 
L 3238 4134 
L 359 4134 
L 359 4666 
z
" transform="scale(0.015625)"/>
     </defs>
     <use xlink:href="#DejaVuSans-5a"/>
     <use xlink:href="#DejaVuSans-2c" x="68.505859"/>
     <use xlink:href="#DejaVuSans-20" x="100.292969"/>
     <use xlink:href="#DejaVuSans-63" x="132.080078"/>
     <use xlink:href="#DejaVuSans-6d" x="187.060547"/>
    </g>
   </g>
   <g id="text_14">
    <!-- 1e1 -->
    <g transform="translate(400.272201 113.23801) rotate(-87.378092) scale(0.1 -0.1)">
     <defs>
      <path id="DejaVuSans-65" d="M 3597 1894 
L 3597 1613 
L 953 1613 
Q 991 1019 1311 708 
Q 1631 397 2203 397 
Q 2534 397 2845 478 
Q 3156 559 3463 722 
L 3463 178 
Q 3153 47 2828 -22 
Q 2503 -91 2169 -91 
Q 1331 -91 842 396 
Q 353 884 353 1716 
Q 353 2575 817 3079 
Q 1281 3584 2069 3584 
Q 2775 3584 3186 3129 
Q 3597 2675 3597 1894 
z
M 3022 2063 
Q 3016 2534 2758 2815 
Q 2500 3097 2075 3097 
Q 1594 3097 1305 2825 
Q 1016 2553 972 2059 
L 3022 2063 
z
" transform="scale(0.015625)"/>
     </defs>
     <use xlink:href="#DejaVuSans-31"/>
     <use xlink:href="#DejaVuSans-65" x="63.623047"/>
     <use xlink:href="#DejaVuSans-31" x="125.146484"/>
    </g>
   </g>
   <g id="Line3DCollection_3">
    <path d="M 352.368629 203.218973 
L 211.008489 162.422282 
L 122.897715 235.748417 
" style="fill: none"/>
    <path d="M 353.070586 187.890024 
L 210.837818 147.58027 
L 122.14165 220.048239 
" style="fill: none"/>
    <path d="M 353.781349 172.368775 
L 210.665108 132.560974 
L 121.375738 204.14358 
" style="fill: none"/>
    <path d="M 354.501085 156.651582 
L 210.490323 117.3612 
L 120.599785 188.030419 
" style="fill: none"/>
    <path d="M 355.229964 140.734714 
L 210.313424 101.977674 
L 119.813593 171.70463 
" style="fill: none"/>
    <path d="M 355.968163 124.614339 
L 210.134375 86.407045 
L 119.016958 155.161975 
" style="fill: none"/>
    <path d="M 356.715861 108.28653 
L 209.953134 70.645877 
L 118.209669 138.398104 
" style="fill: none"/>
   </g>
   <g id="xtick_11">
    <g id="line2d_14">
     <path d="M 351.18209 202.876536 
L 354.744535 203.904662 
" style="fill: none; stroke: #000000; stroke-width: 0.8; stroke-linecap: square"/>
    </g>
    <g id="text_15">
     <!-- 0.00 -->
     <g transform="translate(359.528681 208.224242) scale(0.1 -0.1)">
      <defs>
       <path id="DejaVuSans-2e" d="M 684 794 
L 1344 794 
L 1344 0 
L 684 0 
L 684 794 
z
" transform="scale(0.015625)"/>
      </defs>
      <use xlink:href="#DejaVuSans-30"/>
      <use xlink:href="#DejaVuSans-2e" x="63.623047"/>
      <use xlink:href="#DejaVuSans-30" x="95.410156"/>
      <use xlink:href="#DejaVuSans-30" x="159.033203"/>
     </g>
    </g>
   </g>
   <g id="xtick_12">
    <g id="line2d_15">
     <path d="M 351.876374 187.551576 
L 355.461875 188.567732 
" style="fill: none; stroke: #000000; stroke-width: 0.8; stroke-linecap: square"/>
    </g>
    <g id="text_16">
     <!-- 0.25 -->
     <g transform="translate(360.342197 192.925537) scale(0.1 -0.1)">
      <defs>
       <path id="DejaVuSans-35" d="M 691 4666 
L 3169 4666 
L 3169 4134 
L 1269 4134 
L 1269 2991 
Q 1406 3038 1543 3061 
Q 1681 3084 1819 3084 
Q 2600 3084 3056 2656 
Q 3513 2228 3513 1497 
Q 3513 744 3044 326 
Q 2575 -91 1722 -91 
Q 1428 -91 1123 -41 
Q 819 9 494 109 
L 494 744 
Q 775 591 1075 516 
Q 1375 441 1709 441 
Q 2250 441 2565 725 
Q 2881 1009 2881 1497 
Q 2881 1984 2565 2268 
Q 2250 2553 1709 2553 
Q 1456 2553 1204 2497 
Q 953 2441 691 2322 
L 691 4666 
z
" transform="scale(0.015625)"/>
      </defs>
      <use xlink:href="#DejaVuSans-30"/>
      <use xlink:href="#DejaVuSans-2e" x="63.623047"/>
      <use xlink:href="#DejaVuSans-32" x="95.410156"/>
      <use xlink:href="#DejaVuSans-35" x="159.033203"/>
     </g>
    </g>
   </g>
   <g id="xtick_13">
    <g id="line2d_16">
     <path d="M 352.579364 172.034442 
L 356.188221 173.038246 
" style="fill: none; stroke: #000000; stroke-width: 0.8; stroke-linecap: square"/>
    </g>
    <g id="text_17">
     <!-- 0.50 -->
     <g transform="translate(361.165887 177.435495) scale(0.1 -0.1)">
      <use xlink:href="#DejaVuSans-30"/>
      <use xlink:href="#DejaVuSans-2e" x="63.623047"/>
      <use xlink:href="#DejaVuSans-35" x="95.410156"/>
      <use xlink:href="#DejaVuSans-30" x="159.033203"/>
     </g>
    </g>
   </g>
   <g id="xtick_14">
    <g id="line2d_17">
     <path d="M 353.291225 156.321497 
L 356.923745 157.312555 
" style="fill: none; stroke: #000000; stroke-width: 0.8; stroke-linecap: square"/>
    </g>
    <g id="text_18">
     <!-- 0.75 -->
     <g transform="translate(361.999944 161.750503) scale(0.1 -0.1)">
      <defs>
       <path id="DejaVuSans-37" d="M 525 4666 
L 3525 4666 
L 3525 4397 
L 1831 0 
L 1172 0 
L 2766 4134 
L 525 4134 
L 525 4666 
z
" transform="scale(0.015625)"/>
      </defs>
      <use xlink:href="#DejaVuSans-30"/>
      <use xlink:href="#DejaVuSans-2e" x="63.623047"/>
      <use xlink:href="#DejaVuSans-37" x="95.410156"/>
      <use xlink:href="#DejaVuSans-35" x="159.033203"/>
     </g>
    </g>
   </g>
   <g id="xtick_15">
    <g id="line2d_18">
     <path d="M 354.012125 140.40901 
L 357.66862 141.386917 
" style="fill: none; stroke: #000000; stroke-width: 0.8; stroke-linecap: square"/>
    </g>
    <g id="text_19">
     <!-- 1.00 -->
     <g transform="translate(362.844564 145.866858) scale(0.1 -0.1)">
      <use xlink:href="#DejaVuSans-31"/>
      <use xlink:href="#DejaVuSans-2e" x="63.623047"/>
      <use xlink:href="#DejaVuSans-30" x="95.410156"/>
      <use xlink:href="#DejaVuSans-30" x="159.033203"/>
     </g>
    </g>
   </g>
   <g id="xtick_16">
    <g id="line2d_19">
     <path d="M 354.74224 124.293157 
L 358.423027 125.257494 
" style="fill: none; stroke: #000000; stroke-width: 0.8; stroke-linecap: square"/>
    </g>
    <g id="text_20">
     <!-- 1.25 -->
     <g transform="translate(363.69995 129.780761) scale(0.1 -0.1)">
      <use xlink:href="#DejaVuSans-31"/>
      <use xlink:href="#DejaVuSans-2e" x="63.623047"/>
      <use xlink:href="#DejaVuSans-32" x="95.410156"/>
      <use xlink:href="#DejaVuSans-35" x="159.033203"/>
     </g>
    </g>
   </g>
   <g id="xtick_17">
    <g id="line2d_20">
     <path d="M 355.481745 107.970013 
L 359.187149 108.920348 
" style="fill: none; stroke: #000000; stroke-width: 0.8; stroke-linecap: square"/>
    </g>
    <g id="text_21">
     <!-- 1.50 -->
     <g transform="translate(364.566308 113.488318) scale(0.1 -0.1)">
      <use xlink:href="#DejaVuSans-31"/>
      <use xlink:href="#DejaVuSans-2e" x="63.623047"/>
      <use xlink:href="#DejaVuSans-35" x="95.410156"/>
      <use xlink:href="#DejaVuSans-30" x="159.033203"/>
     </g>
    </g>
   </g>
  </g>
  <g id="axes_1">
   <g id="line2d_21">
    <path d="M 164.002694 239.9019 
L 145.768836 232.663135 
" clip-path="url(#p18598359f6)" style="fill: none; stroke: #0000ff; stroke-opacity: 0.8; stroke-linecap: square"/>
   </g>
   <g id="line2d_22">
    <path d="M 197.997117 209.899963 
L 199.985837 207.23062 
" clip-path="url(#p18598359f6)" style="fill: none; stroke: #008000; stroke-opacity: 0.8; stroke-linecap: square"/>
   </g>
   <g id="line2d_23">
    <path d="M 199.985837 207.23062 
L 180.695908 202.255647 
" clip-path="url(#p18598359f6)" style="fill: none; stroke: #008000; stroke-opacity: 0.8; stroke-linecap: square"/>
   </g>
   <g id="line2d_24">
    <path d="M 180.695908 202.255647 
L 176.302147 208.159813 
" clip-path="url(#p18598359f6)" style="fill: none; stroke: #008000; stroke-opacity: 0.8; stroke-linecap: square"/>
   </g>
   <g id="line2d_25">
    <path d="M 176.302147 208.159813 
L 195.566987 213.161785 
" clip-path="url(#p18598359f6)" style="fill: none; stroke: #008000; stroke-opacity: 0.8; stroke-linecap: square"/>
   </g>
   <g id="line2d_26">
    <path d="M 195.566987 213.161785 
L 197.555232 210.49308 
" clip-path="url(#p18598359f6)" style="fill: none; stroke: #008000; stroke-opacity: 0.8; stroke-linecap: square"/>
   </g>
   <g id="line2d_27">
    <path d="M 180.1985 206.00011 
L 178.65996 208.067308 
" clip-path="url(#p18598359f6)" style="fill: none; stroke: #008000; stroke-opacity: 0.8; stroke-linecap: square"/>
   </g>
   <g id="line2d_28">
    <path d="M 178.65996 208.067308 
L 194.073807 212.066718 
" clip-path="url(#p18598359f6)" style="fill: none; stroke: #008000; stroke-opacity: 0.8; stroke-linecap: square"/>
   </g>
   <g id="line2d_29">
    <path d="M 194.073807 212.066718 
L 197.60687 207.323955 
" clip-path="url(#p18598359f6)" style="fill: none; stroke: #008000; stroke-opacity: 0.8; stroke-linecap: square"/>
   </g>
   <g id="line2d_30">
    <path d="M 197.60687 207.323955 
L 182.176966 203.341824 
" clip-path="url(#p18598359f6)" style="fill: none; stroke: #008000; stroke-opacity: 0.8; stroke-linecap: square"/>
   </g>
   <g id="line2d_31">
    <path d="M 182.176966 203.341824 
L 180.638126 205.409425 
" clip-path="url(#p18598359f6)" style="fill: none; stroke: #008000; stroke-opacity: 0.8; stroke-linecap: square"/>
   </g>
   <g id="line2d_32">
    <path d="M 228.030795 181.618173 
L 237.007795 176.057153 
" clip-path="url(#p18598359f6)" style="fill: none; stroke: #008000; stroke-opacity: 0.8; stroke-linecap: square"/>
   </g>
   <g id="line2d_33">
    <path d="M 237.007795 176.057153 
L 221.728283 173.466879 
" clip-path="url(#p18598359f6)" style="fill: none; stroke: #008000; stroke-opacity: 0.8; stroke-linecap: square"/>
   </g>
   <g id="line2d_34">
    <path d="M 221.728283 173.466879 
L 201.601375 185.759558 
" clip-path="url(#p18598359f6)" style="fill: none; stroke: #008000; stroke-opacity: 0.8; stroke-linecap: square"/>
   </g>
   <g id="line2d_35">
    <path d="M 201.601375 185.759558 
L 216.897603 188.514899 
" clip-path="url(#p18598359f6)" style="fill: none; stroke: #008000; stroke-opacity: 0.8; stroke-linecap: square"/>
   </g>
   <g id="line2d_36">
    <path d="M 216.897603 188.514899 
L 226.019882 182.863882 
" clip-path="url(#p18598359f6)" style="fill: none; stroke: #008000; stroke-opacity: 0.8; stroke-linecap: square"/>
   </g>
   <g id="line2d_37">
    <path d="M 212.245443 180.449418 
L 205.155798 184.785541 
" clip-path="url(#p18598359f6)" style="fill: none; stroke: #008000; stroke-opacity: 0.8; stroke-linecap: square"/>
   </g>
   <g id="line2d_38">
    <path d="M 205.155798 184.785541 
L 217.391527 186.97628 
" clip-path="url(#p18598359f6)" style="fill: none; stroke: #008000; stroke-opacity: 0.8; stroke-linecap: square"/>
   </g>
   <g id="line2d_39">
    <path d="M 217.391527 186.97628 
L 233.480886 177.02363 
" clip-path="url(#p18598359f6)" style="fill: none; stroke: #008000; stroke-opacity: 0.8; stroke-linecap: square"/>
   </g>
   <g id="line2d_40">
    <path d="M 233.480886 177.02363 
L 221.255858 174.938527 
" clip-path="url(#p18598359f6)" style="fill: none; stroke: #008000; stroke-opacity: 0.8; stroke-linecap: square"/>
   </g>
   <g id="line2d_41">
    <path d="M 221.255858 174.938527 
L 214.257885 179.218582 
" clip-path="url(#p18598359f6)" style="fill: none; stroke: #008000; stroke-opacity: 0.8; stroke-linecap: square"/>
   </g>
   <g id="line2d_42">
    <path d="M 217.278581 253.482453 
L 192.296326 251.080669 
" clip-path="url(#p18598359f6)" style="fill: none; stroke: #0000ff; stroke-opacity: 0.8; stroke-linecap: square"/>
   </g>
   <g id="line2d_43">
    <path d="M 220.083192 222.472922 
L 253.906879 222.928448 
" clip-path="url(#p18598359f6)" style="fill: none; stroke: #0000ff; stroke-opacity: 0.8; stroke-linecap: square"/>
   </g>
   <g id="line2d_44">
    <path d="M 261.488915 195.586008 
L 272.994519 194.370697 
" clip-path="url(#p18598359f6)" style="fill: none; stroke: #0000ff; stroke-opacity: 0.8; stroke-linecap: square"/>
   </g>
   <g id="line2d_45">
    <path d="M 270.184649 272.770593 
L 242.951442 265.030889 
" clip-path="url(#p18598359f6)" style="fill: none; stroke: #0000ff; stroke-opacity: 0.8; stroke-linecap: square"/>
   </g>
   <g id="line2d_46">
    <path d="M 291.206406 238.544797 
L 284.004511 237.923618 
" clip-path="url(#p18598359f6)" style="fill: none; stroke: #0000ff; stroke-opacity: 0.8; stroke-linecap: square"/>
   </g>
   <g id="line2d_47">
    <path d="M 326.41981 212.226794 
L 307.130344 206.900986 
" clip-path="url(#p18598359f6)" style="fill: none; stroke: #0000ff; stroke-opacity: 0.8; stroke-linecap: square"/>
   </g>
   <g id="line2d_48">
    <path d="M 151.23111 222.051926 
L 148.486143 219.230692 
" clip-path="url(#p18598359f6)" style="fill: none; stroke: #008000; stroke-opacity: 0.8; stroke-linecap: square"/>
   </g>
   <g id="line2d_49">
    <path d="M 148.486143 219.230692 
L 154.181658 221.906027 
" clip-path="url(#p18598359f6)" style="fill: none; stroke: #008000; stroke-opacity: 0.8; stroke-linecap: square"/>
   </g>
   <g id="line2d_50">
    <path d="M 154.181658 221.906027 
L 160.3525 228.236973 
" clip-path="url(#p18598359f6)" style="fill: none; stroke: #008000; stroke-opacity: 0.8; stroke-linecap: square"/>
   </g>
   <g id="line2d_51">
    <path d="M 160.3525 228.236973 
L 154.597973 225.512333 
" clip-path="url(#p18598359f6)" style="fill: none; stroke: #008000; stroke-opacity: 0.8; stroke-linecap: square"/>
   </g>
   <g id="line2d_52">
    <path d="M 154.597973 225.512333 
L 151.842292 222.680088 
" clip-path="url(#p18598359f6)" style="fill: none; stroke: #008000; stroke-opacity: 0.8; stroke-linecap: square"/>
   </g>
   <g id="line2d_53">
    <path d="M 156.994134 225.110689 
L 159.155303 227.328329 
" clip-path="url(#p18598359f6)" style="fill: none; stroke: #008000; stroke-opacity: 0.8; stroke-linecap: square"/>
   </g>
   <g id="line2d_54">
    <path d="M 159.155303 227.328329 
L 154.556444 225.152593 
" clip-path="url(#p18598359f6)" style="fill: none; stroke: #008000; stroke-opacity: 0.8; stroke-linecap: square"/>
   </g>
   <g id="line2d_55">
    <path d="M 154.556444 225.152593 
L 149.662301 220.123367 
" clip-path="url(#p18598359f6)" style="fill: none; stroke: #008000; stroke-opacity: 0.8; stroke-linecap: square"/>
   </g>
   <g id="line2d_56">
    <path d="M 149.662301 220.123367 
L 154.223393 222.267549 
" clip-path="url(#p18598359f6)" style="fill: none; stroke: #008000; stroke-opacity: 0.8; stroke-linecap: square"/>
   </g>
   <g id="line2d_57">
    <path d="M 154.223393 222.267549 
L 156.377646 224.478093 
" clip-path="url(#p18598359f6)" style="fill: none; stroke: #008000; stroke-opacity: 0.8; stroke-linecap: square"/>
   </g>
   <g id="line2d_58">
    <path d="M 180.913906 184.920472 
L 194.96999 206.153007 
" clip-path="url(#p18598359f6)" style="fill: none; stroke: #0000ff; stroke-opacity: 0.8; stroke-linecap: square"/>
   </g>
   <g id="line2d_59">
    <path d="M 213.432799 169.708584 
L 219.783525 164.440703 
" clip-path="url(#p18598359f6)" style="fill: none; stroke: #008000; stroke-opacity: 0.8; stroke-linecap: square"/>
   </g>
   <g id="line2d_60">
    <path d="M 219.783525 164.440703 
L 232.789642 161.553187 
" clip-path="url(#p18598359f6)" style="fill: none; stroke: #008000; stroke-opacity: 0.8; stroke-linecap: square"/>
   </g>
   <g id="line2d_61">
    <path d="M 232.789642 161.553187 
L 218.693228 173.367927 
" clip-path="url(#p18598359f6)" style="fill: none; stroke: #008000; stroke-opacity: 0.8; stroke-linecap: square"/>
   </g>
   <g id="line2d_62">
    <path d="M 218.693228 173.367927 
L 205.551621 176.245963 
" clip-path="url(#p18598359f6)" style="fill: none; stroke: #008000; stroke-opacity: 0.8; stroke-linecap: square"/>
   </g>
   <g id="line2d_63">
    <path d="M 205.551621 176.245963 
L 212.00969 170.889042 
" clip-path="url(#p18598359f6)" style="fill: none; stroke: #008000; stroke-opacity: 0.8; stroke-linecap: square"/>
   </g>
   <g id="line2d_64">
    <path d="M 223.776673 168.295934 
L 218.804216 172.459168 
" clip-path="url(#p18598359f6)" style="fill: none; stroke: #008000; stroke-opacity: 0.8; stroke-linecap: square"/>
   </g>
   <g id="line2d_65">
    <path d="M 218.804216 172.459168 
L 208.301868 174.76242 
" clip-path="url(#p18598359f6)" style="fill: none; stroke: #008000; stroke-opacity: 0.8; stroke-linecap: square"/>
   </g>
   <g id="line2d_66">
    <path d="M 208.301868 174.76242 
L 219.676423 165.31764 
" clip-path="url(#p18598359f6)" style="fill: none; stroke: #008000; stroke-opacity: 0.8; stroke-linecap: square"/>
   </g>
   <g id="line2d_67">
    <path d="M 219.676423 165.31764 
L 230.092059 163.008322 
" clip-path="url(#p18598359f6)" style="fill: none; stroke: #008000; stroke-opacity: 0.8; stroke-linecap: square"/>
   </g>
   <g id="line2d_68">
    <path d="M 230.092059 163.008322 
L 225.187602 167.114622 
" clip-path="url(#p18598359f6)" style="fill: none; stroke: #008000; stroke-opacity: 0.8; stroke-linecap: square"/>
   </g>
   <g id="line2d_69">
    <path d="M 209.383529 234.497958 
L 199.754945 244.676798 
" clip-path="url(#p18598359f6)" style="fill: none; stroke: #0000ff; stroke-opacity: 0.8; stroke-linecap: square"/>
   </g>
   <g id="line2d_70">
    <path d="M 237.139595 210.448047 
L 241.209695 203.428242 
" clip-path="url(#p18598359f6)" style="fill: none; stroke: #008000; stroke-opacity: 0.8; stroke-linecap: square"/>
   </g>
   <g id="line2d_71">
    <path d="M 241.209695 203.428242 
L 241.830256 201.464039 
" clip-path="url(#p18598359f6)" style="fill: none; stroke: #008000; stroke-opacity: 0.8; stroke-linecap: square"/>
   </g>
   <g id="line2d_72">
    <path d="M 241.830256 201.464039 
L 232.653264 217.277381 
" clip-path="url(#p18598359f6)" style="fill: none; stroke: #008000; stroke-opacity: 0.8; stroke-linecap: square"/>
   </g>
   <g id="line2d_73">
    <path d="M 232.653264 217.277381 
L 232.085176 219.16553 
" clip-path="url(#p18598359f6)" style="fill: none; stroke: #008000; stroke-opacity: 0.8; stroke-linecap: square"/>
   </g>
   <g id="line2d_74">
    <path d="M 232.085176 219.16553 
L 236.2272 212.021677 
" clip-path="url(#p18598359f6)" style="fill: none; stroke: #008000; stroke-opacity: 0.8; stroke-linecap: square"/>
   </g>
   <g id="line2d_75">
    <path d="M 236.759776 210.292066 
L 233.526587 215.863851 
" clip-path="url(#p18598359f6)" style="fill: none; stroke: #008000; stroke-opacity: 0.8; stroke-linecap: square"/>
   </g>
   <g id="line2d_76">
    <path d="M 233.526587 215.863851 
L 233.067788 217.38066 
" clip-path="url(#p18598359f6)" style="fill: none; stroke: #008000; stroke-opacity: 0.8; stroke-linecap: square"/>
   </g>
   <g id="line2d_77">
    <path d="M 233.067788 217.38066 
L 240.371413 204.785055 
" clip-path="url(#p18598359f6)" style="fill: none; stroke: #008000; stroke-opacity: 0.8; stroke-linecap: square"/>
   </g>
   <g id="line2d_78">
    <path d="M 240.371413 204.785055 
L 240.863793 203.219575 
" clip-path="url(#p18598359f6)" style="fill: none; stroke: #008000; stroke-opacity: 0.8; stroke-linecap: square"/>
   </g>
   <g id="line2d_79">
    <path d="M 240.863793 203.219575 
L 237.67689 208.711595 
" clip-path="url(#p18598359f6)" style="fill: none; stroke: #008000; stroke-opacity: 0.8; stroke-linecap: square"/>
   </g>
   <g id="line2d_80">
    <path d="M 261.816688 179.158775 
L 272.885963 186.470429 
" clip-path="url(#p18598359f6)" style="fill: none; stroke: #0000ff; stroke-opacity: 0.8; stroke-linecap: square"/>
   </g>
   <g id="line2d_81">
    <path d="M 254.102875 257.191596 
L 259.074317 254.896563 
" clip-path="url(#p18598359f6)" style="fill: none; stroke: #0000ff; stroke-opacity: 0.8; stroke-linecap: square"/>
   </g>
   <g id="line2d_82">
    <path d="M 291.880468 228.031079 
L 284.006908 226.780417 
" clip-path="url(#p18598359f6)" style="fill: none; stroke: #008000; stroke-opacity: 0.8; stroke-linecap: square"/>
   </g>
   <g id="line2d_83">
    <path d="M 284.006908 226.780417 
L 274.312961 221.810722 
" clip-path="url(#p18598359f6)" style="fill: none; stroke: #008000; stroke-opacity: 0.8; stroke-linecap: square"/>
   </g>
   <g id="line2d_84">
    <path d="M 274.312961 221.810722 
L 291.636288 224.566494 
" clip-path="url(#p18598359f6)" style="fill: none; stroke: #008000; stroke-opacity: 0.8; stroke-linecap: square"/>
   </g>
   <g id="line2d_85">
    <path d="M 291.636288 224.566494 
L 301.492154 229.557831 
" clip-path="url(#p18598359f6)" style="fill: none; stroke: #008000; stroke-opacity: 0.8; stroke-linecap: square"/>
   </g>
   <g id="line2d_86">
    <path d="M 301.492154 229.557831 
L 293.628992 228.30882 
" clip-path="url(#p18598359f6)" style="fill: none; stroke: #008000; stroke-opacity: 0.8; stroke-linecap: square"/>
   </g>
   <g id="line2d_87">
    <path d="M 284.815453 223.820915 
L 290.880986 224.78567 
" clip-path="url(#p18598359f6)" style="fill: none; stroke: #008000; stroke-opacity: 0.8; stroke-linecap: square"/>
   </g>
   <g id="line2d_88">
    <path d="M 290.880986 224.78567 
L 298.752684 228.776977 
" clip-path="url(#p18598359f6)" style="fill: none; stroke: #008000; stroke-opacity: 0.8; stroke-linecap: square"/>
   </g>
   <g id="line2d_89">
    <path d="M 298.752684 228.776977 
L 284.77755 226.556789 
" clip-path="url(#p18598359f6)" style="fill: none; stroke: #008000; stroke-opacity: 0.8; stroke-linecap: square"/>
   </g>
   <g id="line2d_90">
    <path d="M 284.77755 226.556789 
L 277.009479 222.579333 
" clip-path="url(#p18598359f6)" style="fill: none; stroke: #008000; stroke-opacity: 0.8; stroke-linecap: square"/>
   </g>
   <g id="line2d_91">
    <path d="M 277.009479 222.579333 
L 283.081515 223.545123 
" clip-path="url(#p18598359f6)" style="fill: none; stroke: #008000; stroke-opacity: 0.8; stroke-linecap: square"/>
   </g>
   <g id="line2d_92">
    <path d="M 309.73915 196.979923 
L 324.479174 197.499435 
" clip-path="url(#p18598359f6)" style="fill: none; stroke: #0000ff; stroke-opacity: 0.8; stroke-linecap: square"/>
   </g>
   <g id="line2d_93">
    <path d="M 223.532867 128.438915 
L 207.193795 123.938186 
" clip-path="url(#p18598359f6)" style="fill: none; stroke: #008000; stroke-opacity: 0.8; stroke-linecap: square"/>
   </g>
   <g id="line2d_94">
    <path d="M 207.193795 123.938186 
L 230.240731 105.726747 
" clip-path="url(#p18598359f6)" style="fill: none; stroke: #008000; stroke-opacity: 0.8; stroke-linecap: square"/>
   </g>
   <g id="line2d_95">
    <path d="M 230.240731 105.726747 
L 266.235218 115.333413 
" clip-path="url(#p18598359f6)" style="fill: none; stroke: #008000; stroke-opacity: 0.8; stroke-linecap: square"/>
   </g>
   <g id="line2d_96">
    <path d="M 266.235218 115.333413 
L 243.759573 134.010523 
" clip-path="url(#p18598359f6)" style="fill: none; stroke: #008000; stroke-opacity: 0.8; stroke-linecap: square"/>
   </g>
   <g id="line2d_97">
    <path d="M 243.759573 134.010523 
L 227.189298 129.446108 
" clip-path="url(#p18598359f6)" style="fill: none; stroke: #008000; stroke-opacity: 0.8; stroke-linecap: square"/>
   </g>
   <g id="line2d_98">
    <path d="M 247.70078 112.788287 
L 260.389498 116.185376 
" clip-path="url(#p18598359f6)" style="fill: none; stroke: #008000; stroke-opacity: 0.8; stroke-linecap: square"/>
   </g>
   <g id="line2d_99">
    <path d="M 260.389498 116.185376 
L 242.362887 131.088412 
" clip-path="url(#p18598359f6)" style="fill: none; stroke: #008000; stroke-opacity: 0.8; stroke-linecap: square"/>
   </g>
   <g id="line2d_100">
    <path d="M 242.362887 131.088412 
L 213.156879 123.069119 
" clip-path="url(#p18598359f6)" style="fill: none; stroke: #008000; stroke-opacity: 0.8; stroke-linecap: square"/>
   </g>
   <g id="line2d_101">
    <path d="M 213.156879 123.069119 
L 231.549095 108.464074 
" clip-path="url(#p18598359f6)" style="fill: none; stroke: #008000; stroke-opacity: 0.8; stroke-linecap: square"/>
   </g>
   <g id="line2d_102">
    <path d="M 231.549095 108.464074 
L 244.095819 111.823147 
" clip-path="url(#p18598359f6)" style="fill: none; stroke: #008000; stroke-opacity: 0.8; stroke-linecap: square"/>
   </g>
  </g>
 </g>
 <defs>
  <clipPath id="p18598359f6">
   <rect x="103.104" y="41.472" width="266.112" height="266.112"/>
  </clipPath>
 </defs>
</svg>
