<?xml version="1.0" encoding="utf-8" standalone="no"?>
<!DOCTYPE svg PUBLIC "-//W3C//DTD SVG 1.1//EN"
  "http://www.w3.org/Graphics/SVG/1.1/DTD/svg11.dtd">
<svg xmlns:xlink="http://www.w3.org/1999/xlink" width="426.83125pt" height="314.7395pt" viewBox="0 0 426.83125 314.7395" xmlns="http://www.w3.org/2000/svg" version="1.1">
 <metadata>
  <rdf:RDF xmlns:dc="http://purl.org/dc/elements/1.1/" xmlns:cc="http://creativecommons.org/ns#" xmlns:rdf="http://www.w3.org/1999/02/22-rdf-syntax-ns#">
   <cc:Work>
    <dc:type rdf:resource="http://purl.org/dc/dcmitype/StillImage"/>
    <dc:date>2024-06-27T19:56:52.200039</dc:date>
    <dc:format>image/svg+xml</dc:format>
    <dc:creator>
     <cc:Agent>
      <dc:title>Matplotlib v3.6.2, https://matplotlib.org/</dc:title>
     </cc:Agent>
    </dc:creator>
   </cc:Work>
  </rdf:RDF>
 </metadata>
 <defs>
  <style type="text/css">*{stroke-linejoin: round; stroke-linecap: butt}</style>
 </defs>
 <g id="figure_1">
  <g id="patch_1">
   <path d="M 0 314.7395 
L 426.83125 314.7395 
L 426.83125 0 
L 0 0 
z
" style="fill: #ffffff"/>
  </g>
  <g id="axes_1">
   <g id="patch_2">
    <path d="M 46.605 113.6448 
L 403.725 113.6448 
L 403.725 7.2 
L 46.605 7.2 
z
" style="fill: #ffffff"/>
   </g>
   <g id="PathCollection_1">
    <defs>
     <path id="m56a4e555e1" d="M -3 3 
L 3 3 
L 3 -3 
L -3 -3 
z
" style="stroke: #006400; stroke-opacity: 0.5"/>
    </defs>
    <g clip-path="url(#p3dc1321a3a)">
     <use xlink:href="#m56a4e555e1" x="165.645" y="109.016765" style="fill: #006400; fill-opacity: 0.5; stroke: #006400; stroke-opacity: 0.5"/>
     <use xlink:href="#m56a4e555e1" x="180.525" y="109.016765" style="fill: #006400; fill-opacity: 0.5; stroke: #006400; stroke-opacity: 0.5"/>
     <use xlink:href="#m56a4e555e1" x="195.405" y="109.016765" style="fill: #006400; fill-opacity: 0.5; stroke: #006400; stroke-opacity: 0.5"/>
     <use xlink:href="#m56a4e555e1" x="210.285" y="109.016765" style="fill: #006400; fill-opacity: 0.5; stroke: #006400; stroke-opacity: 0.5"/>
     <use xlink:href="#m56a4e555e1" x="225.165" y="109.016765" style="fill: #006400; fill-opacity: 0.5; stroke: #006400; stroke-opacity: 0.5"/>
     <use xlink:href="#m56a4e555e1" x="240.045" y="109.016765" style="fill: #006400; fill-opacity: 0.5; stroke: #006400; stroke-opacity: 0.5"/>
     <use xlink:href="#m56a4e555e1" x="254.925" y="109.016765" style="fill: #006400; fill-opacity: 0.5; stroke: #006400; stroke-opacity: 0.5"/>
     <use xlink:href="#m56a4e555e1" x="269.805" y="109.016765" style="fill: #006400; fill-opacity: 0.5; stroke: #006400; stroke-opacity: 0.5"/>
     <use xlink:href="#m56a4e555e1" x="284.685" y="109.016765" style="fill: #006400; fill-opacity: 0.5; stroke: #006400; stroke-opacity: 0.5"/>
     <use xlink:href="#m56a4e555e1" x="299.565" y="109.016765" style="fill: #006400; fill-opacity: 0.5; stroke: #006400; stroke-opacity: 0.5"/>
     <use xlink:href="#m56a4e555e1" x="314.445" y="109.016765" style="fill: #006400; fill-opacity: 0.5; stroke: #006400; stroke-opacity: 0.5"/>
     <use xlink:href="#m56a4e555e1" x="329.325" y="109.016765" style="fill: #006400; fill-opacity: 0.5; stroke: #006400; stroke-opacity: 0.5"/>
     <use xlink:href="#m56a4e555e1" x="344.205" y="109.016765" style="fill: #006400; fill-opacity: 0.5; stroke: #006400; stroke-opacity: 0.5"/>
    </g>
   </g>
   <g id="PolyCollection_1">
    <defs>
     <path id="m876a481416" d="M 165.645 -307.5395 
L 165.645 -205.722735 
L 180.525 -205.722735 
L 195.405 -205.722735 
L 210.285 -205.722735 
L 225.165 -205.722735 
L 240.045 -205.722735 
L 254.925 -205.722735 
L 269.805 -205.722735 
L 284.685 -205.722735 
L 299.565 -205.722735 
L 314.445 -205.722735 
L 329.325 -205.722735 
L 344.205 -205.722735 
L 344.205 -307.5395 
L 344.205 -307.5395 
L 329.325 -307.5395 
L 314.445 -307.5395 
L 299.565 -307.5395 
L 284.685 -307.5395 
L 269.805 -307.5395 
L 254.925 -307.5395 
L 240.045 -307.5395 
L 225.165 -307.5395 
L 210.285 -307.5395 
L 195.405 -307.5395 
L 180.525 -307.5395 
L 165.645 -307.5395 
z
" style="stroke: #006400; stroke-opacity: 0.1"/>
    </defs>
    <g clip-path="url(#p3dc1321a3a)">
     <use xlink:href="#m876a481416" x="0" y="314.7395" style="fill: #006400; fill-opacity: 0.1; stroke: #006400; stroke-opacity: 0.1"/>
    </g>
   </g>
   <g id="matplotlib.axis_1">
    <g id="xtick_1">
     <g id="line2d_1">
      <defs>
       <path id="mb6965ee46c" d="M 0 0 
L 0 3.5 
" style="stroke: #000000; stroke-width: 0.8"/>
      </defs>
      <g>
       <use xlink:href="#mb6965ee46c" x="46.605" y="113.6448" style="stroke: #000000; stroke-width: 0.8"/>
      </g>
     </g>
     <g id="text_1">
      <!-- 4000 -->
      <g transform="translate(33.88 128.243237) scale(0.1 -0.1)">
       <defs>
        <path id="DejaVuSans-34" d="M 2419 4116 
L 825 1625 
L 2419 1625 
L 2419 4116 
z
M 2253 4666 
L 3047 4666 
L 3047 1625 
L 3713 1625 
L 3713 1100 
L 3047 1100 
L 3047 0 
L 2419 0 
L 2419 1100 
L 313 1100 
L 313 1709 
L 2253 4666 
z
" transform="scale(0.015625)"/>
        <path id="DejaVuSans-30" d="M 2034 4250 
Q 1547 4250 1301 3770 
Q 1056 3291 1056 2328 
Q 1056 1369 1301 889 
Q 1547 409 2034 409 
Q 2525 409 2770 889 
Q 3016 1369 3016 2328 
Q 3016 3291 2770 3770 
Q 2525 4250 2034 4250 
z
M 2034 4750 
Q 2819 4750 3233 4129 
Q 3647 3509 3647 2328 
Q 3647 1150 3233 529 
Q 2819 -91 2034 -91 
Q 1250 -91 836 529 
Q 422 1150 422 2328 
Q 422 3509 836 4129 
Q 1250 4750 2034 4750 
z
" transform="scale(0.015625)"/>
       </defs>
       <use xlink:href="#DejaVuSans-34"/>
       <use xlink:href="#DejaVuSans-30" x="63.623047"/>
       <use xlink:href="#DejaVuSans-30" x="127.246094"/>
       <use xlink:href="#DejaVuSans-30" x="190.869141"/>
      </g>
     </g>
    </g>
    <g id="xtick_2">
     <g id="line2d_2">
      <g>
       <use xlink:href="#mb6965ee46c" x="106.125" y="113.6448" style="stroke: #000000; stroke-width: 0.8"/>
      </g>
     </g>
     <g id="text_2">
      <!-- 5000 -->
      <g transform="translate(93.4 128.243237) scale(0.1 -0.1)">
       <defs>
        <path id="DejaVuSans-35" d="M 691 4666 
L 3169 4666 
L 3169 4134 
L 1269 4134 
L 1269 2991 
Q 1406 3038 1543 3061 
Q 1681 3084 1819 3084 
Q 2600 3084 3056 2656 
Q 3513 2228 3513 1497 
Q 3513 744 3044 326 
Q 2575 -91 1722 -91 
Q 1428 -91 1123 -41 
Q 819 9 494 109 
L 494 744 
Q 775 591 1075 516 
Q 1375 441 1709 441 
Q 2250 441 2565 725 
Q 2881 1009 2881 1497 
Q 2881 1984 2565 2268 
Q 2250 2553 1709 2553 
Q 1456 2553 1204 2497 
Q 953 2441 691 2322 
L 691 4666 
z
" transform="scale(0.015625)"/>
       </defs>
       <use xlink:href="#DejaVuSans-35"/>
       <use xlink:href="#DejaVuSans-30" x="63.623047"/>
       <use xlink:href="#DejaVuSans-30" x="127.246094"/>
       <use xlink:href="#DejaVuSans-30" x="190.869141"/>
      </g>
     </g>
    </g>
    <g id="xtick_3">
     <g id="line2d_3">
      <g>
       <use xlink:href="#mb6965ee46c" x="165.645" y="113.6448" style="stroke: #000000; stroke-width: 0.8"/>
      </g>
     </g>
     <g id="text_3">
      <!-- 6000 -->
      <g transform="translate(152.92 128.243237) scale(0.1 -0.1)">
       <defs>
        <path id="DejaVuSans-36" d="M 2113 2584 
Q 1688 2584 1439 2293 
Q 1191 2003 1191 1497 
Q 1191 994 1439 701 
Q 1688 409 2113 409 
Q 2538 409 2786 701 
Q 3034 994 3034 1497 
Q 3034 2003 2786 2293 
Q 2538 2584 2113 2584 
z
M 3366 4563 
L 3366 3988 
Q 3128 4100 2886 4159 
Q 2644 4219 2406 4219 
Q 1781 4219 1451 3797 
Q 1122 3375 1075 2522 
Q 1259 2794 1537 2939 
Q 1816 3084 2150 3084 
Q 2853 3084 3261 2657 
Q 3669 2231 3669 1497 
Q 3669 778 3244 343 
Q 2819 -91 2113 -91 
Q 1303 -91 875 529 
Q 447 1150 447 2328 
Q 447 3434 972 4092 
Q 1497 4750 2381 4750 
Q 2619 4750 2861 4703 
Q 3103 4656 3366 4563 
z
" transform="scale(0.015625)"/>
       </defs>
       <use xlink:href="#DejaVuSans-36"/>
       <use xlink:href="#DejaVuSans-30" x="63.623047"/>
       <use xlink:href="#DejaVuSans-30" x="127.246094"/>
       <use xlink:href="#DejaVuSans-30" x="190.869141"/>
      </g>
     </g>
    </g>
    <g id="xtick_4">
     <g id="line2d_4">
      <g>
       <use xlink:href="#mb6965ee46c" x="225.165" y="113.6448" style="stroke: #000000; stroke-width: 0.8"/>
      </g>
     </g>
     <g id="text_4">
      <!-- 7000 -->
      <g transform="translate(212.44 128.243237) scale(0.1 -0.1)">
       <defs>
        <path id="DejaVuSans-37" d="M 525 4666 
L 3525 4666 
L 3525 4397 
L 1831 0 
L 1172 0 
L 2766 4134 
L 525 4134 
L 525 4666 
z
" transform="scale(0.015625)"/>
       </defs>
       <use xlink:href="#DejaVuSans-37"/>
       <use xlink:href="#DejaVuSans-30" x="63.623047"/>
       <use xlink:href="#DejaVuSans-30" x="127.246094"/>
       <use xlink:href="#DejaVuSans-30" x="190.869141"/>
      </g>
     </g>
    </g>
    <g id="xtick_5">
     <g id="line2d_5">
      <g>
       <use xlink:href="#mb6965ee46c" x="284.685" y="113.6448" style="stroke: #000000; stroke-width: 0.8"/>
      </g>
     </g>
     <g id="text_5">
      <!-- 8000 -->
      <g transform="translate(271.96 128.243237) scale(0.1 -0.1)">
       <defs>
        <path id="DejaVuSans-38" d="M 2034 2216 
Q 1584 2216 1326 1975 
Q 1069 1734 1069 1313 
Q 1069 891 1326 650 
Q 1584 409 2034 409 
Q 2484 409 2743 651 
Q 3003 894 3003 1313 
Q 3003 1734 2745 1975 
Q 2488 2216 2034 2216 
z
M 1403 2484 
Q 997 2584 770 2862 
Q 544 3141 544 3541 
Q 544 4100 942 4425 
Q 1341 4750 2034 4750 
Q 2731 4750 3128 4425 
Q 3525 4100 3525 3541 
Q 3525 3141 3298 2862 
Q 3072 2584 2669 2484 
Q 3125 2378 3379 2068 
Q 3634 1759 3634 1313 
Q 3634 634 3220 271 
Q 2806 -91 2034 -91 
Q 1263 -91 848 271 
Q 434 634 434 1313 
Q 434 1759 690 2068 
Q 947 2378 1403 2484 
z
M 1172 3481 
Q 1172 3119 1398 2916 
Q 1625 2713 2034 2713 
Q 2441 2713 2670 2916 
Q 2900 3119 2900 3481 
Q 2900 3844 2670 4047 
Q 2441 4250 2034 4250 
Q 1625 4250 1398 4047 
Q 1172 3844 1172 3481 
z
" transform="scale(0.015625)"/>
       </defs>
       <use xlink:href="#DejaVuSans-38"/>
       <use xlink:href="#DejaVuSans-30" x="63.623047"/>
       <use xlink:href="#DejaVuSans-30" x="127.246094"/>
       <use xlink:href="#DejaVuSans-30" x="190.869141"/>
      </g>
     </g>
    </g>
    <g id="xtick_6">
     <g id="line2d_6">
      <g>
       <use xlink:href="#mb6965ee46c" x="344.205" y="113.6448" style="stroke: #000000; stroke-width: 0.8"/>
      </g>
     </g>
     <g id="text_6">
      <!-- 9000 -->
      <g transform="translate(331.48 128.243237) scale(0.1 -0.1)">
       <defs>
        <path id="DejaVuSans-39" d="M 703 97 
L 703 672 
Q 941 559 1184 500 
Q 1428 441 1663 441 
Q 2288 441 2617 861 
Q 2947 1281 2994 2138 
Q 2813 1869 2534 1725 
Q 2256 1581 1919 1581 
Q 1219 1581 811 2004 
Q 403 2428 403 3163 
Q 403 3881 828 4315 
Q 1253 4750 1959 4750 
Q 2769 4750 3195 4129 
Q 3622 3509 3622 2328 
Q 3622 1225 3098 567 
Q 2575 -91 1691 -91 
Q 1453 -91 1209 -44 
Q 966 3 703 97 
z
M 1959 2075 
Q 2384 2075 2632 2365 
Q 2881 2656 2881 3163 
Q 2881 3666 2632 3958 
Q 2384 4250 1959 4250 
Q 1534 4250 1286 3958 
Q 1038 3666 1038 3163 
Q 1038 2656 1286 2365 
Q 1534 2075 1959 2075 
z
" transform="scale(0.015625)"/>
       </defs>
       <use xlink:href="#DejaVuSans-39"/>
       <use xlink:href="#DejaVuSans-30" x="63.623047"/>
       <use xlink:href="#DejaVuSans-30" x="127.246094"/>
       <use xlink:href="#DejaVuSans-30" x="190.869141"/>
      </g>
     </g>
    </g>
    <g id="xtick_7">
     <g id="line2d_7">
      <g>
       <use xlink:href="#mb6965ee46c" x="403.725" y="113.6448" style="stroke: #000000; stroke-width: 0.8"/>
      </g>
     </g>
     <g id="text_7">
      <!-- 10000 -->
      <g transform="translate(387.81875 128.243237) scale(0.1 -0.1)">
       <defs>
        <path id="DejaVuSans-31" d="M 794 531 
L 1825 531 
L 1825 4091 
L 703 3866 
L 703 4441 
L 1819 4666 
L 2450 4666 
L 2450 531 
L 3481 531 
L 3481 0 
L 794 0 
L 794 531 
z
" transform="scale(0.015625)"/>
       </defs>
       <use xlink:href="#DejaVuSans-31"/>
       <use xlink:href="#DejaVuSans-30" x="63.623047"/>
       <use xlink:href="#DejaVuSans-30" x="127.246094"/>
       <use xlink:href="#DejaVuSans-30" x="190.869141"/>
       <use xlink:href="#DejaVuSans-30" x="254.492188"/>
      </g>
     </g>
    </g>
    <g id="text_8">
     <!-- Frequency, MHz -->
     <g transform="translate(169.57625 144.960737) scale(0.14 -0.14)">
      <defs>
       <path id="DejaVuSans-46" d="M 628 4666 
L 3309 4666 
L 3309 4134 
L 1259 4134 
L 1259 2759 
L 3109 2759 
L 3109 2228 
L 1259 2228 
L 1259 0 
L 628 0 
L 628 4666 
z
" transform="scale(0.015625)"/>
       <path id="DejaVuSans-72" d="M 2631 2963 
Q 2534 3019 2420 3045 
Q 2306 3072 2169 3072 
Q 1681 3072 1420 2755 
Q 1159 2438 1159 1844 
L 1159 0 
L 581 0 
L 581 3500 
L 1159 3500 
L 1159 2956 
Q 1341 3275 1631 3429 
Q 1922 3584 2338 3584 
Q 2397 3584 2469 3576 
Q 2541 3569 2628 3553 
L 2631 2963 
z
" transform="scale(0.015625)"/>
       <path id="DejaVuSans-65" d="M 3597 1894 
L 3597 1613 
L 953 1613 
Q 991 1019 1311 708 
Q 1631 397 2203 397 
Q 2534 397 2845 478 
Q 3156 559 3463 722 
L 3463 178 
Q 3153 47 2828 -22 
Q 2503 -91 2169 -91 
Q 1331 -91 842 396 
Q 353 884 353 1716 
Q 353 2575 817 3079 
Q 1281 3584 2069 3584 
Q 2775 3584 3186 3129 
Q 3597 2675 3597 1894 
z
M 3022 2063 
Q 3016 2534 2758 2815 
Q 2500 3097 2075 3097 
Q 1594 3097 1305 2825 
Q 1016 2553 972 2059 
L 3022 2063 
z
" transform="scale(0.015625)"/>
       <path id="DejaVuSans-71" d="M 947 1747 
Q 947 1113 1208 752 
Q 1469 391 1925 391 
Q 2381 391 2643 752 
Q 2906 1113 2906 1747 
Q 2906 2381 2643 2742 
Q 2381 3103 1925 3103 
Q 1469 3103 1208 2742 
Q 947 2381 947 1747 
z
M 2906 525 
Q 2725 213 2448 61 
Q 2172 -91 1784 -91 
Q 1150 -91 751 415 
Q 353 922 353 1747 
Q 353 2572 751 3078 
Q 1150 3584 1784 3584 
Q 2172 3584 2448 3432 
Q 2725 3281 2906 2969 
L 2906 3500 
L 3481 3500 
L 3481 -1331 
L 2906 -1331 
L 2906 525 
z
" transform="scale(0.015625)"/>
       <path id="DejaVuSans-75" d="M 544 1381 
L 544 3500 
L 1119 3500 
L 1119 1403 
Q 1119 906 1312 657 
Q 1506 409 1894 409 
Q 2359 409 2629 706 
Q 2900 1003 2900 1516 
L 2900 3500 
L 3475 3500 
L 3475 0 
L 2900 0 
L 2900 538 
Q 2691 219 2414 64 
Q 2138 -91 1772 -91 
Q 1169 -91 856 284 
Q 544 659 544 1381 
z
M 1991 3584 
L 1991 3584 
z
" transform="scale(0.015625)"/>
       <path id="DejaVuSans-6e" d="M 3513 2113 
L 3513 0 
L 2938 0 
L 2938 2094 
Q 2938 2591 2744 2837 
Q 2550 3084 2163 3084 
Q 1697 3084 1428 2787 
Q 1159 2491 1159 1978 
L 1159 0 
L 581 0 
L 581 3500 
L 1159 3500 
L 1159 2956 
Q 1366 3272 1645 3428 
Q 1925 3584 2291 3584 
Q 2894 3584 3203 3211 
Q 3513 2838 3513 2113 
z
" transform="scale(0.015625)"/>
       <path id="DejaVuSans-63" d="M 3122 3366 
L 3122 2828 
Q 2878 2963 2633 3030 
Q 2388 3097 2138 3097 
Q 1578 3097 1268 2742 
Q 959 2388 959 1747 
Q 959 1106 1268 751 
Q 1578 397 2138 397 
Q 2388 397 2633 464 
Q 2878 531 3122 666 
L 3122 134 
Q 2881 22 2623 -34 
Q 2366 -91 2075 -91 
Q 1284 -91 818 406 
Q 353 903 353 1747 
Q 353 2603 823 3093 
Q 1294 3584 2113 3584 
Q 2378 3584 2631 3529 
Q 2884 3475 3122 3366 
z
" transform="scale(0.015625)"/>
       <path id="DejaVuSans-79" d="M 2059 -325 
Q 1816 -950 1584 -1140 
Q 1353 -1331 966 -1331 
L 506 -1331 
L 506 -850 
L 844 -850 
Q 1081 -850 1212 -737 
Q 1344 -625 1503 -206 
L 1606 56 
L 191 3500 
L 800 3500 
L 1894 763 
L 2988 3500 
L 3597 3500 
L 2059 -325 
z
" transform="scale(0.015625)"/>
       <path id="DejaVuSans-2c" d="M 750 794 
L 1409 794 
L 1409 256 
L 897 -744 
L 494 -744 
L 750 256 
L 750 794 
z
" transform="scale(0.015625)"/>
       <path id="DejaVuSans-20" transform="scale(0.015625)"/>
       <path id="DejaVuSans-4d" d="M 628 4666 
L 1569 4666 
L 2759 1491 
L 3956 4666 
L 4897 4666 
L 4897 0 
L 4281 0 
L 4281 4097 
L 3078 897 
L 2444 897 
L 1241 4097 
L 1241 0 
L 628 0 
L 628 4666 
z
" transform="scale(0.015625)"/>
       <path id="DejaVuSans-48" d="M 628 4666 
L 1259 4666 
L 1259 2753 
L 3553 2753 
L 3553 4666 
L 4184 4666 
L 4184 0 
L 3553 0 
L 3553 2222 
L 1259 2222 
L 1259 0 
L 628 0 
L 628 4666 
z
" transform="scale(0.015625)"/>
       <path id="DejaVuSans-7a" d="M 353 3500 
L 3084 3500 
L 3084 2975 
L 922 459 
L 3084 459 
L 3084 0 
L 275 0 
L 275 525 
L 2438 3041 
L 353 3041 
L 353 3500 
z
" transform="scale(0.015625)"/>
      </defs>
      <use xlink:href="#DejaVuSans-46"/>
      <use xlink:href="#DejaVuSans-72" x="50.269531"/>
      <use xlink:href="#DejaVuSans-65" x="89.132812"/>
      <use xlink:href="#DejaVuSans-71" x="150.65625"/>
      <use xlink:href="#DejaVuSans-75" x="214.132812"/>
      <use xlink:href="#DejaVuSans-65" x="277.511719"/>
      <use xlink:href="#DejaVuSans-6e" x="339.035156"/>
      <use xlink:href="#DejaVuSans-63" x="402.414062"/>
      <use xlink:href="#DejaVuSans-79" x="457.394531"/>
      <use xlink:href="#DejaVuSans-2c" x="516.574219"/>
      <use xlink:href="#DejaVuSans-20" x="548.361328"/>
      <use xlink:href="#DejaVuSans-4d" x="580.148438"/>
      <use xlink:href="#DejaVuSans-48" x="666.427734"/>
      <use xlink:href="#DejaVuSans-7a" x="741.623047"/>
     </g>
    </g>
   </g>
   <g id="matplotlib.axis_2">
    <g id="ytick_1">
     <g id="line2d_8">
      <defs>
       <path id="m2347aab93f" d="M 0 0 
L -3.5 0 
" style="stroke: #000000; stroke-width: 0.8"/>
      </defs>
      <g>
       <use xlink:href="#m2347aab93f" x="46.605" y="109.016765" style="stroke: #000000; stroke-width: 0.8"/>
      </g>
     </g>
     <g id="text_9">
      <!-- 0 -->
      <g transform="translate(33.2425 112.815984) scale(0.1 -0.1)">
       <use xlink:href="#DejaVuSans-30"/>
      </g>
     </g>
    </g>
    <g id="ytick_2">
     <g id="line2d_9">
      <g>
       <use xlink:href="#m2347aab93f" x="46.605" y="81.294292" style="stroke: #000000; stroke-width: 0.8"/>
      </g>
     </g>
     <g id="text_10">
      <!-- 5 -->
      <g transform="translate(33.2425 85.093511) scale(0.1 -0.1)">
       <use xlink:href="#DejaVuSans-35"/>
      </g>
     </g>
    </g>
    <g id="ytick_3">
     <g id="line2d_10">
      <g>
       <use xlink:href="#m2347aab93f" x="46.605" y="53.571819" style="stroke: #000000; stroke-width: 0.8"/>
      </g>
     </g>
     <g id="text_11">
      <!-- 10 -->
      <g transform="translate(26.88 57.371037) scale(0.1 -0.1)">
       <use xlink:href="#DejaVuSans-31"/>
       <use xlink:href="#DejaVuSans-30" x="63.623047"/>
      </g>
     </g>
    </g>
    <g id="ytick_4">
     <g id="line2d_11">
      <g>
       <use xlink:href="#m2347aab93f" x="46.605" y="25.849345" style="stroke: #000000; stroke-width: 0.8"/>
      </g>
     </g>
     <g id="text_12">
      <!-- 15 -->
      <g transform="translate(26.88 29.648564) scale(0.1 -0.1)">
       <use xlink:href="#DejaVuSans-31"/>
       <use xlink:href="#DejaVuSans-35" x="63.623047"/>
      </g>
     </g>
    </g>
    <g id="text_13">
     <!-- Backward Scattering, $cm^2$ -->
     <g transform="translate(19.94 151.8424) rotate(-90) scale(0.14 -0.14)">
      <defs>
       <path id="DejaVuSans-42" d="M 1259 2228 
L 1259 519 
L 2272 519 
Q 2781 519 3026 730 
Q 3272 941 3272 1375 
Q 3272 1813 3026 2020 
Q 2781 2228 2272 2228 
L 1259 2228 
z
M 1259 4147 
L 1259 2741 
L 2194 2741 
Q 2656 2741 2882 2914 
Q 3109 3088 3109 3444 
Q 3109 3797 2882 3972 
Q 2656 4147 2194 4147 
L 1259 4147 
z
M 628 4666 
L 2241 4666 
Q 2963 4666 3353 4366 
Q 3744 4066 3744 3513 
Q 3744 3084 3544 2831 
Q 3344 2578 2956 2516 
Q 3422 2416 3680 2098 
Q 3938 1781 3938 1306 
Q 3938 681 3513 340 
Q 3088 0 2303 0 
L 628 0 
L 628 4666 
z
" transform="scale(0.015625)"/>
       <path id="DejaVuSans-61" d="M 2194 1759 
Q 1497 1759 1228 1600 
Q 959 1441 959 1056 
Q 959 750 1161 570 
Q 1363 391 1709 391 
Q 2188 391 2477 730 
Q 2766 1069 2766 1631 
L 2766 1759 
L 2194 1759 
z
M 3341 1997 
L 3341 0 
L 2766 0 
L 2766 531 
Q 2569 213 2275 61 
Q 1981 -91 1556 -91 
Q 1019 -91 701 211 
Q 384 513 384 1019 
Q 384 1609 779 1909 
Q 1175 2209 1959 2209 
L 2766 2209 
L 2766 2266 
Q 2766 2663 2505 2880 
Q 2244 3097 1772 3097 
Q 1472 3097 1187 3025 
Q 903 2953 641 2809 
L 641 3341 
Q 956 3463 1253 3523 
Q 1550 3584 1831 3584 
Q 2591 3584 2966 3190 
Q 3341 2797 3341 1997 
z
" transform="scale(0.015625)"/>
       <path id="DejaVuSans-6b" d="M 581 4863 
L 1159 4863 
L 1159 1991 
L 2875 3500 
L 3609 3500 
L 1753 1863 
L 3688 0 
L 2938 0 
L 1159 1709 
L 1159 0 
L 581 0 
L 581 4863 
z
" transform="scale(0.015625)"/>
       <path id="DejaVuSans-77" d="M 269 3500 
L 844 3500 
L 1563 769 
L 2278 3500 
L 2956 3500 
L 3675 769 
L 4391 3500 
L 4966 3500 
L 4050 0 
L 3372 0 
L 2619 2869 
L 1863 0 
L 1184 0 
L 269 3500 
z
" transform="scale(0.015625)"/>
       <path id="DejaVuSans-64" d="M 2906 2969 
L 2906 4863 
L 3481 4863 
L 3481 0 
L 2906 0 
L 2906 525 
Q 2725 213 2448 61 
Q 2172 -91 1784 -91 
Q 1150 -91 751 415 
Q 353 922 353 1747 
Q 353 2572 751 3078 
Q 1150 3584 1784 3584 
Q 2172 3584 2448 3432 
Q 2725 3281 2906 2969 
z
M 947 1747 
Q 947 1113 1208 752 
Q 1469 391 1925 391 
Q 2381 391 2643 752 
Q 2906 1113 2906 1747 
Q 2906 2381 2643 2742 
Q 2381 3103 1925 3103 
Q 1469 3103 1208 2742 
Q 947 2381 947 1747 
z
" transform="scale(0.015625)"/>
       <path id="DejaVuSans-53" d="M 3425 4513 
L 3425 3897 
Q 3066 4069 2747 4153 
Q 2428 4238 2131 4238 
Q 1616 4238 1336 4038 
Q 1056 3838 1056 3469 
Q 1056 3159 1242 3001 
Q 1428 2844 1947 2747 
L 2328 2669 
Q 3034 2534 3370 2195 
Q 3706 1856 3706 1288 
Q 3706 609 3251 259 
Q 2797 -91 1919 -91 
Q 1588 -91 1214 -16 
Q 841 59 441 206 
L 441 856 
Q 825 641 1194 531 
Q 1563 422 1919 422 
Q 2459 422 2753 634 
Q 3047 847 3047 1241 
Q 3047 1584 2836 1778 
Q 2625 1972 2144 2069 
L 1759 2144 
Q 1053 2284 737 2584 
Q 422 2884 422 3419 
Q 422 4038 858 4394 
Q 1294 4750 2059 4750 
Q 2388 4750 2728 4690 
Q 3069 4631 3425 4513 
z
" transform="scale(0.015625)"/>
       <path id="DejaVuSans-74" d="M 1172 4494 
L 1172 3500 
L 2356 3500 
L 2356 3053 
L 1172 3053 
L 1172 1153 
Q 1172 725 1289 603 
Q 1406 481 1766 481 
L 2356 481 
L 2356 0 
L 1766 0 
Q 1100 0 847 248 
Q 594 497 594 1153 
L 594 3053 
L 172 3053 
L 172 3500 
L 594 3500 
L 594 4494 
L 1172 4494 
z
" transform="scale(0.015625)"/>
       <path id="DejaVuSans-69" d="M 603 3500 
L 1178 3500 
L 1178 0 
L 603 0 
L 603 3500 
z
M 603 4863 
L 1178 4863 
L 1178 4134 
L 603 4134 
L 603 4863 
z
" transform="scale(0.015625)"/>
       <path id="DejaVuSans-67" d="M 2906 1791 
Q 2906 2416 2648 2759 
Q 2391 3103 1925 3103 
Q 1463 3103 1205 2759 
Q 947 2416 947 1791 
Q 947 1169 1205 825 
Q 1463 481 1925 481 
Q 2391 481 2648 825 
Q 2906 1169 2906 1791 
z
M 3481 434 
Q 3481 -459 3084 -895 
Q 2688 -1331 1869 -1331 
Q 1566 -1331 1297 -1286 
Q 1028 -1241 775 -1147 
L 775 -588 
Q 1028 -725 1275 -790 
Q 1522 -856 1778 -856 
Q 2344 -856 2625 -561 
Q 2906 -266 2906 331 
L 2906 616 
Q 2728 306 2450 153 
Q 2172 0 1784 0 
Q 1141 0 747 490 
Q 353 981 353 1791 
Q 353 2603 747 3093 
Q 1141 3584 1784 3584 
Q 2172 3584 2450 3431 
Q 2728 3278 2906 2969 
L 2906 3500 
L 3481 3500 
L 3481 434 
z
" transform="scale(0.015625)"/>
       <path id="DejaVuSans-Oblique-63" d="M 3431 3366 
L 3316 2797 
Q 3109 2947 2876 3022 
Q 2644 3097 2394 3097 
Q 2119 3097 1870 3000 
Q 1622 2903 1453 2725 
Q 1184 2453 1037 2087 
Q 891 1722 891 1331 
Q 891 859 1127 628 
Q 1363 397 1844 397 
Q 2081 397 2348 469 
Q 2616 541 2906 684 
L 2797 116 
Q 2547 13 2283 -39 
Q 2019 -91 1741 -91 
Q 1044 -91 669 257 
Q 294 606 294 1253 
Q 294 1797 489 2255 
Q 684 2713 1069 3078 
Q 1331 3328 1684 3456 
Q 2038 3584 2456 3584 
Q 2700 3584 2940 3529 
Q 3181 3475 3431 3366 
z
" transform="scale(0.015625)"/>
       <path id="DejaVuSans-Oblique-6d" d="M 5747 2113 
L 5338 0 
L 4763 0 
L 5166 2094 
Q 5191 2228 5203 2325 
Q 5216 2422 5216 2491 
Q 5216 2772 5059 2928 
Q 4903 3084 4622 3084 
Q 4203 3084 3875 2770 
Q 3547 2456 3450 1953 
L 3066 0 
L 2491 0 
L 2900 2094 
Q 2925 2209 2937 2307 
Q 2950 2406 2950 2484 
Q 2950 2769 2794 2926 
Q 2638 3084 2363 3084 
Q 1938 3084 1609 2770 
Q 1281 2456 1184 1953 
L 800 0 
L 225 0 
L 909 3500 
L 1484 3500 
L 1375 2956 
Q 1609 3263 1923 3423 
Q 2238 3584 2597 3584 
Q 2978 3584 3223 3384 
Q 3469 3184 3519 2828 
Q 3781 3197 4126 3390 
Q 4472 3584 4856 3584 
Q 5306 3584 5551 3325 
Q 5797 3066 5797 2591 
Q 5797 2488 5784 2364 
Q 5772 2241 5747 2113 
z
" transform="scale(0.015625)"/>
       <path id="DejaVuSans-32" d="M 1228 531 
L 3431 531 
L 3431 0 
L 469 0 
L 469 531 
Q 828 903 1448 1529 
Q 2069 2156 2228 2338 
Q 2531 2678 2651 2914 
Q 2772 3150 2772 3378 
Q 2772 3750 2511 3984 
Q 2250 4219 1831 4219 
Q 1534 4219 1204 4116 
Q 875 4013 500 3803 
L 500 4441 
Q 881 4594 1212 4672 
Q 1544 4750 1819 4750 
Q 2544 4750 2975 4387 
Q 3406 4025 3406 3419 
Q 3406 3131 3298 2873 
Q 3191 2616 2906 2266 
Q 2828 2175 2409 1742 
Q 1991 1309 1228 531 
z
" transform="scale(0.015625)"/>
      </defs>
      <use xlink:href="#DejaVuSans-42" transform="translate(0 0.765625)"/>
      <use xlink:href="#DejaVuSans-61" transform="translate(68.603516 0.765625)"/>
      <use xlink:href="#DejaVuSans-63" transform="translate(129.882812 0.765625)"/>
      <use xlink:href="#DejaVuSans-6b" transform="translate(184.863281 0.765625)"/>
      <use xlink:href="#DejaVuSans-77" transform="translate(242.773438 0.765625)"/>
      <use xlink:href="#DejaVuSans-61" transform="translate(324.560547 0.765625)"/>
      <use xlink:href="#DejaVuSans-72" transform="translate(385.839844 0.765625)"/>
      <use xlink:href="#DejaVuSans-64" transform="translate(426.953125 0.765625)"/>
      <use xlink:href="#DejaVuSans-20" transform="translate(490.429688 0.765625)"/>
      <use xlink:href="#DejaVuSans-53" transform="translate(522.216797 0.765625)"/>
      <use xlink:href="#DejaVuSans-63" transform="translate(585.693359 0.765625)"/>
      <use xlink:href="#DejaVuSans-61" transform="translate(640.673828 0.765625)"/>
      <use xlink:href="#DejaVuSans-74" transform="translate(701.953125 0.765625)"/>
      <use xlink:href="#DejaVuSans-74" transform="translate(741.162109 0.765625)"/>
      <use xlink:href="#DejaVuSans-65" transform="translate(780.371094 0.765625)"/>
      <use xlink:href="#DejaVuSans-72" transform="translate(841.894531 0.765625)"/>
      <use xlink:href="#DejaVuSans-69" transform="translate(883.007812 0.765625)"/>
      <use xlink:href="#DejaVuSans-6e" transform="translate(910.791016 0.765625)"/>
      <use xlink:href="#DejaVuSans-67" transform="translate(974.169922 0.765625)"/>
      <use xlink:href="#DejaVuSans-2c" transform="translate(1037.646484 0.765625)"/>
      <use xlink:href="#DejaVuSans-20" transform="translate(1069.433594 0.765625)"/>
      <use xlink:href="#DejaVuSans-Oblique-63" transform="translate(1101.220703 0.765625)"/>
      <use xlink:href="#DejaVuSans-Oblique-6d" transform="translate(1156.201172 0.765625)"/>
      <use xlink:href="#DejaVuSans-32" transform="translate(1258.263177 39.046875) scale(0.7)"/>
     </g>
    </g>
   </g>
   <g id="line2d_12">
    <path d="M -1 108.381086 
L -0.1182 108.351698 
L 4.70292 108.215879 
L 9.52404 108.104287 
L 14.34516 108.015622 
L 19.16628 107.948498 
L 23.9874 107.90208 
L 28.80852 107.876418 
L 33.62964 107.872231 
L 38.45076 107.890118 
L 43.27188 107.929438 
L 48.093 107.987193 
L 52.91412 108.057153 
L 57.73524 108.12926 
L 62.55636 108.189132 
L 67.37748 108.217482 
L 72.1986 108.189477 
L 77.01972 108.074457 
L 81.84084 107.836706 
L 86.66196 107.437975 
L 91.48308 106.842085 
L 96.3042 106.021268 
L 101.12532 104.963257 
L 105.94644 103.677576 
L 110.76756 102.199272 
L 115.58868 100.588677 
L 120.4098 98.926471 
L 125.23092 97.304772 
L 130.05204 95.816565 
L 134.87316 94.546891 
L 139.69428 93.570814 
L 144.5154 92.96133 
L 149.33652 92.78818 
L 154.15764 93.064088 
L 158.97876 93.713027 
L 163.79988 94.619336 
L 168.621 95.64134 
L 173.44212 96.59497 
L 178.26324 97.256923 
L 183.08436 97.396194 
L 187.90548 96.845664 
L 192.7266 95.634194 
L 197.54772 94.187431 
L 202.36884 93.407626 
L 207.18996 93.68131 
L 212.01108 92.330799 
L 216.8322 86.528714 
L 221.65332 79.463989 
L 226.47444 74.785512 
L 231.29556 73.043723 
L 236.11668 73.31729 
L 240.9378 74.635942 
L 245.75892 76.503577 
L 250.58004 78.904822 
L 255.40116 82.055517 
L 260.22228 86.097397 
L 265.0434 90.809369 
L 269.86452 95.477556 
L 274.68564 99.183038 
L 279.50676 101.31206 
L 284.32788 101.676434 
L 289.149 100.569736 
L 293.97012 98.892469 
L 298.79124 97.735403 
L 303.61236 97.765645 
L 308.43348 99.042916 
L 313.2546 101.161632 
L 318.07572 103.484374 
L 322.89684 105.436749 
L 327.71796 106.779672 
L 332.53908 107.534012 
L 337.3602 107.677342 
L 342.18132 107.016233 
L 347.00244 105.25724 
L 351.82356 102.066446 
L 356.64468 97.025507 
L 361.4658 89.689384 
L 366.28692 79.926825 
L 371.10804 68.2813 
L 375.92916 55.856495 
L 380.75028 43.869996 
L 385.5714 33.389782 
L 390.39252 25.250286 
L 395.21364 19.97625 
L 400.03476 17.817506 
L 404.85588 18.953481 
" clip-path="url(#p3dc1321a3a)" style="fill: none; stroke: #b22222; stroke-width: 2; stroke-linecap: square"/>
   </g>
   <g id="line2d_13">
    <path d="M -1 108.893649 
L -0.1182 108.891834 
L 4.70292 108.880678 
L 9.52404 108.868041 
L 14.34516 108.853635 
L 19.16628 108.837119 
L 23.9874 108.818092 
L 28.80852 108.796078 
L 33.62964 108.770514 
L 38.45076 108.740731 
L 43.27188 108.705934 
L 48.093 108.665176 
L 52.91412 108.617334 
L 57.73524 108.561064 
L 62.55636 108.494772 
L 67.37748 108.416557 
L 72.1986 108.324159 
L 77.01972 108.214892 
L 81.84084 108.085559 
L 86.66196 107.932374 
L 91.48308 107.750842 
L 96.3042 107.53564 
L 101.12532 107.28046 
L 105.94644 106.977837 
L 110.76756 106.618926 
L 115.58868 106.193245 
L 120.4098 105.688382 
L 125.23092 105.089605 
L 130.05204 104.379426 
L 134.87316 103.537017 
L 139.69428 102.537665 
L 144.5154 101.351907 
L 149.33652 99.944733 
L 154.15764 98.274385 
L 158.97876 96.291383 
L 163.79988 93.937633 
L 168.621 91.145384 
L 173.44212 87.837961 
L 178.26324 83.932249 
L 183.08436 79.345416 
L 187.90548 74.009832 
L 192.7266 67.901995 
L 197.54772 61.091546 
L 202.36884 53.811129 
L 207.18996 46.526979 
L 212.01108 39.960083 
L 216.8322 34.932425 
L 221.65332 32.009705 
L 226.47444 31.084014 
L 231.29556 31.291197 
L 236.11668 31.391159 
L 240.9378 30.383733 
L 245.75892 27.8907 
L 250.58004 24.250127 
L 255.40116 20.364726 
L 260.22228 17.414208 
L 265.0434 16.45607 
L 269.86452 18.073834 
L 274.68564 22.225057 
L 279.50676 28.392892 
L 284.32788 35.84259 
L 289.149 43.863921 
L 293.97012 51.889623 
L 298.79124 59.525056 
L 303.61236 66.519154 
L 308.43348 72.729252 
L 313.2546 78.047797 
L 318.07572 82.375979 
L 322.89684 85.681784 
L 327.71796 88.068251 
L 332.53908 89.728487 
L 337.3602 90.849081 
L 342.18132 91.565926 
L 347.00244 91.973388 
L 351.82356 92.137431 
L 356.64468 92.102145 
L 361.4658 91.899307 
L 366.28692 91.552537 
L 371.10804 91.075236 
L 375.92916 90.469277 
L 380.75028 89.72155 
L 385.5714 88.805822 
L 390.39252 87.684629 
L 395.21364 86.320838 
L 400.03476 84.687569 
L 404.85588 82.778626 
" clip-path="url(#p3dc1321a3a)" style="fill: none; stroke-dasharray: 10,10; stroke-dashoffset: 10; stroke: #808000; stroke-width: 2"/>
   </g>
   <g id="line2d_14">
    <path d="M 46.605 109.016765 
L 403.725 109.016765 
" clip-path="url(#p3dc1321a3a)" style="fill: none; stroke: #000000; stroke-linecap: square"/>
   </g>
   <g id="patch_3">
    <path d="M 46.605 113.6448 
L 46.605 7.2 
" style="fill: none; stroke: #000000; stroke-width: 0.8; stroke-linejoin: miter; stroke-linecap: square"/>
   </g>
   <g id="patch_4">
    <path d="M 403.725 113.6448 
L 403.725 7.2 
" style="fill: none; stroke: #000000; stroke-width: 0.8; stroke-linejoin: miter; stroke-linecap: square"/>
   </g>
   <g id="patch_5">
    <path d="M 46.605 113.6448 
L 403.725 113.6448 
" style="fill: none; stroke: #000000; stroke-width: 0.8; stroke-linejoin: miter; stroke-linecap: square"/>
   </g>
   <g id="patch_6">
    <path d="M 46.605 7.2 
L 403.725 7.2 
" style="fill: none; stroke: #000000; stroke-width: 0.8; stroke-linejoin: miter; stroke-linecap: square"/>
   </g>
   <g id="legend_1">
    <g id="patch_7">
     <path d="M 53.605 73.934375 
L 198.805 73.934375 
Q 200.805 73.934375 200.805 71.934375 
L 200.805 14.2 
Q 200.805 12.2 198.805 12.2 
L 53.605 12.2 
Q 51.605 12.2 51.605 14.2 
L 51.605 71.934375 
Q 51.605 73.934375 53.605 73.934375 
z
" style="fill: #ffffff; opacity: 0.8; stroke: #cccccc; stroke-linejoin: miter"/>
    </g>
    <g id="line2d_15">
     <path d="M 55.605 20.3 
L 65.605 20.3 
L 75.605 20.3 
" style="fill: none; stroke: #b22222; stroke-width: 2; stroke-linecap: square"/>
    </g>
    <g id="text_14">
     <!-- Scattering angle: 180$\degree$ -->
     <g transform="translate(83.605 23.8) scale(0.1 -0.1)">
      <defs>
       <path id="DejaVuSans-6c" d="M 603 4863 
L 1178 4863 
L 1178 0 
L 603 0 
L 603 4863 
z
" transform="scale(0.015625)"/>
       <path id="DejaVuSans-3a" d="M 750 794 
L 1409 794 
L 1409 0 
L 750 0 
L 750 794 
z
M 750 3309 
L 1409 3309 
L 1409 2516 
L 750 2516 
L 750 3309 
z
" transform="scale(0.015625)"/>
       <path id="DejaVuSans-b0" d="M 1600 4347 
Q 1350 4347 1178 4173 
Q 1006 4000 1006 3750 
Q 1006 3503 1178 3333 
Q 1350 3163 1600 3163 
Q 1850 3163 2022 3333 
Q 2194 3503 2194 3750 
Q 2194 3997 2020 4172 
Q 1847 4347 1600 4347 
z
M 1600 4750 
Q 1800 4750 1984 4673 
Q 2169 4597 2303 4453 
Q 2447 4313 2519 4134 
Q 2591 3956 2591 3750 
Q 2591 3338 2302 3052 
Q 2013 2766 1594 2766 
Q 1172 2766 890 3047 
Q 609 3328 609 3750 
Q 609 4169 896 4459 
Q 1184 4750 1600 4750 
z
" transform="scale(0.015625)"/>
      </defs>
      <use xlink:href="#DejaVuSans-53" transform="translate(0 0.015625)"/>
      <use xlink:href="#DejaVuSans-63" transform="translate(63.476562 0.015625)"/>
      <use xlink:href="#DejaVuSans-61" transform="translate(118.457031 0.015625)"/>
      <use xlink:href="#DejaVuSans-74" transform="translate(179.736328 0.015625)"/>
      <use xlink:href="#DejaVuSans-74" transform="translate(218.945312 0.015625)"/>
      <use xlink:href="#DejaVuSans-65" transform="translate(258.154297 0.015625)"/>
      <use xlink:href="#DejaVuSans-72" transform="translate(319.677734 0.015625)"/>
      <use xlink:href="#DejaVuSans-69" transform="translate(360.791016 0.015625)"/>
      <use xlink:href="#DejaVuSans-6e" transform="translate(388.574219 0.015625)"/>
      <use xlink:href="#DejaVuSans-67" transform="translate(451.953125 0.015625)"/>
      <use xlink:href="#DejaVuSans-20" transform="translate(515.429688 0.015625)"/>
      <use xlink:href="#DejaVuSans-61" transform="translate(547.216797 0.015625)"/>
      <use xlink:href="#DejaVuSans-6e" transform="translate(608.496094 0.015625)"/>
      <use xlink:href="#DejaVuSans-67" transform="translate(671.875 0.015625)"/>
      <use xlink:href="#DejaVuSans-6c" transform="translate(735.351562 0.015625)"/>
      <use xlink:href="#DejaVuSans-65" transform="translate(763.134766 0.015625)"/>
      <use xlink:href="#DejaVuSans-3a" transform="translate(824.658203 0.015625)"/>
      <use xlink:href="#DejaVuSans-20" transform="translate(858.349609 0.015625)"/>
      <use xlink:href="#DejaVuSans-31" transform="translate(890.136719 0.015625)"/>
      <use xlink:href="#DejaVuSans-38" transform="translate(953.759766 0.015625)"/>
      <use xlink:href="#DejaVuSans-30" transform="translate(1017.382812 0.015625)"/>
      <use xlink:href="#DejaVuSans-b0" transform="translate(1081.005859 0.015625)"/>
     </g>
    </g>
    <g id="line2d_16">
     <path d="M 55.605 34.998438 
L 65.605 34.998438 
L 75.605 34.998438 
" style="fill: none; stroke-dasharray: 10,10; stroke-dashoffset: 10; stroke: #808000; stroke-width: 2"/>
    </g>
    <g id="text_15">
     <!-- Initial object: spatial -->
     <g transform="translate(83.605 38.498438) scale(0.1 -0.1)">
      <defs>
       <path id="DejaVuSans-49" d="M 628 4666 
L 1259 4666 
L 1259 0 
L 628 0 
L 628 4666 
z
" transform="scale(0.015625)"/>
       <path id="DejaVuSans-6f" d="M 1959 3097 
Q 1497 3097 1228 2736 
Q 959 2375 959 1747 
Q 959 1119 1226 758 
Q 1494 397 1959 397 
Q 2419 397 2687 759 
Q 2956 1122 2956 1747 
Q 2956 2369 2687 2733 
Q 2419 3097 1959 3097 
z
M 1959 3584 
Q 2709 3584 3137 3096 
Q 3566 2609 3566 1747 
Q 3566 888 3137 398 
Q 2709 -91 1959 -91 
Q 1206 -91 779 398 
Q 353 888 353 1747 
Q 353 2609 779 3096 
Q 1206 3584 1959 3584 
z
" transform="scale(0.015625)"/>
       <path id="DejaVuSans-62" d="M 3116 1747 
Q 3116 2381 2855 2742 
Q 2594 3103 2138 3103 
Q 1681 3103 1420 2742 
Q 1159 2381 1159 1747 
Q 1159 1113 1420 752 
Q 1681 391 2138 391 
Q 2594 391 2855 752 
Q 3116 1113 3116 1747 
z
M 1159 2969 
Q 1341 3281 1617 3432 
Q 1894 3584 2278 3584 
Q 2916 3584 3314 3078 
Q 3713 2572 3713 1747 
Q 3713 922 3314 415 
Q 2916 -91 2278 -91 
Q 1894 -91 1617 61 
Q 1341 213 1159 525 
L 1159 0 
L 581 0 
L 581 4863 
L 1159 4863 
L 1159 2969 
z
" transform="scale(0.015625)"/>
       <path id="DejaVuSans-6a" d="M 603 3500 
L 1178 3500 
L 1178 -63 
Q 1178 -731 923 -1031 
Q 669 -1331 103 -1331 
L -116 -1331 
L -116 -844 
L 38 -844 
Q 366 -844 484 -692 
Q 603 -541 603 -63 
L 603 3500 
z
M 603 4863 
L 1178 4863 
L 1178 4134 
L 603 4134 
L 603 4863 
z
" transform="scale(0.015625)"/>
       <path id="DejaVuSans-73" d="M 2834 3397 
L 2834 2853 
Q 2591 2978 2328 3040 
Q 2066 3103 1784 3103 
Q 1356 3103 1142 2972 
Q 928 2841 928 2578 
Q 928 2378 1081 2264 
Q 1234 2150 1697 2047 
L 1894 2003 
Q 2506 1872 2764 1633 
Q 3022 1394 3022 966 
Q 3022 478 2636 193 
Q 2250 -91 1575 -91 
Q 1294 -91 989 -36 
Q 684 19 347 128 
L 347 722 
Q 666 556 975 473 
Q 1284 391 1588 391 
Q 1994 391 2212 530 
Q 2431 669 2431 922 
Q 2431 1156 2273 1281 
Q 2116 1406 1581 1522 
L 1381 1569 
Q 847 1681 609 1914 
Q 372 2147 372 2553 
Q 372 3047 722 3315 
Q 1072 3584 1716 3584 
Q 2034 3584 2315 3537 
Q 2597 3491 2834 3397 
z
" transform="scale(0.015625)"/>
       <path id="DejaVuSans-70" d="M 1159 525 
L 1159 -1331 
L 581 -1331 
L 581 3500 
L 1159 3500 
L 1159 2969 
Q 1341 3281 1617 3432 
Q 1894 3584 2278 3584 
Q 2916 3584 3314 3078 
Q 3713 2572 3713 1747 
Q 3713 922 3314 415 
Q 2916 -91 2278 -91 
Q 1894 -91 1617 61 
Q 1341 213 1159 525 
z
M 3116 1747 
Q 3116 2381 2855 2742 
Q 2594 3103 2138 3103 
Q 1681 3103 1420 2742 
Q 1159 2381 1159 1747 
Q 1159 1113 1420 752 
Q 1681 391 2138 391 
Q 2594 391 2855 752 
Q 3116 1113 3116 1747 
z
" transform="scale(0.015625)"/>
      </defs>
      <use xlink:href="#DejaVuSans-49"/>
      <use xlink:href="#DejaVuSans-6e" x="29.492188"/>
      <use xlink:href="#DejaVuSans-69" x="92.871094"/>
      <use xlink:href="#DejaVuSans-74" x="120.654297"/>
      <use xlink:href="#DejaVuSans-69" x="159.863281"/>
      <use xlink:href="#DejaVuSans-61" x="187.646484"/>
      <use xlink:href="#DejaVuSans-6c" x="248.925781"/>
      <use xlink:href="#DejaVuSans-20" x="276.708984"/>
      <use xlink:href="#DejaVuSans-6f" x="308.496094"/>
      <use xlink:href="#DejaVuSans-62" x="369.677734"/>
      <use xlink:href="#DejaVuSans-6a" x="433.154297"/>
      <use xlink:href="#DejaVuSans-65" x="460.9375"/>
      <use xlink:href="#DejaVuSans-63" x="522.460938"/>
      <use xlink:href="#DejaVuSans-74" x="577.441406"/>
      <use xlink:href="#DejaVuSans-3a" x="616.650391"/>
      <use xlink:href="#DejaVuSans-20" x="650.341797"/>
      <use xlink:href="#DejaVuSans-73" x="682.128906"/>
      <use xlink:href="#DejaVuSans-70" x="734.228516"/>
      <use xlink:href="#DejaVuSans-61" x="797.705078"/>
      <use xlink:href="#DejaVuSans-74" x="858.984375"/>
      <use xlink:href="#DejaVuSans-69" x="898.193359"/>
      <use xlink:href="#DejaVuSans-61" x="925.976562"/>
      <use xlink:href="#DejaVuSans-6c" x="987.255859"/>
     </g>
    </g>
    <g id="PathCollection_2">
     <g>
      <use xlink:href="#m56a4e555e1" x="65.605" y="50.551562" style="fill: #006400; fill-opacity: 0.5; stroke: #006400; stroke-opacity: 0.5"/>
     </g>
    </g>
    <g id="text_16">
     <!-- Optimized frequencies -->
     <g transform="translate(83.605 53.176562) scale(0.1 -0.1)">
      <defs>
       <path id="DejaVuSans-4f" d="M 2522 4238 
Q 1834 4238 1429 3725 
Q 1025 3213 1025 2328 
Q 1025 1447 1429 934 
Q 1834 422 2522 422 
Q 3209 422 3611 934 
Q 4013 1447 4013 2328 
Q 4013 3213 3611 3725 
Q 3209 4238 2522 4238 
z
M 2522 4750 
Q 3503 4750 4090 4092 
Q 4678 3434 4678 2328 
Q 4678 1225 4090 567 
Q 3503 -91 2522 -91 
Q 1538 -91 948 565 
Q 359 1222 359 2328 
Q 359 3434 948 4092 
Q 1538 4750 2522 4750 
z
" transform="scale(0.015625)"/>
       <path id="DejaVuSans-6d" d="M 3328 2828 
Q 3544 3216 3844 3400 
Q 4144 3584 4550 3584 
Q 5097 3584 5394 3201 
Q 5691 2819 5691 2113 
L 5691 0 
L 5113 0 
L 5113 2094 
Q 5113 2597 4934 2840 
Q 4756 3084 4391 3084 
Q 3944 3084 3684 2787 
Q 3425 2491 3425 1978 
L 3425 0 
L 2847 0 
L 2847 2094 
Q 2847 2600 2669 2842 
Q 2491 3084 2119 3084 
Q 1678 3084 1418 2786 
Q 1159 2488 1159 1978 
L 1159 0 
L 581 0 
L 581 3500 
L 1159 3500 
L 1159 2956 
Q 1356 3278 1631 3431 
Q 1906 3584 2284 3584 
Q 2666 3584 2933 3390 
Q 3200 3197 3328 2828 
z
" transform="scale(0.015625)"/>
       <path id="DejaVuSans-66" d="M 2375 4863 
L 2375 4384 
L 1825 4384 
Q 1516 4384 1395 4259 
Q 1275 4134 1275 3809 
L 1275 3500 
L 2222 3500 
L 2222 3053 
L 1275 3053 
L 1275 0 
L 697 0 
L 697 3053 
L 147 3053 
L 147 3500 
L 697 3500 
L 697 3744 
Q 697 4328 969 4595 
Q 1241 4863 1831 4863 
L 2375 4863 
z
" transform="scale(0.015625)"/>
      </defs>
      <use xlink:href="#DejaVuSans-4f"/>
      <use xlink:href="#DejaVuSans-70" x="78.710938"/>
      <use xlink:href="#DejaVuSans-74" x="142.1875"/>
      <use xlink:href="#DejaVuSans-69" x="181.396484"/>
      <use xlink:href="#DejaVuSans-6d" x="209.179688"/>
      <use xlink:href="#DejaVuSans-69" x="306.591797"/>
      <use xlink:href="#DejaVuSans-7a" x="334.375"/>
      <use xlink:href="#DejaVuSans-65" x="386.865234"/>
      <use xlink:href="#DejaVuSans-64" x="448.388672"/>
      <use xlink:href="#DejaVuSans-20" x="511.865234"/>
      <use xlink:href="#DejaVuSans-66" x="543.652344"/>
      <use xlink:href="#DejaVuSans-72" x="578.857422"/>
      <use xlink:href="#DejaVuSans-65" x="617.720703"/>
      <use xlink:href="#DejaVuSans-71" x="679.244141"/>
      <use xlink:href="#DejaVuSans-75" x="742.720703"/>
      <use xlink:href="#DejaVuSans-65" x="806.099609"/>
      <use xlink:href="#DejaVuSans-6e" x="867.623047"/>
      <use xlink:href="#DejaVuSans-63" x="931.001953"/>
      <use xlink:href="#DejaVuSans-69" x="985.982422"/>
      <use xlink:href="#DejaVuSans-65" x="1013.765625"/>
      <use xlink:href="#DejaVuSans-73" x="1075.289062"/>
     </g>
    </g>
    <g id="patch_8">
     <path d="M 55.605 67.854688 
L 75.605 67.854688 
L 75.605 60.854688 
L 55.605 60.854688 
z
" style="fill: #006400; fill-opacity: 0.1; stroke: #006400; stroke-opacity: 0.1; stroke-linejoin: miter"/>
    </g>
    <g id="text_17">
     <!-- Optimized area -->
     <g transform="translate(83.605 67.854688) scale(0.1 -0.1)">
      <use xlink:href="#DejaVuSans-4f"/>
      <use xlink:href="#DejaVuSans-70" x="78.710938"/>
      <use xlink:href="#DejaVuSans-74" x="142.1875"/>
      <use xlink:href="#DejaVuSans-69" x="181.396484"/>
      <use xlink:href="#DejaVuSans-6d" x="209.179688"/>
      <use xlink:href="#DejaVuSans-69" x="306.591797"/>
      <use xlink:href="#DejaVuSans-7a" x="334.375"/>
      <use xlink:href="#DejaVuSans-65" x="386.865234"/>
      <use xlink:href="#DejaVuSans-64" x="448.388672"/>
      <use xlink:href="#DejaVuSans-20" x="511.865234"/>
      <use xlink:href="#DejaVuSans-61" x="543.652344"/>
      <use xlink:href="#DejaVuSans-72" x="604.931641"/>
      <use xlink:href="#DejaVuSans-65" x="643.794922"/>
      <use xlink:href="#DejaVuSans-61" x="705.318359"/>
     </g>
    </g>
   </g>
  </g>
  <g id="axes_2">
   <g id="patch_9">
    <path d="M 46.605 273.312 
L 403.725 273.312 
L 403.725 166.8672 
L 46.605 166.8672 
z
" style="fill: #ffffff"/>
   </g>
   <g id="matplotlib.axis_3">
    <g id="xtick_8">
     <g id="line2d_17">
      <g>
       <use xlink:href="#mb6965ee46c" x="62.837727" y="273.312" style="stroke: #000000; stroke-width: 0.8"/>
      </g>
     </g>
     <g id="text_18">
      <!-- 0 -->
      <g transform="translate(59.656477 287.910437) scale(0.1 -0.1)">
       <use xlink:href="#DejaVuSans-30"/>
      </g>
     </g>
    </g>
    <g id="xtick_9">
     <g id="line2d_18">
      <g>
       <use xlink:href="#mb6965ee46c" x="117.127785" y="273.312" style="stroke: #000000; stroke-width: 0.8"/>
      </g>
     </g>
     <g id="text_19">
      <!-- 50 -->
      <g transform="translate(110.765285 287.910437) scale(0.1 -0.1)">
       <use xlink:href="#DejaVuSans-35"/>
       <use xlink:href="#DejaVuSans-30" x="63.623047"/>
      </g>
     </g>
    </g>
    <g id="xtick_10">
     <g id="line2d_19">
      <g>
       <use xlink:href="#mb6965ee46c" x="171.417843" y="273.312" style="stroke: #000000; stroke-width: 0.8"/>
      </g>
     </g>
     <g id="text_20">
      <!-- 100 -->
      <g transform="translate(161.874093 287.910437) scale(0.1 -0.1)">
       <use xlink:href="#DejaVuSans-31"/>
       <use xlink:href="#DejaVuSans-30" x="63.623047"/>
       <use xlink:href="#DejaVuSans-30" x="127.246094"/>
      </g>
     </g>
    </g>
    <g id="xtick_11">
     <g id="line2d_20">
      <g>
       <use xlink:href="#mb6965ee46c" x="225.707901" y="273.312" style="stroke: #000000; stroke-width: 0.8"/>
      </g>
     </g>
     <g id="text_21">
      <!-- 150 -->
      <g transform="translate(216.164151 287.910437) scale(0.1 -0.1)">
       <use xlink:href="#DejaVuSans-31"/>
       <use xlink:href="#DejaVuSans-35" x="63.623047"/>
       <use xlink:href="#DejaVuSans-30" x="127.246094"/>
      </g>
     </g>
    </g>
    <g id="xtick_12">
     <g id="line2d_21">
      <g>
       <use xlink:href="#mb6965ee46c" x="279.997958" y="273.312" style="stroke: #000000; stroke-width: 0.8"/>
      </g>
     </g>
     <g id="text_22">
      <!-- 200 -->
      <g transform="translate(270.454208 287.910437) scale(0.1 -0.1)">
       <use xlink:href="#DejaVuSans-32"/>
       <use xlink:href="#DejaVuSans-30" x="63.623047"/>
       <use xlink:href="#DejaVuSans-30" x="127.246094"/>
      </g>
     </g>
    </g>
    <g id="xtick_13">
     <g id="line2d_22">
      <g>
       <use xlink:href="#mb6965ee46c" x="334.288016" y="273.312" style="stroke: #000000; stroke-width: 0.8"/>
      </g>
     </g>
     <g id="text_23">
      <!-- 250 -->
      <g transform="translate(324.744266 287.910437) scale(0.1 -0.1)">
       <use xlink:href="#DejaVuSans-32"/>
       <use xlink:href="#DejaVuSans-35" x="63.623047"/>
       <use xlink:href="#DejaVuSans-30" x="127.246094"/>
      </g>
     </g>
    </g>
    <g id="xtick_14">
     <g id="line2d_23">
      <g>
       <use xlink:href="#mb6965ee46c" x="388.578074" y="273.312" style="stroke: #000000; stroke-width: 0.8"/>
      </g>
     </g>
     <g id="text_24">
      <!-- 300 -->
      <g transform="translate(379.034324 287.910437) scale(0.1 -0.1)">
       <defs>
        <path id="DejaVuSans-33" d="M 2597 2516 
Q 3050 2419 3304 2112 
Q 3559 1806 3559 1356 
Q 3559 666 3084 287 
Q 2609 -91 1734 -91 
Q 1441 -91 1130 -33 
Q 819 25 488 141 
L 488 750 
Q 750 597 1062 519 
Q 1375 441 1716 441 
Q 2309 441 2620 675 
Q 2931 909 2931 1356 
Q 2931 1769 2642 2001 
Q 2353 2234 1838 2234 
L 1294 2234 
L 1294 2753 
L 1863 2753 
Q 2328 2753 2575 2939 
Q 2822 3125 2822 3475 
Q 2822 3834 2567 4026 
Q 2313 4219 1838 4219 
Q 1578 4219 1281 4162 
Q 984 4106 628 3988 
L 628 4550 
Q 988 4650 1302 4700 
Q 1616 4750 1894 4750 
Q 2613 4750 3031 4423 
Q 3450 4097 3450 3541 
Q 3450 3153 3228 2886 
Q 3006 2619 2597 2516 
z
" transform="scale(0.015625)"/>
       </defs>
       <use xlink:href="#DejaVuSans-33"/>
       <use xlink:href="#DejaVuSans-30" x="63.623047"/>
       <use xlink:href="#DejaVuSans-30" x="127.246094"/>
      </g>
     </g>
    </g>
    <g id="text_25">
     <!-- Iterations -->
     <g transform="translate(191.826406 304.627937) scale(0.14 -0.14)">
      <use xlink:href="#DejaVuSans-49"/>
      <use xlink:href="#DejaVuSans-74" x="29.492188"/>
      <use xlink:href="#DejaVuSans-65" x="68.701172"/>
      <use xlink:href="#DejaVuSans-72" x="130.224609"/>
      <use xlink:href="#DejaVuSans-61" x="171.337891"/>
      <use xlink:href="#DejaVuSans-74" x="232.617188"/>
      <use xlink:href="#DejaVuSans-69" x="271.826172"/>
      <use xlink:href="#DejaVuSans-6f" x="299.609375"/>
      <use xlink:href="#DejaVuSans-6e" x="360.791016"/>
      <use xlink:href="#DejaVuSans-73" x="424.169922"/>
     </g>
    </g>
   </g>
   <g id="matplotlib.axis_4">
    <g id="ytick_5">
     <g id="line2d_24">
      <g>
       <use xlink:href="#m2347aab93f" x="46.605" y="273.312" style="stroke: #000000; stroke-width: 0.8"/>
      </g>
     </g>
     <g id="text_26">
      <!-- 0 -->
      <g transform="translate(33.2425 277.111219) scale(0.1 -0.1)">
       <use xlink:href="#DejaVuSans-30"/>
      </g>
     </g>
    </g>
    <g id="ytick_6">
     <g id="line2d_25">
      <g>
       <use xlink:href="#m2347aab93f" x="46.605" y="252.02304" style="stroke: #000000; stroke-width: 0.8"/>
      </g>
     </g>
     <g id="text_27">
      <!-- 5 -->
      <g transform="translate(33.2425 255.822259) scale(0.1 -0.1)">
       <use xlink:href="#DejaVuSans-35"/>
      </g>
     </g>
    </g>
    <g id="ytick_7">
     <g id="line2d_26">
      <g>
       <use xlink:href="#m2347aab93f" x="46.605" y="230.73408" style="stroke: #000000; stroke-width: 0.8"/>
      </g>
     </g>
     <g id="text_28">
      <!-- 10 -->
      <g transform="translate(26.88 234.533299) scale(0.1 -0.1)">
       <use xlink:href="#DejaVuSans-31"/>
       <use xlink:href="#DejaVuSans-30" x="63.623047"/>
      </g>
     </g>
    </g>
    <g id="ytick_8">
     <g id="line2d_27">
      <g>
       <use xlink:href="#m2347aab93f" x="46.605" y="209.44512" style="stroke: #000000; stroke-width: 0.8"/>
      </g>
     </g>
     <g id="text_29">
      <!-- 15 -->
      <g transform="translate(26.88 213.244339) scale(0.1 -0.1)">
       <use xlink:href="#DejaVuSans-31"/>
       <use xlink:href="#DejaVuSans-35" x="63.623047"/>
      </g>
     </g>
    </g>
    <g id="ytick_9">
     <g id="line2d_28">
      <g>
       <use xlink:href="#m2347aab93f" x="46.605" y="188.15616" style="stroke: #000000; stroke-width: 0.8"/>
      </g>
     </g>
     <g id="text_30">
      <!-- 20 -->
      <g transform="translate(26.88 191.955379) scale(0.1 -0.1)">
       <use xlink:href="#DejaVuSans-32"/>
       <use xlink:href="#DejaVuSans-30" x="63.623047"/>
      </g>
     </g>
    </g>
    <g id="ytick_10">
     <g id="line2d_29">
      <g>
       <use xlink:href="#m2347aab93f" x="46.605" y="166.8672" style="stroke: #000000; stroke-width: 0.8"/>
      </g>
     </g>
     <g id="text_31">
      <!-- 25 -->
      <g transform="translate(26.88 170.666419) scale(0.1 -0.1)">
       <use xlink:href="#DejaVuSans-32"/>
       <use xlink:href="#DejaVuSans-35" x="63.623047"/>
      </g>
     </g>
    </g>
    <g id="ytick_11">
     <g id="line2d_30">
      <g>
       <use xlink:href="#m2347aab93f" x="46.605" y="273.312" style="stroke: #000000; stroke-width: 0.8"/>
      </g>
     </g>
     <g id="text_32">
      <!-- 0 -->
      <g transform="translate(33.2425 277.111219) scale(0.1 -0.1)">
       <use xlink:href="#DejaVuSans-30"/>
      </g>
     </g>
    </g>
    <g id="text_33">
     <!-- Mean population scattering, $cm^2$ -->
     <g transform="translate(19.94 334.9596) rotate(-90) scale(0.14 -0.14)">
      <use xlink:href="#DejaVuSans-4d" transform="translate(0 0.765625)"/>
      <use xlink:href="#DejaVuSans-65" transform="translate(86.279297 0.765625)"/>
      <use xlink:href="#DejaVuSans-61" transform="translate(147.802734 0.765625)"/>
      <use xlink:href="#DejaVuSans-6e" transform="translate(209.082031 0.765625)"/>
      <use xlink:href="#DejaVuSans-20" transform="translate(272.460938 0.765625)"/>
      <use xlink:href="#DejaVuSans-70" transform="translate(304.248047 0.765625)"/>
      <use xlink:href="#DejaVuSans-6f" transform="translate(367.724609 0.765625)"/>
      <use xlink:href="#DejaVuSans-70" transform="translate(428.90625 0.765625)"/>
      <use xlink:href="#DejaVuSans-75" transform="translate(492.382812 0.765625)"/>
      <use xlink:href="#DejaVuSans-6c" transform="translate(555.761719 0.765625)"/>
      <use xlink:href="#DejaVuSans-61" transform="translate(583.544922 0.765625)"/>
      <use xlink:href="#DejaVuSans-74" transform="translate(644.824219 0.765625)"/>
      <use xlink:href="#DejaVuSans-69" transform="translate(684.033203 0.765625)"/>
      <use xlink:href="#DejaVuSans-6f" transform="translate(711.816406 0.765625)"/>
      <use xlink:href="#DejaVuSans-6e" transform="translate(772.998047 0.765625)"/>
      <use xlink:href="#DejaVuSans-20" transform="translate(836.376953 0.765625)"/>
      <use xlink:href="#DejaVuSans-73" transform="translate(868.164062 0.765625)"/>
      <use xlink:href="#DejaVuSans-63" transform="translate(920.263672 0.765625)"/>
      <use xlink:href="#DejaVuSans-61" transform="translate(975.244141 0.765625)"/>
      <use xlink:href="#DejaVuSans-74" transform="translate(1036.523438 0.765625)"/>
      <use xlink:href="#DejaVuSans-74" transform="translate(1075.732422 0.765625)"/>
      <use xlink:href="#DejaVuSans-65" transform="translate(1114.941406 0.765625)"/>
      <use xlink:href="#DejaVuSans-72" transform="translate(1176.464844 0.765625)"/>
      <use xlink:href="#DejaVuSans-69" transform="translate(1217.578125 0.765625)"/>
      <use xlink:href="#DejaVuSans-6e" transform="translate(1245.361328 0.765625)"/>
      <use xlink:href="#DejaVuSans-67" transform="translate(1308.740234 0.765625)"/>
      <use xlink:href="#DejaVuSans-2c" transform="translate(1372.216797 0.765625)"/>
      <use xlink:href="#DejaVuSans-20" transform="translate(1404.003906 0.765625)"/>
      <use xlink:href="#DejaVuSans-Oblique-63" transform="translate(1435.791016 0.765625)"/>
      <use xlink:href="#DejaVuSans-Oblique-6d" transform="translate(1490.771484 0.765625)"/>
      <use xlink:href="#DejaVuSans-32" transform="translate(1592.83349 39.046875) scale(0.7)"/>
     </g>
    </g>
   </g>
   <g id="line2d_31">
    <path d="M 62.837727 177.294584 
L 63.923528 202.362996 
L 65.00933 198.301318 
L 66.095131 202.626487 
L 67.180932 204.004605 
L 68.266733 201.776465 
L 69.352534 198.520799 
L 70.438335 210.70059 
L 71.524137 212.277504 
L 72.609938 212.212951 
L 73.695739 205.519393 
L 74.78154 207.046777 
L 75.867341 209.241695 
L 76.953142 207.599776 
L 78.038943 209.663372 
L 79.124745 209.767173 
L 80.210546 214.028138 
L 81.296347 212.712228 
L 82.382148 213.971143 
L 83.467949 211.642085 
L 84.55375 215.397707 
L 85.639552 210.072388 
L 86.725353 208.603652 
L 87.811154 212.659726 
L 88.896955 206.62652 
L 89.982756 206.621521 
L 91.068557 213.182775 
L 92.154358 211.855701 
L 93.24016 218.227163 
L 94.325961 216.622426 
L 95.411762 215.576209 
L 96.497563 221.540055 
L 97.583364 221.460677 
L 98.669165 222.002081 
L 99.754967 222.813695 
L 100.840768 224.322557 
L 101.926569 224.976888 
L 103.01237 220.994298 
L 104.098171 222.660653 
L 105.183972 222.431428 
L 106.269773 222.445888 
L 107.355575 227.565889 
L 108.441376 227.829071 
L 109.527177 228.267362 
L 110.612978 227.928816 
L 111.698779 226.543197 
L 112.78458 224.243653 
L 113.870382 228.564808 
L 114.956183 226.777303 
L 116.041984 230.352642 
L 117.127785 228.164162 
L 118.213586 230.884621 
L 119.299387 228.419675 
L 120.385189 230.654102 
L 121.47099 226.126013 
L 122.556791 228.654615 
L 123.642592 223.461937 
L 124.728393 227.521119 
L 125.814194 226.086307 
L 126.899995 225.908403 
L 127.985797 225.087367 
L 129.071598 224.527634 
L 130.157399 225.245319 
L 131.2432 224.120548 
L 132.329001 228.105276 
L 134.500604 219.654173 
L 135.586405 223.085268 
L 136.672206 225.387319 
L 137.758007 226.40751 
L 138.843808 226.758573 
L 139.929609 227.482731 
L 141.01541 229.447491 
L 142.101212 228.308782 
L 143.187013 229.800202 
L 144.272814 229.3719 
L 146.444416 226.251927 
L 148.616019 228.161531 
L 149.70182 229.851728 
L 150.787621 228.564132 
L 152.959223 228.291515 
L 154.045024 229.372297 
L 155.130825 226.036174 
L 156.216627 229.370044 
L 157.302428 227.555282 
L 158.388229 231.652619 
L 159.47403 230.685845 
L 160.559831 232.186066 
L 162.731434 231.114012 
L 163.817235 228.904653 
L 164.903036 228.305391 
L 165.988837 229.11473 
L 167.074638 229.709758 
L 168.160439 231.462223 
L 169.24624 233.656476 
L 170.332042 230.794747 
L 171.417843 230.457138 
L 172.503644 230.727701 
L 173.589445 231.857108 
L 174.675246 232.399782 
L 175.761047 231.36813 
L 176.846849 231.934313 
L 177.93265 232.914314 
L 179.018451 232.005383 
L 180.104252 232.883518 
L 181.190053 234.35394 
L 182.275854 235.598226 
L 183.361656 234.730394 
L 184.447457 236.421801 
L 185.533258 235.779809 
L 186.619059 235.407186 
L 187.70486 235.518887 
L 188.790661 236.881131 
L 189.876462 235.778627 
L 190.962264 235.990119 
L 192.048065 235.526932 
L 193.133866 236.420779 
L 194.219667 234.707192 
L 195.305468 236.837372 
L 196.391269 234.926177 
L 197.477071 235.988113 
L 198.562872 236.336621 
L 199.648673 235.736317 
L 200.734474 234.380819 
L 201.820275 232.803224 
L 202.906076 234.533537 
L 203.991877 235.124727 
L 205.077679 232.91046 
L 206.16348 235.467553 
L 207.249281 235.985699 
L 208.335082 234.40726 
L 209.420883 236.627626 
L 210.506684 236.603642 
L 211.592486 235.811858 
L 212.678287 235.921885 
L 213.764088 234.615483 
L 214.849889 233.644903 
L 215.93569 233.557874 
L 217.021491 232.760154 
L 218.107292 235.281769 
L 219.193094 240.936701 
L 220.278895 238.088332 
L 221.364696 239.091164 
L 222.450497 237.638498 
L 223.536298 240.442898 
L 224.622099 241.227584 
L 225.707901 243.331401 
L 226.793702 241.777201 
L 227.879503 240.848703 
L 228.965304 244.161705 
L 230.051105 242.593422 
L 231.136906 241.347861 
L 232.222708 243.159349 
L 233.308509 243.890814 
L 234.39431 245.772817 
L 235.480111 244.933973 
L 236.565912 243.181136 
L 237.651713 244.117115 
L 238.737514 245.664096 
L 239.823316 243.878586 
L 240.909117 247.106892 
L 241.994918 247.769614 
L 243.080719 246.906684 
L 244.16652 245.544382 
L 245.252321 246.482243 
L 246.338123 248.71571 
L 247.423924 249.517436 
L 248.509725 248.551886 
L 249.595526 247.209128 
L 250.681327 249.671364 
L 251.767128 249.339459 
L 252.852929 249.380423 
L 253.938731 249.762655 
L 255.024532 250.56031 
L 256.110333 249.237931 
L 257.196134 250.782158 
L 258.281935 249.13595 
L 259.367736 251.736566 
L 260.453538 251.568772 
L 261.539339 250.907783 
L 262.62514 251.587783 
L 263.710941 249.465981 
L 264.796742 251.500652 
L 265.882543 252.960375 
L 266.968344 250.974213 
L 269.139947 253.099611 
L 270.225748 253.925727 
L 271.311549 252.174154 
L 272.39735 252.207402 
L 273.483151 253.230988 
L 274.568953 253.303094 
L 275.654754 253.94988 
L 276.740555 253.989644 
L 277.826356 254.735889 
L 278.912157 254.740057 
L 281.08376 255.046349 
L 282.169561 254.60689 
L 283.255362 255.605861 
L 285.426964 254.576486 
L 286.512765 255.598853 
L 287.598566 254.939715 
L 289.770169 255.336314 
L 290.85597 255.196849 
L 291.941771 255.497808 
L 293.027572 254.991488 
L 294.113373 254.818131 
L 295.199175 254.275732 
L 296.284976 253.858414 
L 297.370777 254.730117 
L 298.456578 255.063832 
L 299.542379 254.197367 
L 300.62818 253.871359 
L 301.713981 254.250091 
L 302.799783 253.418879 
L 303.885584 254.056355 
L 304.971385 255.109143 
L 306.057186 254.939686 
L 307.142987 254.127467 
L 308.228788 254.573834 
L 310.400391 254.771333 
L 311.486192 256.256404 
L 312.571993 255.92367 
L 313.657794 254.853643 
L 314.743595 254.745692 
L 315.829396 255.620994 
L 316.915198 256.16081 
L 318.000999 255.855473 
L 319.0868 256.161877 
L 320.172601 255.065816 
L 321.258402 255.334749 
L 322.344203 257.16462 
L 323.430005 254.826926 
L 325.601607 257.571539 
L 326.687408 255.958417 
L 328.85901 257.544756 
L 329.944811 257.19882 
L 331.030613 257.962452 
L 332.116414 256.533135 
L 333.202215 256.588966 
L 334.288016 257.032747 
L 335.373817 256.72786 
L 336.459618 257.388713 
L 337.54542 256.71795 
L 338.631221 257.007926 
L 339.717022 255.927559 
L 340.802823 257.616503 
L 341.888624 256.457603 
L 342.974425 258.29915 
L 344.060227 257.67339 
L 345.146028 258.816384 
L 346.231829 258.176922 
L 347.31763 258.757377 
L 348.403431 258.932943 
L 350.575033 258.669919 
L 351.660835 259.006676 
L 353.832437 258.69198 
L 354.918238 258.993704 
L 356.004039 259.513117 
L 357.08984 258.991352 
L 358.175642 259.352505 
L 359.261443 259.495349 
L 361.433045 258.492398 
L 362.518846 259.299149 
L 363.604647 259.066984 
L 364.690448 259.774743 
L 366.862051 259.74581 
L 369.033653 260.216186 
L 370.119454 259.651859 
L 371.205255 260.263276 
L 372.291057 259.850212 
L 374.462659 260.064472 
L 375.54846 259.114739 
L 377.720062 259.928632 
L 378.805863 259.065772 
L 379.891665 259.626339 
L 380.977466 259.700166 
L 382.063267 260.162993 
L 383.149068 260.462763 
L 384.234869 259.329742 
L 385.32067 260.071358 
L 386.406472 259.831472 
L 387.492273 259.760892 
L 387.492273 259.760892 
" clip-path="url(#pe360595714)" style="fill: none; stroke-dasharray: 1.5,2.475; stroke-dashoffset: 0; stroke: #000000; stroke-width: 1.5"/>
    <defs>
     <path id="mca2ca086aa" d="M 0 1.5 
C 0.397805 1.5 0.77937 1.341951 1.06066 1.06066 
C 1.341951 0.77937 1.5 0.397805 1.5 0 
C 1.5 -0.397805 1.341951 -0.77937 1.06066 -1.06066 
C 0.77937 -1.341951 0.397805 -1.5 0 -1.5 
C -0.397805 -1.5 -0.77937 -1.341951 -1.06066 -1.06066 
C -1.341951 -0.77937 -1.5 -0.397805 -1.5 0 
C -1.5 0.397805 -1.341951 0.77937 -1.06066 1.06066 
C -0.77937 1.341951 -0.397805 1.5 0 1.5 
z
" style="stroke: #000000"/>
    </defs>
    <g clip-path="url(#pe360595714)">
     <use xlink:href="#mca2ca086aa" x="62.837727" y="177.294584" style="stroke: #000000"/>
     <use xlink:href="#mca2ca086aa" x="63.923528" y="202.362996" style="stroke: #000000"/>
     <use xlink:href="#mca2ca086aa" x="65.00933" y="198.301318" style="stroke: #000000"/>
     <use xlink:href="#mca2ca086aa" x="66.095131" y="202.626487" style="stroke: #000000"/>
     <use xlink:href="#mca2ca086aa" x="67.180932" y="204.004605" style="stroke: #000000"/>
     <use xlink:href="#mca2ca086aa" x="68.266733" y="201.776465" style="stroke: #000000"/>
     <use xlink:href="#mca2ca086aa" x="69.352534" y="198.520799" style="stroke: #000000"/>
     <use xlink:href="#mca2ca086aa" x="70.438335" y="210.70059" style="stroke: #000000"/>
     <use xlink:href="#mca2ca086aa" x="71.524137" y="212.277504" style="stroke: #000000"/>
     <use xlink:href="#mca2ca086aa" x="72.609938" y="212.212951" style="stroke: #000000"/>
     <use xlink:href="#mca2ca086aa" x="73.695739" y="205.519393" style="stroke: #000000"/>
     <use xlink:href="#mca2ca086aa" x="74.78154" y="207.046777" style="stroke: #000000"/>
     <use xlink:href="#mca2ca086aa" x="75.867341" y="209.241695" style="stroke: #000000"/>
     <use xlink:href="#mca2ca086aa" x="76.953142" y="207.599776" style="stroke: #000000"/>
     <use xlink:href="#mca2ca086aa" x="78.038943" y="209.663372" style="stroke: #000000"/>
     <use xlink:href="#mca2ca086aa" x="79.124745" y="209.767173" style="stroke: #000000"/>
     <use xlink:href="#mca2ca086aa" x="80.210546" y="214.028138" style="stroke: #000000"/>
     <use xlink:href="#mca2ca086aa" x="81.296347" y="212.712228" style="stroke: #000000"/>
     <use xlink:href="#mca2ca086aa" x="82.382148" y="213.971143" style="stroke: #000000"/>
     <use xlink:href="#mca2ca086aa" x="83.467949" y="211.642085" style="stroke: #000000"/>
     <use xlink:href="#mca2ca086aa" x="84.55375" y="215.397707" style="stroke: #000000"/>
     <use xlink:href="#mca2ca086aa" x="85.639552" y="210.072388" style="stroke: #000000"/>
     <use xlink:href="#mca2ca086aa" x="86.725353" y="208.603652" style="stroke: #000000"/>
     <use xlink:href="#mca2ca086aa" x="87.811154" y="212.659726" style="stroke: #000000"/>
     <use xlink:href="#mca2ca086aa" x="88.896955" y="206.62652" style="stroke: #000000"/>
     <use xlink:href="#mca2ca086aa" x="89.982756" y="206.621521" style="stroke: #000000"/>
     <use xlink:href="#mca2ca086aa" x="91.068557" y="213.182775" style="stroke: #000000"/>
     <use xlink:href="#mca2ca086aa" x="92.154358" y="211.855701" style="stroke: #000000"/>
     <use xlink:href="#mca2ca086aa" x="93.24016" y="218.227163" style="stroke: #000000"/>
     <use xlink:href="#mca2ca086aa" x="94.325961" y="216.622426" style="stroke: #000000"/>
     <use xlink:href="#mca2ca086aa" x="95.411762" y="215.576209" style="stroke: #000000"/>
     <use xlink:href="#mca2ca086aa" x="96.497563" y="221.540055" style="stroke: #000000"/>
     <use xlink:href="#mca2ca086aa" x="97.583364" y="221.460677" style="stroke: #000000"/>
     <use xlink:href="#mca2ca086aa" x="98.669165" y="222.002081" style="stroke: #000000"/>
     <use xlink:href="#mca2ca086aa" x="99.754967" y="222.813695" style="stroke: #000000"/>
     <use xlink:href="#mca2ca086aa" x="100.840768" y="224.322557" style="stroke: #000000"/>
     <use xlink:href="#mca2ca086aa" x="101.926569" y="224.976888" style="stroke: #000000"/>
     <use xlink:href="#mca2ca086aa" x="103.01237" y="220.994298" style="stroke: #000000"/>
     <use xlink:href="#mca2ca086aa" x="104.098171" y="222.660653" style="stroke: #000000"/>
     <use xlink:href="#mca2ca086aa" x="105.183972" y="222.431428" style="stroke: #000000"/>
     <use xlink:href="#mca2ca086aa" x="106.269773" y="222.445888" style="stroke: #000000"/>
     <use xlink:href="#mca2ca086aa" x="107.355575" y="227.565889" style="stroke: #000000"/>
     <use xlink:href="#mca2ca086aa" x="108.441376" y="227.829071" style="stroke: #000000"/>
     <use xlink:href="#mca2ca086aa" x="109.527177" y="228.267362" style="stroke: #000000"/>
     <use xlink:href="#mca2ca086aa" x="110.612978" y="227.928816" style="stroke: #000000"/>
     <use xlink:href="#mca2ca086aa" x="111.698779" y="226.543197" style="stroke: #000000"/>
     <use xlink:href="#mca2ca086aa" x="112.78458" y="224.243653" style="stroke: #000000"/>
     <use xlink:href="#mca2ca086aa" x="113.870382" y="228.564808" style="stroke: #000000"/>
     <use xlink:href="#mca2ca086aa" x="114.956183" y="226.777303" style="stroke: #000000"/>
     <use xlink:href="#mca2ca086aa" x="116.041984" y="230.352642" style="stroke: #000000"/>
     <use xlink:href="#mca2ca086aa" x="117.127785" y="228.164162" style="stroke: #000000"/>
     <use xlink:href="#mca2ca086aa" x="118.213586" y="230.884621" style="stroke: #000000"/>
     <use xlink:href="#mca2ca086aa" x="119.299387" y="228.419675" style="stroke: #000000"/>
     <use xlink:href="#mca2ca086aa" x="120.385189" y="230.654102" style="stroke: #000000"/>
     <use xlink:href="#mca2ca086aa" x="121.47099" y="226.126013" style="stroke: #000000"/>
     <use xlink:href="#mca2ca086aa" x="122.556791" y="228.654615" style="stroke: #000000"/>
     <use xlink:href="#mca2ca086aa" x="123.642592" y="223.461937" style="stroke: #000000"/>
     <use xlink:href="#mca2ca086aa" x="124.728393" y="227.521119" style="stroke: #000000"/>
     <use xlink:href="#mca2ca086aa" x="125.814194" y="226.086307" style="stroke: #000000"/>
     <use xlink:href="#mca2ca086aa" x="126.899995" y="225.908403" style="stroke: #000000"/>
     <use xlink:href="#mca2ca086aa" x="127.985797" y="225.087367" style="stroke: #000000"/>
     <use xlink:href="#mca2ca086aa" x="129.071598" y="224.527634" style="stroke: #000000"/>
     <use xlink:href="#mca2ca086aa" x="130.157399" y="225.245319" style="stroke: #000000"/>
     <use xlink:href="#mca2ca086aa" x="131.2432" y="224.120548" style="stroke: #000000"/>
     <use xlink:href="#mca2ca086aa" x="132.329001" y="228.105276" style="stroke: #000000"/>
     <use xlink:href="#mca2ca086aa" x="133.414802" y="223.983662" style="stroke: #000000"/>
     <use xlink:href="#mca2ca086aa" x="134.500604" y="219.654173" style="stroke: #000000"/>
     <use xlink:href="#mca2ca086aa" x="135.586405" y="223.085268" style="stroke: #000000"/>
     <use xlink:href="#mca2ca086aa" x="136.672206" y="225.387319" style="stroke: #000000"/>
     <use xlink:href="#mca2ca086aa" x="137.758007" y="226.40751" style="stroke: #000000"/>
     <use xlink:href="#mca2ca086aa" x="138.843808" y="226.758573" style="stroke: #000000"/>
     <use xlink:href="#mca2ca086aa" x="139.929609" y="227.482731" style="stroke: #000000"/>
     <use xlink:href="#mca2ca086aa" x="141.01541" y="229.447491" style="stroke: #000000"/>
     <use xlink:href="#mca2ca086aa" x="142.101212" y="228.308782" style="stroke: #000000"/>
     <use xlink:href="#mca2ca086aa" x="143.187013" y="229.800202" style="stroke: #000000"/>
     <use xlink:href="#mca2ca086aa" x="144.272814" y="229.3719" style="stroke: #000000"/>
     <use xlink:href="#mca2ca086aa" x="145.358615" y="227.763424" style="stroke: #000000"/>
     <use xlink:href="#mca2ca086aa" x="146.444416" y="226.251927" style="stroke: #000000"/>
     <use xlink:href="#mca2ca086aa" x="147.530217" y="227.283277" style="stroke: #000000"/>
     <use xlink:href="#mca2ca086aa" x="148.616019" y="228.161531" style="stroke: #000000"/>
     <use xlink:href="#mca2ca086aa" x="149.70182" y="229.851728" style="stroke: #000000"/>
     <use xlink:href="#mca2ca086aa" x="150.787621" y="228.564132" style="stroke: #000000"/>
     <use xlink:href="#mca2ca086aa" x="151.873422" y="228.469399" style="stroke: #000000"/>
     <use xlink:href="#mca2ca086aa" x="152.959223" y="228.291515" style="stroke: #000000"/>
     <use xlink:href="#mca2ca086aa" x="154.045024" y="229.372297" style="stroke: #000000"/>
     <use xlink:href="#mca2ca086aa" x="155.130825" y="226.036174" style="stroke: #000000"/>
     <use xlink:href="#mca2ca086aa" x="156.216627" y="229.370044" style="stroke: #000000"/>
     <use xlink:href="#mca2ca086aa" x="157.302428" y="227.555282" style="stroke: #000000"/>
     <use xlink:href="#mca2ca086aa" x="158.388229" y="231.652619" style="stroke: #000000"/>
     <use xlink:href="#mca2ca086aa" x="159.47403" y="230.685845" style="stroke: #000000"/>
     <use xlink:href="#mca2ca086aa" x="160.559831" y="232.186066" style="stroke: #000000"/>
     <use xlink:href="#mca2ca086aa" x="161.645632" y="231.690584" style="stroke: #000000"/>
     <use xlink:href="#mca2ca086aa" x="162.731434" y="231.114012" style="stroke: #000000"/>
     <use xlink:href="#mca2ca086aa" x="163.817235" y="228.904653" style="stroke: #000000"/>
     <use xlink:href="#mca2ca086aa" x="164.903036" y="228.305391" style="stroke: #000000"/>
     <use xlink:href="#mca2ca086aa" x="165.988837" y="229.11473" style="stroke: #000000"/>
     <use xlink:href="#mca2ca086aa" x="167.074638" y="229.709758" style="stroke: #000000"/>
     <use xlink:href="#mca2ca086aa" x="168.160439" y="231.462223" style="stroke: #000000"/>
     <use xlink:href="#mca2ca086aa" x="169.24624" y="233.656476" style="stroke: #000000"/>
     <use xlink:href="#mca2ca086aa" x="170.332042" y="230.794747" style="stroke: #000000"/>
     <use xlink:href="#mca2ca086aa" x="171.417843" y="230.457138" style="stroke: #000000"/>
     <use xlink:href="#mca2ca086aa" x="172.503644" y="230.727701" style="stroke: #000000"/>
     <use xlink:href="#mca2ca086aa" x="173.589445" y="231.857108" style="stroke: #000000"/>
     <use xlink:href="#mca2ca086aa" x="174.675246" y="232.399782" style="stroke: #000000"/>
     <use xlink:href="#mca2ca086aa" x="175.761047" y="231.36813" style="stroke: #000000"/>
     <use xlink:href="#mca2ca086aa" x="176.846849" y="231.934313" style="stroke: #000000"/>
     <use xlink:href="#mca2ca086aa" x="177.93265" y="232.914314" style="stroke: #000000"/>
     <use xlink:href="#mca2ca086aa" x="179.018451" y="232.005383" style="stroke: #000000"/>
     <use xlink:href="#mca2ca086aa" x="180.104252" y="232.883518" style="stroke: #000000"/>
     <use xlink:href="#mca2ca086aa" x="181.190053" y="234.35394" style="stroke: #000000"/>
     <use xlink:href="#mca2ca086aa" x="182.275854" y="235.598226" style="stroke: #000000"/>
     <use xlink:href="#mca2ca086aa" x="183.361656" y="234.730394" style="stroke: #000000"/>
     <use xlink:href="#mca2ca086aa" x="184.447457" y="236.421801" style="stroke: #000000"/>
     <use xlink:href="#mca2ca086aa" x="185.533258" y="235.779809" style="stroke: #000000"/>
     <use xlink:href="#mca2ca086aa" x="186.619059" y="235.407186" style="stroke: #000000"/>
     <use xlink:href="#mca2ca086aa" x="187.70486" y="235.518887" style="stroke: #000000"/>
     <use xlink:href="#mca2ca086aa" x="188.790661" y="236.881131" style="stroke: #000000"/>
     <use xlink:href="#mca2ca086aa" x="189.876462" y="235.778627" style="stroke: #000000"/>
     <use xlink:href="#mca2ca086aa" x="190.962264" y="235.990119" style="stroke: #000000"/>
     <use xlink:href="#mca2ca086aa" x="192.048065" y="235.526932" style="stroke: #000000"/>
     <use xlink:href="#mca2ca086aa" x="193.133866" y="236.420779" style="stroke: #000000"/>
     <use xlink:href="#mca2ca086aa" x="194.219667" y="234.707192" style="stroke: #000000"/>
     <use xlink:href="#mca2ca086aa" x="195.305468" y="236.837372" style="stroke: #000000"/>
     <use xlink:href="#mca2ca086aa" x="196.391269" y="234.926177" style="stroke: #000000"/>
     <use xlink:href="#mca2ca086aa" x="197.477071" y="235.988113" style="stroke: #000000"/>
     <use xlink:href="#mca2ca086aa" x="198.562872" y="236.336621" style="stroke: #000000"/>
     <use xlink:href="#mca2ca086aa" x="199.648673" y="235.736317" style="stroke: #000000"/>
     <use xlink:href="#mca2ca086aa" x="200.734474" y="234.380819" style="stroke: #000000"/>
     <use xlink:href="#mca2ca086aa" x="201.820275" y="232.803224" style="stroke: #000000"/>
     <use xlink:href="#mca2ca086aa" x="202.906076" y="234.533537" style="stroke: #000000"/>
     <use xlink:href="#mca2ca086aa" x="203.991877" y="235.124727" style="stroke: #000000"/>
     <use xlink:href="#mca2ca086aa" x="205.077679" y="232.91046" style="stroke: #000000"/>
     <use xlink:href="#mca2ca086aa" x="206.16348" y="235.467553" style="stroke: #000000"/>
     <use xlink:href="#mca2ca086aa" x="207.249281" y="235.985699" style="stroke: #000000"/>
     <use xlink:href="#mca2ca086aa" x="208.335082" y="234.40726" style="stroke: #000000"/>
     <use xlink:href="#mca2ca086aa" x="209.420883" y="236.627626" style="stroke: #000000"/>
     <use xlink:href="#mca2ca086aa" x="210.506684" y="236.603642" style="stroke: #000000"/>
     <use xlink:href="#mca2ca086aa" x="211.592486" y="235.811858" style="stroke: #000000"/>
     <use xlink:href="#mca2ca086aa" x="212.678287" y="235.921885" style="stroke: #000000"/>
     <use xlink:href="#mca2ca086aa" x="213.764088" y="234.615483" style="stroke: #000000"/>
     <use xlink:href="#mca2ca086aa" x="214.849889" y="233.644903" style="stroke: #000000"/>
     <use xlink:href="#mca2ca086aa" x="215.93569" y="233.557874" style="stroke: #000000"/>
     <use xlink:href="#mca2ca086aa" x="217.021491" y="232.760154" style="stroke: #000000"/>
     <use xlink:href="#mca2ca086aa" x="218.107292" y="235.281769" style="stroke: #000000"/>
     <use xlink:href="#mca2ca086aa" x="219.193094" y="240.936701" style="stroke: #000000"/>
     <use xlink:href="#mca2ca086aa" x="220.278895" y="238.088332" style="stroke: #000000"/>
     <use xlink:href="#mca2ca086aa" x="221.364696" y="239.091164" style="stroke: #000000"/>
     <use xlink:href="#mca2ca086aa" x="222.450497" y="237.638498" style="stroke: #000000"/>
     <use xlink:href="#mca2ca086aa" x="223.536298" y="240.442898" style="stroke: #000000"/>
     <use xlink:href="#mca2ca086aa" x="224.622099" y="241.227584" style="stroke: #000000"/>
     <use xlink:href="#mca2ca086aa" x="225.707901" y="243.331401" style="stroke: #000000"/>
     <use xlink:href="#mca2ca086aa" x="226.793702" y="241.777201" style="stroke: #000000"/>
     <use xlink:href="#mca2ca086aa" x="227.879503" y="240.848703" style="stroke: #000000"/>
     <use xlink:href="#mca2ca086aa" x="228.965304" y="244.161705" style="stroke: #000000"/>
     <use xlink:href="#mca2ca086aa" x="230.051105" y="242.593422" style="stroke: #000000"/>
     <use xlink:href="#mca2ca086aa" x="231.136906" y="241.347861" style="stroke: #000000"/>
     <use xlink:href="#mca2ca086aa" x="232.222708" y="243.159349" style="stroke: #000000"/>
     <use xlink:href="#mca2ca086aa" x="233.308509" y="243.890814" style="stroke: #000000"/>
     <use xlink:href="#mca2ca086aa" x="234.39431" y="245.772817" style="stroke: #000000"/>
     <use xlink:href="#mca2ca086aa" x="235.480111" y="244.933973" style="stroke: #000000"/>
     <use xlink:href="#mca2ca086aa" x="236.565912" y="243.181136" style="stroke: #000000"/>
     <use xlink:href="#mca2ca086aa" x="237.651713" y="244.117115" style="stroke: #000000"/>
     <use xlink:href="#mca2ca086aa" x="238.737514" y="245.664096" style="stroke: #000000"/>
     <use xlink:href="#mca2ca086aa" x="239.823316" y="243.878586" style="stroke: #000000"/>
     <use xlink:href="#mca2ca086aa" x="240.909117" y="247.106892" style="stroke: #000000"/>
     <use xlink:href="#mca2ca086aa" x="241.994918" y="247.769614" style="stroke: #000000"/>
     <use xlink:href="#mca2ca086aa" x="243.080719" y="246.906684" style="stroke: #000000"/>
     <use xlink:href="#mca2ca086aa" x="244.16652" y="245.544382" style="stroke: #000000"/>
     <use xlink:href="#mca2ca086aa" x="245.252321" y="246.482243" style="stroke: #000000"/>
     <use xlink:href="#mca2ca086aa" x="246.338123" y="248.71571" style="stroke: #000000"/>
     <use xlink:href="#mca2ca086aa" x="247.423924" y="249.517436" style="stroke: #000000"/>
     <use xlink:href="#mca2ca086aa" x="248.509725" y="248.551886" style="stroke: #000000"/>
     <use xlink:href="#mca2ca086aa" x="249.595526" y="247.209128" style="stroke: #000000"/>
     <use xlink:href="#mca2ca086aa" x="250.681327" y="249.671364" style="stroke: #000000"/>
     <use xlink:href="#mca2ca086aa" x="251.767128" y="249.339459" style="stroke: #000000"/>
     <use xlink:href="#mca2ca086aa" x="252.852929" y="249.380423" style="stroke: #000000"/>
     <use xlink:href="#mca2ca086aa" x="253.938731" y="249.762655" style="stroke: #000000"/>
     <use xlink:href="#mca2ca086aa" x="255.024532" y="250.56031" style="stroke: #000000"/>
     <use xlink:href="#mca2ca086aa" x="256.110333" y="249.237931" style="stroke: #000000"/>
     <use xlink:href="#mca2ca086aa" x="257.196134" y="250.782158" style="stroke: #000000"/>
     <use xlink:href="#mca2ca086aa" x="258.281935" y="249.13595" style="stroke: #000000"/>
     <use xlink:href="#mca2ca086aa" x="259.367736" y="251.736566" style="stroke: #000000"/>
     <use xlink:href="#mca2ca086aa" x="260.453538" y="251.568772" style="stroke: #000000"/>
     <use xlink:href="#mca2ca086aa" x="261.539339" y="250.907783" style="stroke: #000000"/>
     <use xlink:href="#mca2ca086aa" x="262.62514" y="251.587783" style="stroke: #000000"/>
     <use xlink:href="#mca2ca086aa" x="263.710941" y="249.465981" style="stroke: #000000"/>
     <use xlink:href="#mca2ca086aa" x="264.796742" y="251.500652" style="stroke: #000000"/>
     <use xlink:href="#mca2ca086aa" x="265.882543" y="252.960375" style="stroke: #000000"/>
     <use xlink:href="#mca2ca086aa" x="266.968344" y="250.974213" style="stroke: #000000"/>
     <use xlink:href="#mca2ca086aa" x="268.054146" y="252.056974" style="stroke: #000000"/>
     <use xlink:href="#mca2ca086aa" x="269.139947" y="253.099611" style="stroke: #000000"/>
     <use xlink:href="#mca2ca086aa" x="270.225748" y="253.925727" style="stroke: #000000"/>
     <use xlink:href="#mca2ca086aa" x="271.311549" y="252.174154" style="stroke: #000000"/>
     <use xlink:href="#mca2ca086aa" x="272.39735" y="252.207402" style="stroke: #000000"/>
     <use xlink:href="#mca2ca086aa" x="273.483151" y="253.230988" style="stroke: #000000"/>
     <use xlink:href="#mca2ca086aa" x="274.568953" y="253.303094" style="stroke: #000000"/>
     <use xlink:href="#mca2ca086aa" x="275.654754" y="253.94988" style="stroke: #000000"/>
     <use xlink:href="#mca2ca086aa" x="276.740555" y="253.989644" style="stroke: #000000"/>
     <use xlink:href="#mca2ca086aa" x="277.826356" y="254.735889" style="stroke: #000000"/>
     <use xlink:href="#mca2ca086aa" x="278.912157" y="254.740057" style="stroke: #000000"/>
     <use xlink:href="#mca2ca086aa" x="279.997958" y="254.871554" style="stroke: #000000"/>
     <use xlink:href="#mca2ca086aa" x="281.08376" y="255.046349" style="stroke: #000000"/>
     <use xlink:href="#mca2ca086aa" x="282.169561" y="254.60689" style="stroke: #000000"/>
     <use xlink:href="#mca2ca086aa" x="283.255362" y="255.605861" style="stroke: #000000"/>
     <use xlink:href="#mca2ca086aa" x="284.341163" y="255.109982" style="stroke: #000000"/>
     <use xlink:href="#mca2ca086aa" x="285.426964" y="254.576486" style="stroke: #000000"/>
     <use xlink:href="#mca2ca086aa" x="286.512765" y="255.598853" style="stroke: #000000"/>
     <use xlink:href="#mca2ca086aa" x="287.598566" y="254.939715" style="stroke: #000000"/>
     <use xlink:href="#mca2ca086aa" x="288.684368" y="255.138492" style="stroke: #000000"/>
     <use xlink:href="#mca2ca086aa" x="289.770169" y="255.336314" style="stroke: #000000"/>
     <use xlink:href="#mca2ca086aa" x="290.85597" y="255.196849" style="stroke: #000000"/>
     <use xlink:href="#mca2ca086aa" x="291.941771" y="255.497808" style="stroke: #000000"/>
     <use xlink:href="#mca2ca086aa" x="293.027572" y="254.991488" style="stroke: #000000"/>
     <use xlink:href="#mca2ca086aa" x="294.113373" y="254.818131" style="stroke: #000000"/>
     <use xlink:href="#mca2ca086aa" x="295.199175" y="254.275732" style="stroke: #000000"/>
     <use xlink:href="#mca2ca086aa" x="296.284976" y="253.858414" style="stroke: #000000"/>
     <use xlink:href="#mca2ca086aa" x="297.370777" y="254.730117" style="stroke: #000000"/>
     <use xlink:href="#mca2ca086aa" x="298.456578" y="255.063832" style="stroke: #000000"/>
     <use xlink:href="#mca2ca086aa" x="299.542379" y="254.197367" style="stroke: #000000"/>
     <use xlink:href="#mca2ca086aa" x="300.62818" y="253.871359" style="stroke: #000000"/>
     <use xlink:href="#mca2ca086aa" x="301.713981" y="254.250091" style="stroke: #000000"/>
     <use xlink:href="#mca2ca086aa" x="302.799783" y="253.418879" style="stroke: #000000"/>
     <use xlink:href="#mca2ca086aa" x="303.885584" y="254.056355" style="stroke: #000000"/>
     <use xlink:href="#mca2ca086aa" x="304.971385" y="255.109143" style="stroke: #000000"/>
     <use xlink:href="#mca2ca086aa" x="306.057186" y="254.939686" style="stroke: #000000"/>
     <use xlink:href="#mca2ca086aa" x="307.142987" y="254.127467" style="stroke: #000000"/>
     <use xlink:href="#mca2ca086aa" x="308.228788" y="254.573834" style="stroke: #000000"/>
     <use xlink:href="#mca2ca086aa" x="309.31459" y="254.702424" style="stroke: #000000"/>
     <use xlink:href="#mca2ca086aa" x="310.400391" y="254.771333" style="stroke: #000000"/>
     <use xlink:href="#mca2ca086aa" x="311.486192" y="256.256404" style="stroke: #000000"/>
     <use xlink:href="#mca2ca086aa" x="312.571993" y="255.92367" style="stroke: #000000"/>
     <use xlink:href="#mca2ca086aa" x="313.657794" y="254.853643" style="stroke: #000000"/>
     <use xlink:href="#mca2ca086aa" x="314.743595" y="254.745692" style="stroke: #000000"/>
     <use xlink:href="#mca2ca086aa" x="315.829396" y="255.620994" style="stroke: #000000"/>
     <use xlink:href="#mca2ca086aa" x="316.915198" y="256.16081" style="stroke: #000000"/>
     <use xlink:href="#mca2ca086aa" x="318.000999" y="255.855473" style="stroke: #000000"/>
     <use xlink:href="#mca2ca086aa" x="319.0868" y="256.161877" style="stroke: #000000"/>
     <use xlink:href="#mca2ca086aa" x="320.172601" y="255.065816" style="stroke: #000000"/>
     <use xlink:href="#mca2ca086aa" x="321.258402" y="255.334749" style="stroke: #000000"/>
     <use xlink:href="#mca2ca086aa" x="322.344203" y="257.16462" style="stroke: #000000"/>
     <use xlink:href="#mca2ca086aa" x="323.430005" y="254.826926" style="stroke: #000000"/>
     <use xlink:href="#mca2ca086aa" x="324.515806" y="256.146726" style="stroke: #000000"/>
     <use xlink:href="#mca2ca086aa" x="325.601607" y="257.571539" style="stroke: #000000"/>
     <use xlink:href="#mca2ca086aa" x="326.687408" y="255.958417" style="stroke: #000000"/>
     <use xlink:href="#mca2ca086aa" x="327.773209" y="256.793859" style="stroke: #000000"/>
     <use xlink:href="#mca2ca086aa" x="328.85901" y="257.544756" style="stroke: #000000"/>
     <use xlink:href="#mca2ca086aa" x="329.944811" y="257.19882" style="stroke: #000000"/>
     <use xlink:href="#mca2ca086aa" x="331.030613" y="257.962452" style="stroke: #000000"/>
     <use xlink:href="#mca2ca086aa" x="332.116414" y="256.533135" style="stroke: #000000"/>
     <use xlink:href="#mca2ca086aa" x="333.202215" y="256.588966" style="stroke: #000000"/>
     <use xlink:href="#mca2ca086aa" x="334.288016" y="257.032747" style="stroke: #000000"/>
     <use xlink:href="#mca2ca086aa" x="335.373817" y="256.72786" style="stroke: #000000"/>
     <use xlink:href="#mca2ca086aa" x="336.459618" y="257.388713" style="stroke: #000000"/>
     <use xlink:href="#mca2ca086aa" x="337.54542" y="256.71795" style="stroke: #000000"/>
     <use xlink:href="#mca2ca086aa" x="338.631221" y="257.007926" style="stroke: #000000"/>
     <use xlink:href="#mca2ca086aa" x="339.717022" y="255.927559" style="stroke: #000000"/>
     <use xlink:href="#mca2ca086aa" x="340.802823" y="257.616503" style="stroke: #000000"/>
     <use xlink:href="#mca2ca086aa" x="341.888624" y="256.457603" style="stroke: #000000"/>
     <use xlink:href="#mca2ca086aa" x="342.974425" y="258.29915" style="stroke: #000000"/>
     <use xlink:href="#mca2ca086aa" x="344.060227" y="257.67339" style="stroke: #000000"/>
     <use xlink:href="#mca2ca086aa" x="345.146028" y="258.816384" style="stroke: #000000"/>
     <use xlink:href="#mca2ca086aa" x="346.231829" y="258.176922" style="stroke: #000000"/>
     <use xlink:href="#mca2ca086aa" x="347.31763" y="258.757377" style="stroke: #000000"/>
     <use xlink:href="#mca2ca086aa" x="348.403431" y="258.932943" style="stroke: #000000"/>
     <use xlink:href="#mca2ca086aa" x="349.489232" y="258.821414" style="stroke: #000000"/>
     <use xlink:href="#mca2ca086aa" x="350.575033" y="258.669919" style="stroke: #000000"/>
     <use xlink:href="#mca2ca086aa" x="351.660835" y="259.006676" style="stroke: #000000"/>
     <use xlink:href="#mca2ca086aa" x="352.746636" y="258.809605" style="stroke: #000000"/>
     <use xlink:href="#mca2ca086aa" x="353.832437" y="258.69198" style="stroke: #000000"/>
     <use xlink:href="#mca2ca086aa" x="354.918238" y="258.993704" style="stroke: #000000"/>
     <use xlink:href="#mca2ca086aa" x="356.004039" y="259.513117" style="stroke: #000000"/>
     <use xlink:href="#mca2ca086aa" x="357.08984" y="258.991352" style="stroke: #000000"/>
     <use xlink:href="#mca2ca086aa" x="358.175642" y="259.352505" style="stroke: #000000"/>
     <use xlink:href="#mca2ca086aa" x="359.261443" y="259.495349" style="stroke: #000000"/>
     <use xlink:href="#mca2ca086aa" x="360.347244" y="259.028741" style="stroke: #000000"/>
     <use xlink:href="#mca2ca086aa" x="361.433045" y="258.492398" style="stroke: #000000"/>
     <use xlink:href="#mca2ca086aa" x="362.518846" y="259.299149" style="stroke: #000000"/>
     <use xlink:href="#mca2ca086aa" x="363.604647" y="259.066984" style="stroke: #000000"/>
     <use xlink:href="#mca2ca086aa" x="364.690448" y="259.774743" style="stroke: #000000"/>
     <use xlink:href="#mca2ca086aa" x="365.77625" y="259.768239" style="stroke: #000000"/>
     <use xlink:href="#mca2ca086aa" x="366.862051" y="259.74581" style="stroke: #000000"/>
     <use xlink:href="#mca2ca086aa" x="367.947852" y="259.992989" style="stroke: #000000"/>
     <use xlink:href="#mca2ca086aa" x="369.033653" y="260.216186" style="stroke: #000000"/>
     <use xlink:href="#mca2ca086aa" x="370.119454" y="259.651859" style="stroke: #000000"/>
     <use xlink:href="#mca2ca086aa" x="371.205255" y="260.263276" style="stroke: #000000"/>
     <use xlink:href="#mca2ca086aa" x="372.291057" y="259.850212" style="stroke: #000000"/>
     <use xlink:href="#mca2ca086aa" x="373.376858" y="259.986106" style="stroke: #000000"/>
     <use xlink:href="#mca2ca086aa" x="374.462659" y="260.064472" style="stroke: #000000"/>
     <use xlink:href="#mca2ca086aa" x="375.54846" y="259.114739" style="stroke: #000000"/>
     <use xlink:href="#mca2ca086aa" x="376.634261" y="259.535233" style="stroke: #000000"/>
     <use xlink:href="#mca2ca086aa" x="377.720062" y="259.928632" style="stroke: #000000"/>
     <use xlink:href="#mca2ca086aa" x="378.805863" y="259.065772" style="stroke: #000000"/>
     <use xlink:href="#mca2ca086aa" x="379.891665" y="259.626339" style="stroke: #000000"/>
     <use xlink:href="#mca2ca086aa" x="380.977466" y="259.700166" style="stroke: #000000"/>
     <use xlink:href="#mca2ca086aa" x="382.063267" y="260.162993" style="stroke: #000000"/>
     <use xlink:href="#mca2ca086aa" x="383.149068" y="260.462763" style="stroke: #000000"/>
     <use xlink:href="#mca2ca086aa" x="384.234869" y="259.329742" style="stroke: #000000"/>
     <use xlink:href="#mca2ca086aa" x="385.32067" y="260.071358" style="stroke: #000000"/>
     <use xlink:href="#mca2ca086aa" x="386.406472" y="259.831472" style="stroke: #000000"/>
     <use xlink:href="#mca2ca086aa" x="387.492273" y="259.760892" style="stroke: #000000"/>
    </g>
   </g>
   <g id="patch_10">
    <path d="M 46.605 273.312 
L 46.605 166.8672 
" style="fill: none; stroke: #000000; stroke-width: 0.8; stroke-linejoin: miter; stroke-linecap: square"/>
   </g>
   <g id="patch_11">
    <path d="M 403.725 273.312 
L 403.725 166.8672 
" style="fill: none; stroke: #000000; stroke-width: 0.8; stroke-linejoin: miter; stroke-linecap: square"/>
   </g>
   <g id="patch_12">
    <path d="M 46.605 273.312 
L 403.725 273.312 
" style="fill: none; stroke: #000000; stroke-width: 0.8; stroke-linejoin: miter; stroke-linecap: square"/>
   </g>
   <g id="patch_13">
    <path d="M 46.605 166.8672 
L 403.725 166.8672 
" style="fill: none; stroke: #000000; stroke-width: 0.8; stroke-linejoin: miter; stroke-linecap: square"/>
   </g>
  </g>
 </g>
 <defs>
  <clipPath id="p3dc1321a3a">
   <rect x="46.605" y="7.2" width="357.12" height="106.4448"/>
  </clipPath>
  <clipPath id="pe360595714">
   <rect x="46.605" y="166.8672" width="357.12" height="106.4448"/>
  </clipPath>
 </defs>
</svg>
